<svg width="22" height="22" fill="none" xmlns="http://www.w3.org/2000/svg"><path d="M5.002 8.001a.75.75 0 01-.39-1.387L14.358.617a.75.75 0 01.952.142l5.248 5.998a.75.75 0 01-1.125.99L14.598 2.22 5.392 7.89a.75.75 0 01-.39.112z" fill="#fff"/><path d="M2.754 8.001a.75.75 0 01-.532-1.282L8.219.722a.75.75 0 011.065 0l2.249 2.249a.752.752 0 11-1.065 1.064L8.751 2.311 3.286 7.784A.75.75 0 012.754 8z" fill="#fff"/><path d="M20.746 6.502H1.254a.75.75 0 00-.75.75v9.745a4.303 4.303 0 004.499 4.498h11.994a4.301 4.301 0 004.499-4.498V7.251a.75.75 0 00-.75-.75zm-2.999 8.996a1.499 1.499 0 110-2.998 1.499 1.499 0 010 2.998z" fill="#fff"/></svg>