<svg width="24" height="13" fill="none" xmlns="http://www.w3.org/2000/svg"><path d="M23.462 6.703l-2.387-.33-.965-2.463c-.254-.66-.889-1.066-1.676-1.066h-2.768c-.228 0-.431.152-.457.38l-.914 5.053a.462.462 0 01-.457.381H1.701c-.228 0-.431.153-.457.381l-.253 1.447a.482.482 0 00.457.559h.99C2.336 12.137 3.098 13 4.19 13s2.183-.863 2.463-1.955h11.045c-.102 1.092.66 1.955 1.752 1.955 1.117 0 2.183-.863 2.463-1.955h1.193c.229 0 .432-.152.457-.38l.533-3.022c.102-.483-.177-.889-.634-.94zM5.688 10.867c-.102.61-.686 1.117-1.32 1.117-.61 0-1.042-.507-.915-1.117.102-.61.686-1.117 1.32-1.117.61 0 1.042.508.915 1.117zm10.486-4.57l.381-2.133h1.625a.67.67 0 01.635.406l.685 1.727h-3.326zm4.774 4.57c-.102.61-.686 1.117-1.32 1.117-.635 0-1.041-.507-.915-1.117.102-.61.686-1.117 1.32-1.117.636 0 1.016.508.915 1.117z" fill="#fff"/><path d="M13.736 7.592L14.982.559A.483.483 0 0014.524 0H2.412a.791.791 0 00-.787.787.79.79 0 00.787.787h1.32c.432 0 .788.356.788.787a.791.791 0 01-.788.787H1.6a.791.791 0 00-.787.788c0 .431.355.787.787.787h1.32a.79.79 0 01.787.787.83.83 0 01-.787.812H.787A.791.791 0 000 7.11c0 .432.355.788.787.788h12.467c.254.101.457-.077.482-.305z" fill="#fff"/></svg>