<svg width="22" height="22" fill="none" xmlns="http://www.w3.org/2000/svg"><path d="M4.002 2.726a9.356 9.356 0 00-1.944 3.028 9.677 9.677 0 00-.683 3.575c0 1.226.232 2.441.683 3.574a9.356 9.356 0 001.944 3.028l5.432 5.671c.113.126.25.226.4.294a1.164 1.164 0 001.36-.294l5.432-5.67c1.678-1.748 2.622-4.12 2.624-6.594.002-2.474-.937-4.848-2.611-6.6C14.965.989 12.693.003 10.323 0 7.953-.002 5.68.978 4.002 2.726zm6.312 9.556a3.32 3.32 0 01-1.9-.602c-.562-.392-1-.95-1.26-1.602a3.717 3.717 0 01-.194-2.063 3.622 3.622 0 01.936-1.828c.478-.5 1.087-.84 1.75-.977a3.286 3.286 0 011.977.203c.625.27 1.16.728 1.535 1.315a3.707 3.707 0 01.316 3.35 3.583 3.583 0 01-.741 1.158 3.413 3.413 0 01-1.11.774c-.415.18-.86.272-1.309.272z" fill="#fff"/></svg>