<svg width="24" height="24" fill="none" xmlns="http://www.w3.org/2000/svg"><path d="M12 1.5a10.5 10.5 0 100 21 10.5 10.5 0 000-21zm1.76 15.418c-.597.84-1.194 1.418-1.836 1.74a3.17 3.17 0 01-1.496.32c-1.356-.112-1.986-1.135-1.395-2.76l1.784-4.9c.385-1.058.012-1.38-.294-1.388-.363-.006-.797.334-1.302 1.021a.269.269 0 01-.44-.31c.597-.842 1.194-1.419 1.836-1.741a3.171 3.171 0 011.496-.32c1.356.112 1.987 1.135 1.395 2.76l-1.784 4.9c-.385 1.058-.012 1.38.294 1.388.363.006.797-.334 1.302-1.021a.269.269 0 01.44.31zm1.43-10.2a1.268 1.268 0 11-2.383-.867 1.268 1.268 0 012.383.868z" fill="#008385"/></svg>