<svg width="40" height="41" viewBox="0 0 40 41" fill="none" xmlns="http://www.w3.org/2000/svg">
<path d="M11.3671 33.2957V8.66269H28.7139V13.6054H17.1044V19.5314H27.0708V24.4607H17.1044V33.2957H11.3671Z" fill="white"/>
<path d="M11.367 35.0735C11.367 36.3664 11.367 37.6459 11.367 38.9523C8.24242 38.9523 5.11785 38.9523 1.92593 38.9523C1.92593 35.8277 1.92593 32.7031 1.92593 29.5247C4.45791 29.5247 7.00337 29.5247 9.58923 29.5247V27.5987C6.39731 27.5987 3.20539 27.5987 0 27.5987C0 32.0836 0 36.4607 0 40.8647C4.44444 40.8647 8.84848 40.8647 13.2525 40.8647C13.2525 38.9253 13.2525 36.9859 13.2525 35.06H11.367V35.0735Z" fill="white"/>
<path d="M9.60262 12.2319C7.05716 12.2319 4.52517 12.2319 1.95278 12.2319C1.95278 9.12076 1.95278 5.99618 1.95278 2.80426C5.05043 2.80426 8.175 2.80426 11.3804 2.80426C11.3804 4.178 11.3804 5.53827 11.3804 6.88507H13.2659C13.2659 4.87834 13.2659 2.88507 13.2659 0.905273C8.79453 0.905273 4.40396 0.905273 0.0268555 0.905273C0.0268555 5.36319 0.0268555 9.74029 0.0268555 14.1578C3.23224 14.1578 6.41069 14.1578 9.61608 14.1578V12.2319H9.60262Z" fill="white"/>
<path d="M9.4276 10.3059C9.4276 8.37995 9.4276 6.53484 9.4276 4.66278C7.54208 4.66278 5.73737 4.66278 3.83838 4.66278C3.83838 6.60218 3.83838 8.46076 3.83838 10.3059C5.75084 10.3059 7.60942 10.3059 9.4276 10.3059Z" fill="white"/>
<path d="M9.42765 37.0399C9.42765 35.114 9.42765 33.2689 9.42765 31.4237C7.51519 31.4237 5.69701 31.4237 3.82495 31.4237C3.82495 33.3093 3.82495 35.1409 3.82495 37.0399C5.75088 37.0399 7.60946 37.0399 9.42765 37.0399Z" fill="white"/>
<path d="M30.4646 17.9961C29.9259 17.9961 29.4141 17.9961 28.8619 17.9961V19.5314V19.8816C29.4545 19.8816 29.9798 19.8816 30.4646 19.8816C30.4646 19.2217 30.4646 18.656 30.4646 17.9961Z" fill="white"/>
<path d="M0.0268555 25.5786C0.67332 25.5786 1.25244 25.5786 1.85851 25.5786C1.85851 24.2856 1.85851 23.0601 1.85851 21.8345C1.25244 21.8345 0.632916 21.8345 0.0268555 21.8345C0.0268555 23.1678 0.0268555 24.3799 0.0268555 25.5786Z" fill="white"/>
<path d="M1.85864 21.8485C1.87211 21.8485 1.87211 21.8485 1.88558 21.8485C1.88558 21.8347 1.88558 21.8347 1.88558 21.8209C1.87211 21.8209 1.87211 21.8209 1.85864 21.8209C1.85864 21.8209 1.85864 21.8347 1.85864 21.8485Z" fill="white"/>
<path d="M9.50841 25.6055C9.50841 24.3395 9.50841 23.1274 9.50841 21.8075C9.53535 21.8075 9.48148 21.8075 9.50841 21.8075V18.023C6.94949 18.023 4.47138 18.023 1.83165 18.023C1.83165 17.3092 1.83165 16.7301 1.83165 16.1375C1.17172 16.1375 0.606061 16.1375 0 16.1375C0 17.4035 0 18.6156 0 19.9355C0.632996 19.9355 1.21212 19.9355 1.87205 19.9355C1.87205 20.6224 1.87205 21.215 1.87205 21.8075C2.49158 21.8075 3.09764 21.8075 3.81145 21.8075C3.81145 21.1207 3.81145 20.5281 3.81145 19.9624C5.10438 19.9624 6.30303 19.9624 7.52862 19.9624C7.52862 20.5954 7.52862 21.1746 7.52862 21.8614C6.88215 21.8614 6.30303 21.8614 5.7239 21.8614C5.7239 22.5214 5.7239 23.087 5.7239 23.7469C6.3569 23.7469 6.93602 23.7469 7.62289 23.7469C7.62289 24.4338 7.62289 25.0129 7.62289 25.6055C8.29629 25.6055 8.84848 25.6055 9.50841 25.6055Z" fill="white"/>
<path d="M20.9427 15.3832C20.9427 16.1644 20.9427 16.959 20.9427 17.7536H27.0707H28.5522C28.5522 17.1745 28.5522 16.6492 28.5522 16.0835C27.2592 16.0835 26.0606 16.0835 24.7677 16.0835C24.7677 15.8546 24.7677 15.6256 24.7677 15.3832H20.9427Z" fill="white"/>
<path d="M24.7946 27.5449C24.7812 27.5449 24.7812 27.5449 24.7677 27.5449C24.7677 27.5587 24.7677 27.5587 24.7677 27.5725C24.7812 27.5725 24.7812 27.5725 24.7946 27.5725C24.7946 27.5725 24.7946 27.5587 24.7946 27.5449Z" fill="white"/>
<path d="M26.6263 26.2251H24.7947C24.7947 26.6695 24.7947 27.1005 24.7947 27.545C25.4007 27.545 26.0203 27.545 26.6263 27.545C26.6263 27.0736 26.6263 26.6426 26.6263 26.2251Z" fill="white"/>
<path d="M34.3434 29.4843C34.3434 30.0903 34.3434 30.7099 34.3434 31.4102C35.0303 31.4102 35.6094 31.4102 36.202 31.4102C36.2154 30.7637 36.2289 30.1307 36.2289 29.4843C35.5959 29.4843 34.9629 29.4843 34.3434 29.4843Z" fill="white"/>
<path d="M36.2156 33.2149C37.6028 33.2149 38.8149 33.2149 40.0001 33.2149C40.0001 32.5819 40.0001 32.0162 40.0001 31.4371C38.7072 31.4371 37.4546 31.4371 36.2156 31.4371C36.2156 32.0432 36.2156 32.6492 36.2156 33.2149Z" fill="white"/>
<path d="M34.3165 29.4573C34.3165 29.4711 34.3165 29.4711 34.3165 29.4849C34.33 29.4849 34.33 29.4849 34.3435 29.4849C34.3435 29.4711 34.3435 29.4711 34.3435 29.4573C34.33 29.4573 34.3165 29.4573 34.3165 29.4573Z" fill="white"/>
<path d="M36.229 29.4849C36.2425 29.4849 36.2425 29.4849 36.2559 29.4849C36.2559 29.4711 36.2559 29.4711 36.2559 29.4573C36.2425 29.4573 36.2425 29.4573 36.229 29.4573C36.229 29.4711 36.229 29.4711 36.229 29.4849Z" fill="white"/>
<path d="M36.2424 27.6257C36.2424 28.2318 36.2424 28.8378 36.2424 29.4574C36.8619 29.4574 37.468 29.4574 38.1818 29.4574C38.1818 28.757 38.1818 28.1779 38.1818 27.5314C38.8417 27.5314 39.4074 27.5314 39.9865 27.5314C39.9865 25.6055 39.9865 23.7469 39.9865 21.7941C39.34 21.7941 38.7609 21.7941 38.1144 21.7941C38.1144 19.8547 38.1144 18.023 38.1144 16.151C36.1885 16.151 34.3434 16.151 32.3771 16.151C32.3771 18.0634 32.3771 19.9085 32.3771 21.8479C31.138 21.8479 29.9797 21.8479 28.835 21.8479V23.7873C31.9865 23.7873 35.0437 23.7873 38.074 23.7873C38.074 24.4473 38.074 25.0129 38.074 25.6729C35.5286 25.6729 33.037 25.6729 30.5589 25.6729C30.5589 26.3597 30.5589 26.9389 30.5589 27.5988C31.1919 27.5988 31.7575 27.5988 32.4175 27.5988C32.4175 28.2452 32.4175 28.8378 32.4175 29.4574C33.1043 29.4574 33.6969 29.4574 34.2895 29.4574C34.2895 28.8648 34.2895 28.2857 34.2895 27.6257C34.9494 27.6257 35.542 27.6257 36.2424 27.6257ZM36.175 21.7806C35.5959 21.7806 35.0437 21.7806 34.3703 21.7806C34.3703 21.1745 34.3703 20.6224 34.3703 19.9894C34.9494 19.9894 35.5286 19.9894 36.175 19.9894C36.175 20.5685 36.175 21.1476 36.175 21.7806Z" fill="white"/>
<path d="M30.5858 4.71661C30.5858 6.64254 30.5858 8.48766 30.5858 10.3328C32.4983 10.3328 34.3299 10.3328 36.1885 10.3328C36.1885 8.44725 36.1885 6.6156 36.1885 4.71661C34.2626 4.71661 32.404 4.71661 30.5858 4.71661Z" fill="white"/>
<path d="M24.7677 27.5719C24.1751 27.5719 23.596 27.5719 22.936 27.5719C22.936 27.114 22.936 26.683 22.936 26.2251H20.9427C20.9427 27.3025 20.9427 28.3665 20.9427 29.4305C22.2087 29.4305 23.4747 29.4305 24.7677 29.4305C24.7677 28.7436 24.7677 28.1645 24.7677 27.5719Z" fill="white"/>
<path d="M26.761 0.892273C26.761 2.89901 26.761 4.89227 26.761 6.88554H28.6734C28.6734 5.53874 28.6734 4.17847 28.6734 2.80473C31.7711 2.80473 34.8957 2.80473 38.1011 2.80473C38.1011 5.98318 38.1011 9.08083 38.1011 12.2323C35.5691 12.2323 33.0371 12.2323 30.4916 12.2323V13.6061V14.1448C33.6701 14.1448 36.8351 14.1448 40 14.1448C40 9.71382 40 5.33672 40 0.892273C35.5421 0.892273 31.1381 0.892273 26.761 0.892273Z" fill="white"/>
<path d="M36.1886 31.4102C36.1886 31.424 36.1886 31.424 36.1886 31.4378C36.2021 31.4378 36.2021 31.4378 36.2155 31.4378C36.2155 31.424 36.2155 31.424 36.2155 31.4102C36.2155 31.4102 36.2021 31.4102 36.1886 31.4102Z" fill="white"/>
<path d="M38.0741 40.8648C38.0741 40.2183 38.0741 39.6392 38.0741 39.0331C37.4141 39.0331 36.835 39.0331 36.2424 39.0331C36.2424 39.6392 36.2424 40.2587 36.2424 40.8648C36.9293 40.8648 37.5084 40.8648 38.0741 40.8648Z" fill="white"/>
<path d="M19.1111 37.0668C21.67 37.0668 24.1616 37.0668 26.6262 37.0668C26.6262 36.4069 26.6262 35.8412 26.6262 35.1813C24.7138 35.1813 22.8552 35.1813 21.0235 35.1813C21.0235 34.4944 21.0235 33.9018 21.0235 33.2554C21.6565 33.2554 22.2222 33.2554 22.8013 33.2554C22.8013 32.5954 22.8013 32.0163 22.8013 31.3295C22.1549 31.3295 21.5353 31.3295 20.9562 31.3295C20.9293 30.6291 20.9562 30.0096 20.9293 29.417C20.2559 29.417 19.6633 29.4439 18.9899 29.4439C18.9899 29.4439 18.9629 33.9422 18.9629 35.2352C18.3299 35.2352 17.7643 35.2352 17.1044 35.2352C17.1044 36.5281 17.1044 37.7537 17.1044 39.0736C16.4175 39.0736 15.8384 39.0736 15.2727 39.0736C15.2727 39.7335 15.2727 40.2991 15.2727 40.8648C19.7306 40.8648 24.1347 40.8648 28.5118 40.8648C28.5118 40.2183 28.5118 39.6392 28.5118 38.9793C25.3333 38.9793 22.2222 38.9793 19.1111 38.9793C19.1111 38.3328 19.1111 37.7537 19.1111 37.0668Z" fill="white"/>
<path d="M36.229 39.0337C36.2365 39.0337 36.2425 39.0276 36.2425 39.0199C36.2425 39.0123 36.2365 39.0062 36.229 39.0062C36.2216 39.0062 36.2156 39.0123 36.2156 39.0199C36.2156 39.0276 36.2216 39.0337 36.229 39.0337Z" fill="white"/>
<path d="M34.2762 33.2552C32.9832 33.2552 31.7846 33.2552 30.4782 33.2552C30.4782 32.6088 30.4782 32.0162 30.4782 31.3428C29.7913 31.3428 29.2122 31.3428 28.5657 31.3428C28.5657 30.6828 28.5657 30.1172 28.5657 29.5246C27.9193 29.5246 27.3267 29.5246 26.6533 29.5246C26.6533 30.1711 26.6533 30.7502 26.6533 31.3967C25.9933 31.3967 25.4277 31.3967 24.8351 31.3967C24.8351 32.0431 24.8351 32.6357 24.8351 33.3091C26.1145 33.3091 27.3267 33.3091 28.6465 33.3091C28.6465 33.996 28.6465 34.5751 28.6465 35.235C29.3065 35.235 29.8721 35.235 30.5321 35.235C30.5321 36.528 30.5321 37.7401 30.5321 39.0061C32.4984 39.0061 34.357 39.0061 36.2156 39.0061C36.2156 38.3866 36.2156 37.7536 36.2156 37.134C35.596 37.134 34.99 37.134 34.2762 37.134C34.2762 35.7603 34.2762 34.5482 34.2762 33.2552Z" fill="white"/>
<path d="M36.2425 37.1213C36.2425 37.1075 36.2425 37.1075 36.2425 37.0938C36.229 37.0938 36.229 37.0938 36.2156 37.0938L36.2425 37.1213Z" fill="white"/>
<path d="M36.2424 37.0937C37.4815 37.0937 38.734 37.0937 39.9865 37.0937C39.9865 36.4068 39.9865 35.8277 39.9865 35.262C38.7071 35.262 37.495 35.262 36.2424 35.262C36.2424 35.922 36.2424 36.5145 36.2424 37.0937Z" fill="white"/>
<path d="M36.2156 37.1213C36.229 37.1213 36.229 37.1213 36.2425 37.1213L36.2156 37.0938C36.2156 37.1075 36.2156 37.1213 36.2156 37.1213Z" fill="white"/>
<path d="M17.1986 4.68966C17.7912 4.68966 18.3434 4.68966 19.0168 4.68966C19.0168 5.30919 19.0168 5.86138 19.0168 6.48091H22.8148C22.8148 4.54151 22.8148 2.6964 22.8148 0.864746C22.1818 0.864746 21.6296 0.864746 20.9697 0.864746C20.9697 1.49774 20.9697 2.07687 20.9697 2.66946C20.2828 2.66946 19.7037 2.66946 19.0168 2.66946C19.0168 2.023 19.0168 1.4304 19.0168 0.878215C18.3569 0.878215 17.7912 0.878215 17.1313 0.878215C17.1313 1.51121 17.1313 2.10381 17.1313 2.79067C16.4444 2.79067 15.8653 2.79067 15.2997 2.79067C15.2997 4.17788 15.2997 5.13411 15.2997 6.49438H17.1986C17.1986 5.90178 17.1986 5.32266 17.1986 4.68966Z" fill="white"/>
</svg>
