<svg width="29" height="29" viewBox="0 0 29 29" fill="none" xmlns="http://www.w3.org/2000/svg">
<path d="M1 7.5H2.65424C3.13263 7.5 3.37183 7.5 3.56628 7.58674C3.73771 7.66321 3.88415 7.78638 3.98886 7.94217C4.10763 8.11888 4.14862 8.35454 4.23058 8.82585L4.6087 11M4.6087 11L5.49173 16.0774C5.67091 17.1077 5.7605 17.6228 6.02583 17.9939C6.25945 18.3207 6.58606 18.5695 6.96311 18.708C7.39133 18.8654 7.91176 18.815 8.95264 18.7143L18.614 17.7793C19.6298 17.681 20.1378 17.6318 20.5221 17.4033C20.8653 17.1993 21.1395 16.8972 21.3095 16.536C21.5 16.1314 21.5 15.6211 21.5 14.6005V14.6005C21.5 13.5158 21.5 12.9735 21.2922 12.5539C21.1068 12.1797 20.809 11.8729 20.4404 11.6765C20.0272 11.4564 19.4851 11.4404 18.4009 11.4083L4.6087 11Z" stroke="white" stroke-width="1.8" stroke-linecap="round" stroke-linejoin="round"/>
<circle cx="8.5" cy="24" r="2" stroke="white" stroke-width="1.8"/>
<circle cx="18" cy="24" r="2" stroke="white" stroke-width="1.8"/>
<circle cx="21.5" cy="7.5" r="7.5" fill="#EF3541"/>
<path d="M23.08 7.26C23.62 6.92 23.88 6.39 23.88 5.74C23.88 4.68 23.06 3.86 21.76 3.86C20.38 3.86 19.52 4.71 19.49 5.88H20.76C20.79 5.39 21.15 5.02 21.72 5.02C22.26 5.02 22.61 5.37 22.61 5.91C22.61 6.46 22.27 6.81 21.62 6.81H21.04V7.94H21.68C22.43 7.94 22.84 8.36 22.84 8.96C22.84 9.57 22.44 9.98 21.75 9.98C21.05 9.98 20.66 9.6 20.62 8.99H19.34C19.37 10.27 20.26 11.14 21.74 11.14C23.24 11.14 24.12 10.26 24.12 9C24.12 8.28 23.77 7.62 23.08 7.26Z" fill="white"/>
</svg>
