<svg width="24" height="23" viewBox="0 0 24 23" fill="none" xmlns="http://www.w3.org/2000/svg">
<g clip-path="url(#clip0_1222:8150)">
<path d="M24 9.27838C24 8.13306 23.0684 7.20142 21.923 7.20142H2.07697C0.931641 7.20142 0 8.13306 0 9.27838C0 10.2649 0.691589 11.0924 1.61536 11.303V11.3784C1.61536 11.8389 1.66333 12.2952 1.75598 12.7402C2.23279 12.85 2.57336 13.021 2.88776 13.1791C3.33142 13.4019 3.68188 13.5781 4.46375 13.5861C5.24524 13.594 5.59973 13.4252 6.04779 13.2113C6.55957 12.967 7.14001 12.6896 8.24249 12.7015C9.34515 12.7127 9.91937 13.0013 10.426 13.256C10.8697 13.4788 11.2202 13.655 12.002 13.663C12.7842 13.6709 13.138 13.5021 13.5862 13.2882C14.098 13.0439 14.6779 12.7671 15.7808 12.7784C16.8834 12.7896 17.4578 13.0782 17.9645 13.3329C18.4081 13.5557 18.7588 13.7319 19.5406 13.7399C20.3218 13.7485 20.6766 13.579 21.1249 13.3651C21.4268 13.221 21.7524 13.0659 22.1949 12.965C22.3189 12.4556 22.3846 11.9241 22.3846 11.3784V11.303C23.3084 11.0924 24 10.2649 24 9.27838Z" fill="white"/>
<path d="M19.5266 15.1243C18.4237 15.1131 17.8495 14.8245 17.3428 14.5698C16.899 14.347 16.5485 14.1709 15.7667 14.1628C14.9855 14.1542 14.6307 14.3238 14.1824 14.5376C13.6708 14.7819 13.0913 15.0591 11.9879 15.0474C10.8853 15.0362 10.311 14.7476 9.80438 14.4929C9.36053 14.2701 9.01007 14.094 8.22821 14.0859C7.44727 14.0789 7.09241 14.2469 6.64417 14.4607C6.13239 14.705 5.55304 14.9817 4.44965 14.9705C3.4259 14.96 2.85754 14.7105 2.37598 14.4712C2.61401 14.9256 2.90479 15.3543 3.24554 15.747C4.15375 16.7937 5.36115 17.5288 6.69232 17.8557V18.9706C6.69232 19.3529 7.00232 19.6629 7.38464 19.6629H16.3846C16.767 19.6629 17.077 19.3529 17.077 18.9706V17.9082C18.9758 17.5162 20.5583 16.3291 21.4882 14.724C21.037 14.9295 20.4922 15.1247 19.5914 15.1247C19.5699 15.1247 19.5483 15.1245 19.5266 15.1243Z" fill="white"/>
<path d="M19.0384 4.8938C19.0062 4.8938 18.9739 4.89435 18.9417 4.89545C18.7535 4.40326 18.4459 3.96014 18.0423 3.60913C17.4549 3.09827 16.7023 2.81683 15.923 2.81683C15.4426 2.81683 14.9694 2.92505 14.5395 3.12848C13.9352 2.36108 13.0027 1.8938 12 1.8938C10.9973 1.8938 10.0648 2.36108 9.46051 3.12848C9.03058 2.92505 8.55743 2.81683 8.07697 2.81683C7.29767 2.81683 6.5451 3.09827 5.9577 3.60913C5.55414 3.96014 5.24652 4.40326 5.05829 4.89545C5.02606 4.89435 4.99384 4.8938 4.96161 4.8938C4.12793 4.8938 3.37628 5.24957 2.84912 5.81683H21.1509C20.6237 5.24957 19.8721 4.8938 19.0384 4.8938Z" fill="white"/>
</g>
<defs>
<clipPath id="clip0_1222:8150">
<rect width="24" height="24" fill="white" transform="translate(0 -1.19995)"/>
</clipPath>
</defs>
</svg>
