<svg width="22" height="22" viewBox="0 0 22 22" fill="none" xmlns="http://www.w3.org/2000/svg">
<g clip-path="url(#clip0_1222:6123)">
<path d="M4.51057 19.4074L3.24452 13.6155L2.17157 14.3011C0.95535 15.0309 0.200195 16.3651 0.200195 17.7834C0.200195 18.9779 0.726694 20.102 1.64503 20.8671C2.56396 21.6322 3.76406 21.9467 4.93886 21.7311L5.58209 21.6128C5.03563 20.9954 4.64726 20.2486 4.51057 19.4074Z" fill="#008385"/>
<path d="M20.2439 1.03235C19.5307 0.487923 18.6785 0.199951 17.7794 0.199951C16.3611 0.199951 15.0269 0.955106 14.3063 2.15648L13.6113 3.24428L19.5041 4.53015C20.2805 4.65406 21.0034 5.03965 21.6092 5.57931L21.7344 4.89782C22.0032 3.42704 21.4341 1.94326 20.2439 1.03235Z" fill="#008385"/>
<path d="M10.8364 20.3832L5.42721 11.3675C5.17413 10.9461 5.0055 10.4843 4.90763 10.0071C4.40817 10.7109 4.1353 11.6302 4.31342 12.5131L5.76011 19.1397C5.91713 20.1075 6.49987 20.9337 7.35948 21.4065C8.21909 21.8786 9.22889 21.9281 10.1305 21.5418L11.3181 21.0127C11.1452 20.8148 10.9747 20.6136 10.8364 20.3832Z" fill="#008385"/>
<path d="M19.7323 11.9215L10.7166 6.51232C9.50906 5.78741 7.96968 5.97654 6.97288 6.97271C5.97632 7.97032 5.78745 9.50703 6.51248 10.7164L11.9217 19.7321C12.9818 21.4994 15.4184 21.7967 16.8723 20.3414L20.3416 16.8721C21.7987 15.415 21.4966 12.9798 19.7323 11.9215Z" fill="#008385"/>
<path d="M21.4071 7.35932C20.9344 6.49971 20.1081 5.91698 19.1738 5.76679L12.5032 4.31082C11.6489 4.13962 10.7349 4.41451 10.0342 4.9033C10.4948 5.00088 10.9457 5.1738 11.3676 5.42706L20.3834 10.8362C20.6131 10.9742 20.8206 11.1356 21.0175 11.307L21.5425 10.1297C21.9281 9.22996 21.8786 8.2183 21.4071 7.35932Z" fill="#008385"/>
</g>
<defs>
<clipPath id="clip0_1222:6123">
<rect width="21.6" height="21.6" fill="white" transform="translate(0.200195 0.199951)"/>
</clipPath>
</defs>
</svg>
