<svg width="22" height="21" viewBox="0 0 22 21" fill="none" xmlns="http://www.w3.org/2000/svg">
<g clip-path="url(#clip0_1222:3703)">
<path d="M12.8372 0.812256C12.3279 0.812256 11.8575 1.0561 11.5466 1.48191C11.4226 1.65133 11.218 1.75297 11.0001 1.75297C10.7813 1.75297 10.5772 1.65133 10.4531 1.48191C10.1423 1.0561 9.67191 0.812256 9.16258 0.812256C8.26707 0.812256 7.53857 1.57602 7.53857 2.51462C7.53857 2.80153 7.6081 3.08514 7.73918 3.33445C8.72413 5.21499 10.3132 6.39827 10.9988 6.84667C11.6856 6.39536 13.2805 5.20539 14.2601 3.33568C14.3921 3.08514 14.4612 2.80153 14.4612 2.51462C14.4612 1.57602 13.7327 0.812256 12.8372 0.812256Z" fill="white"/>
<path d="M7.98535 3.76933C8.9717 5.39818 10.368 6.43408 10.999 6.84686C11.6312 6.43153 13.032 5.38998 14.0149 3.76925C12.6113 3.70447 9.38872 3.70455 7.98535 3.76933Z" fill="white"/>
<path d="M19.0456 8.38219C18.3652 6.60384 17.0393 5.10424 15.3104 4.15015C13.8396 6.75334 11.4362 8.08161 11.3315 8.13835C11.2287 8.19397 11.1145 8.22202 11.0002 8.22202C10.8855 8.22202 10.7713 8.19401 10.6685 8.13835C10.5639 8.08161 8.16123 6.75378 6.6899 4.15023C4.96101 5.10428 3.63514 6.60388 2.95483 8.38219C1.42203 8.45945 0.200195 9.66141 0.200195 11.1279C0.200195 12.644 1.50624 13.8774 3.11155 13.8774H18.8888C20.4942 13.8774 21.8002 12.644 21.8002 11.1279C21.8002 9.66141 20.5783 8.45945 19.0456 8.38219Z" fill="white"/>
<path d="M8.63867 15.1323L9.22622 20.3874H12.7735L13.3611 15.1323H8.63867Z" fill="white"/>
<path d="M7.28981 15.1323H3.05566L4.70026 19.9525C4.78868 20.2117 5.04417 20.3874 5.33257 20.3874H7.90005L7.28981 15.1323Z" fill="white"/>
<path d="M14.7103 15.1324L14.1001 20.3874H16.6678C16.9562 20.3874 17.2117 20.2117 17.3001 19.9525L18.9447 15.1323H14.7103V15.1324Z" fill="white"/>
</g>
<defs>
<clipPath id="clip0_1222:3703">
<rect width="21.6" height="20.4" fill="white" transform="translate(0.200195 0.399902)"/>
</clipPath>
</defs>
</svg>
