<svg width="24" height="24" viewBox="0 0 24 24" fill="none" xmlns="http://www.w3.org/2000/svg">
<g clip-path="url(#clip0_1222:8161)">
<path d="M14.0809 9.86069C14.3206 8.73316 14.9464 7.79716 15.8431 7.22491C16.911 6.54344 18.2445 6.42222 19.5979 6.88357C20.8915 7.32457 22.0575 8.25391 22.8809 9.50032C23.8392 10.9511 24.2063 12.642 23.8879 14.1396C23.6482 15.2671 23.0224 16.2031 22.1257 16.7753C21.4839 17.1849 20.7462 17.3921 19.9659 17.3921C19.4479 17.3921 18.9109 17.3007 18.371 17.1167C17.0773 16.6757 15.9114 15.7464 15.0879 14.5C14.1296 13.0493 13.7625 11.3583 14.0809 9.86069ZM19.7995 13.9501C20.1656 14.3161 20.6849 14.3903 20.9595 14.1157C21.234 13.8412 21.1598 13.3219 20.7938 12.9558C20.4277 12.5898 19.9084 12.5156 19.6339 12.7901C19.3593 13.0647 19.4335 13.5841 19.7995 13.9501ZM19.8815 10.7883C20.1561 10.5137 20.0819 9.99443 19.7159 9.62833C19.3498 9.26229 18.8305 9.18813 18.5559 9.46263C18.2814 9.73718 18.3556 10.2565 18.7216 10.6226C19.0877 10.9886 19.607 11.0628 19.8815 10.7883ZM17.1281 12.6847C17.4942 13.0507 18.0135 13.1249 18.2881 12.8503C18.5626 12.5758 18.4884 12.0565 18.1224 11.6904C17.7563 11.3244 17.237 11.2502 16.9625 11.5247C16.6879 11.7994 16.7621 12.3186 17.1281 12.6847Z" fill="white"/>
<path d="M8.15827 6.61035H14.3486C13.5278 7.37179 12.9552 8.39465 12.7058 9.56826C12.3095 11.4319 12.7503 13.5118 13.9149 15.2748C14.4649 16.1074 15.1458 16.8238 15.9131 17.3897H8.15823C5.7032 17.3897 3.70585 15.3924 3.70585 12.9373V11.0627C3.7059 8.60769 5.70324 6.61035 8.15827 6.61035Z" fill="white"/>
<path d="M0.32004 12C-0.172618 10.9901 -0.0964921 9.79261 0.548416 8.84062L0.870026 8.36597L2.63867 9.09919C2.41953 9.71334 2.29977 10.3743 2.29977 11.0627V12.9374C2.29977 13.6259 2.41953 14.2868 2.63867 14.901L0.870026 15.6342L0.548416 15.1595C-0.096586 14.2075 -0.172618 13.01 0.32004 12Z" fill="white"/>
</g>
<defs>
<clipPath id="clip0_1222:8161">
<rect width="24" height="24" fill="white" transform="matrix(-1 0 0 1 24 0)"/>
</clipPath>
</defs>
</svg>
