<svg width="24" height="24" viewBox="0 0 24 24" fill="none" xmlns="http://www.w3.org/2000/svg">
<g clip-path="url(#clip0_1222:6711)">
<path d="M7.2382 14.5652V14.4788L0.740062 10.3979C0.265828 11.3968 0 12.513 0 13.6903C0 15.5256 0.645609 17.2128 1.72111 18.5376L7.2382 14.5652Z" fill="white"/>
<path d="M8.79702 16.9359C8.27877 16.8183 7.83453 16.5039 7.54775 16.0752L2.71484 19.5549C4.05988 20.7006 5.80203 21.3933 7.70323 21.3933H8.79702V16.9359Z" fill="white"/>
<path d="M8.01934 13.3059C8.2465 13.1344 8.5105 13.0095 8.797 12.9445V5.98706H7.70322C5.13545 5.98706 2.85752 7.25025 1.45703 9.1875L8.01934 13.3059Z" fill="white"/>
<path d="M18.5469 1.98706H12V3.39331H18.5469C20.7784 3.39331 22.5937 5.20873 22.5937 7.44017C22.5937 9.67161 20.7784 11.487 18.5469 11.487H17.8478C18.6854 10.6367 19.2031 9.47047 19.2031 8.18544V5.98705H10.2031V12.8933H18.5469C21.5538 12.8933 24 10.447 24 7.44017C24 4.43328 21.5538 1.98706 18.5469 1.98706ZM13.2344 9.03392V7.62767H14.6406V9.03392H13.2344Z" fill="white"/>
<path d="M14.87 16.9081C14.3406 16.4656 13.6478 16.2819 12.9684 16.4043L10.2031 16.9026V21.4779L12.9684 21.9762C13.6478 22.0986 14.3406 21.9149 14.87 21.4724C15.3994 21.0298 15.7031 20.3802 15.7031 19.6902V18.6902C15.7031 18.0002 15.3994 17.3506 14.87 16.9081Z" fill="white"/>
</g>
<defs>
<clipPath id="clip0_1222:6711">
<rect width="24" height="24" fill="white"/>
</clipPath>
</defs>
</svg>
