<svg width="24" height="24" viewBox="0 0 24 24" fill="none" xmlns="http://www.w3.org/2000/svg">
<g clip-path="url(#clip0_1222:8178)">
<path d="M21.8483 2.36998L16.5551 5.82329C15.8301 5.09826 14.9264 5.25552 14.4535 5.72875L13.3585 6.82359C12.4927 6.41057 11.5483 6.62626 10.9406 7.23428L1.90796 16.2668C1.07605 17.0982 1.07516 18.4456 1.90796 19.2779L5.92206 23.292C6.75343 24.1243 8.10107 24.1248 8.93316 23.2923L10.4387 21.7867L6.92609 18.2741C6.64886 17.9971 6.64886 17.5476 6.92609 17.2705L11.9442 12.2524C12.2214 11.9752 12.6705 11.9752 12.9478 12.2524L16.4606 15.765L17.9659 14.2597C18.5767 13.6492 18.788 12.7041 18.3767 11.8418L19.4721 10.7464C19.9732 10.2445 20.1074 9.37524 19.3768 8.64476L22.8302 3.35229C23.2489 2.71042 22.4868 1.9526 21.8483 2.36998ZM17.4642 10.7469L14.4532 7.73595L15.4571 6.73227C15.4571 6.73227 18.4678 9.74273 18.4682 9.74311L17.4642 10.7469Z" fill="white"/>
<path d="M12.4461 13.7573L8.43164 17.7717L11.4425 20.7825L15.4569 16.7681L12.4461 13.7573Z" fill="white"/>
</g>
<defs>
<clipPath id="clip0_1222:8178">
<rect width="27.5769" height="27.5769" fill="white" transform="translate(13.2002 -7.49976) rotate(45)"/>
</clipPath>
</defs>
</svg>
