<svg width="22" height="22" viewBox="0 0 22 22" fill="none" xmlns="http://www.w3.org/2000/svg">
<g clip-path="url(#clip0_1222:8192)">
<path d="M14.5502 3.10867C15.2846 3.07054 15.8699 2.46838 15.8699 1.72454C15.8699 0.956127 15.2469 0.333252 14.4785 0.333252H7.52202C6.7536 0.333252 6.13068 0.956127 6.13068 1.72454C6.13068 2.46838 6.71593 3.07054 7.45035 3.10863C7.01602 7.03658 5.43506 7.29533 5.43506 11.2463V19.5796C5.43506 20.7304 6.37123 21.6666 7.52202 21.6666H14.4786C15.6294 21.6666 16.5655 20.7304 16.5655 19.5796V11.2463C16.5655 7.28871 14.9856 7.04638 14.5502 3.10867ZM10.546 8.93354C9.58239 8.29108 8.4396 8.04875 7.35481 8.18292C7.48081 7.82567 7.62718 7.47575 7.79648 7.13713C8.36239 6.00458 8.71435 4.46317 8.84948 3.11583H13.1511C13.2862 4.46317 13.6381 6.00458 14.2041 7.13713C14.4399 7.60867 14.634 8.10125 14.7853 8.60671C14.2754 8.85975 12.6005 10.3032 10.546 8.93354Z" fill="white"/>
</g>
<defs>
<clipPath id="clip0_1222:8192">
<rect width="21.3333" height="21.3333" fill="white" transform="translate(0.333496 0.333252)"/>
</clipPath>
</defs>
</svg>
