<svg width="22" height="21" viewBox="0 0 22 21" fill="none" xmlns="http://www.w3.org/2000/svg">
<g clip-path="url(#clip0_1222:8203)">
<path d="M15.5381 8.39696C15.8629 9.54184 15.6963 10.7375 15.0687 11.7641C14.2319 13.1328 12.6713 13.983 10.9961 13.983C10.1758 13.983 9.36484 13.7774 8.65078 13.3882C6.40742 12.1647 5.63585 9.44566 6.93114 7.32693C7.76797 5.95793 9.32858 5.10767 11.0037 5.10767C11.8241 5.10767 12.635 5.31342 13.3491 5.70268C14.4359 6.29535 15.2132 7.25223 15.5381 8.39696ZM11.4474 8.48271C11.3297 8.37159 11.1665 8.30793 10.9999 8.30793C10.8333 8.30793 10.6705 8.37159 10.5528 8.48271C10.4347 8.59431 10.3673 8.74839 10.3673 8.90528C10.3673 9.06263 10.4349 9.21687 10.5528 9.32799C10.6705 9.43912 10.8333 9.50278 10.9999 9.50278C11.1665 9.50278 11.3297 9.43912 11.4474 9.32799C11.565 9.21687 11.6326 9.06263 11.6326 8.90528C11.6326 8.74839 11.565 8.59431 11.4474 8.48271Z" fill="white"/>
<path d="M12.7444 14.9294C14.1669 14.516 15.402 13.6084 16.1642 12.3615C16.2486 12.2236 16.3259 12.0831 16.3971 11.9407C18.3412 12.4842 19.7637 14.1859 19.7637 16.1959C19.7637 18.6425 17.6559 20.6328 15.0654 20.6328C13.8126 20.6328 12.6729 20.1675 11.8298 19.4101C11.9245 19.2814 12.0147 19.149 12.0986 19.0119C12.8602 17.7661 13.0867 16.3238 12.7444 14.9294ZM15.2956 17.2581C15.4133 17.3697 15.5766 17.4334 15.743 17.4334C15.9096 17.4334 16.0724 17.3697 16.1901 17.2581C16.3078 17.1474 16.3753 16.9934 16.3753 16.836C16.3753 16.6787 16.3078 16.5244 16.1901 16.4133C16.0724 16.3022 15.9098 16.2385 15.743 16.2385C15.5761 16.2385 15.4133 16.3022 15.2956 16.4133C15.1779 16.5244 15.1105 16.6787 15.1105 16.836C15.1105 16.9934 15.1779 17.147 15.2956 17.2581Z" fill="white"/>
<path d="M5.60546 11.9417C6.10512 12.9485 6.92332 13.8261 8.01789 14.4232C8.92394 14.9172 9.95374 15.1782 10.9957 15.1782C11.1655 15.1782 11.3342 15.1705 11.5017 15.157C11.7859 16.2683 11.6103 17.4208 11.0028 18.4145C10.166 19.7834 8.60555 20.6338 6.93024 20.6338C6.10989 20.6338 5.29894 20.4279 4.58488 20.0386C2.34136 18.8155 1.56995 16.0963 2.86524 13.9773C3.47383 12.9818 4.46557 12.2609 5.60546 11.9417ZM5.80914 17.2581C5.92681 17.3697 6.08962 17.4334 6.25623 17.4334C6.42284 17.4334 6.58615 17.3697 6.70382 17.2581C6.82148 17.147 6.88921 16.9934 6.88921 16.836C6.88921 16.6787 6.82148 16.5245 6.70382 16.4133C6.58615 16.3022 6.42284 16.2385 6.25623 16.2385C6.08979 16.2385 5.92681 16.3022 5.80914 16.4133C5.69148 16.5245 5.62358 16.6787 5.62358 16.836C5.62358 16.9934 5.69148 17.147 5.80914 17.2581Z" fill="white"/>
<path d="M0.423688 0.919202C0.473291 0.681073 0.670386 0.494928 0.922522 0.448236C0.968335 0.439676 2.06191 0.23999 3.52414 0.23999C5.38121 0.23999 7.94541 0.570725 9.61347 2.14626C10.1266 2.63093 10.5441 3.22282 10.8643 3.91495C8.79147 3.96102 6.87392 5.03011 5.83505 6.72939C5.07881 7.96657 4.87792 9.36468 5.15841 10.6652C3.95491 10.35 2.97109 9.8358 2.22127 9.12748C-0.675822 6.39227 0.377381 1.14146 0.423688 0.919202Z" fill="white"/>
<path d="M16.76 8.08772C16.3477 6.63467 15.3609 5.42021 13.9814 4.66801C13.1134 4.19471 12.1319 3.93588 11.1348 3.91487C11.4549 3.22258 11.8727 2.63053 12.3857 2.14618C14.0536 0.57048 16.6175 0.239746 18.4744 0.239746C19.9374 0.239746 21.0313 0.439743 21.0772 0.448303C21.3291 0.495151 21.5262 0.68114 21.5758 0.919269C21.6221 1.14152 22.6748 6.39203 19.7781 9.12739C19.0296 9.83431 18.0479 10.3479 16.8475 10.6632C17.029 9.8203 17.0026 8.9428 16.76 8.08772Z" fill="white"/>
</g>
<defs>
<clipPath id="clip0_1222:8203">
<rect width="21.6" height="20.4" fill="white" transform="matrix(-1 0 0 1 21.7998 0.199951)"/>
</clipPath>
</defs>
</svg>
