<svg width="161" height="40" viewBox="0 0 161 40" fill="none" xmlns="http://www.w3.org/2000/svg">
<path d="M14.0344 20.0643H5.95253L4.74266 23.4714H0L7.88831 1.89307H12.0986L19.9869 23.4714H15.2443L14.0344 20.0643ZM7.50114 15.7919H12.4858L10.1628 9.30217L10.0177 8.59911H9.96927L9.82409 9.30217L7.50114 15.7919Z" fill="#DEE2E6"/>
<path d="M19.8418 1.18994H24.2457V23.5254H19.8418V1.18994Z" fill="#DEE2E6"/>
<path d="M25.0684 15.3051C25.0684 14.1153 25.2619 12.9796 25.6491 11.898C26.0362 10.8163 26.617 9.89696 27.3429 9.13983C28.0688 8.38269 28.9399 7.73372 29.9078 7.24699C30.9241 6.81434 31.9888 6.54395 33.1986 6.54395C34.4085 6.54395 35.5215 6.76026 36.5378 7.24699C37.5541 7.73372 38.4252 8.32861 39.1511 9.13983C39.877 9.95104 40.4578 10.8704 40.8449 11.898C41.2321 12.9796 41.4257 14.1153 41.4257 15.3051C41.4257 15.6295 41.4257 15.9 41.3773 16.1163C41.3773 16.3326 41.3289 16.4949 41.2805 16.7112H29.5206C29.6174 17.252 29.811 17.6846 30.053 18.1173C30.2949 18.5499 30.5853 18.8744 30.9241 19.1448C31.2628 19.4152 31.6016 19.6856 31.9888 19.7938C32.3759 19.956 32.7631 20.0101 33.1986 20.0101C33.8761 20.0101 34.5053 19.8479 34.9892 19.5234C35.5215 19.1989 35.9087 18.7663 36.1507 18.2795H40.8933C40.6997 18.9826 40.361 19.6856 39.877 20.3887C39.4415 21.0917 38.8608 21.6866 38.2316 22.2274C37.6025 22.7683 36.8282 23.2009 35.9571 23.5254C35.086 23.8499 34.1665 24.0121 33.1502 24.0121C31.9404 24.0121 30.8273 23.7958 29.8594 23.3091C28.8431 22.8764 28.0204 22.2274 27.2945 21.4162C26.5686 20.605 26.0363 19.6856 25.6007 18.6581C25.2619 17.6306 25.0684 16.4948 25.0684 15.3051ZM33.247 10.6541C32.4727 10.6541 31.7952 10.8704 31.1661 11.3572C30.5369 11.8439 30.1014 12.4388 29.811 13.25H36.7314C36.5862 12.8714 36.3926 12.4929 36.1507 12.1684C35.9087 11.8439 35.6667 11.5735 35.328 11.3572C35.0376 11.1408 34.6988 10.9786 34.3601 10.8163C33.9729 10.7082 33.6342 10.6541 33.247 10.6541Z" fill="#DEE2E6"/>
<path d="M45.4429 18.3334C45.4913 18.8201 45.7332 19.2528 46.1204 19.5232C46.5559 19.8476 47.0883 19.9558 47.7174 19.9558C48.5401 19.9558 49.1692 19.8477 49.508 19.5772C49.8951 19.3609 50.0403 18.9823 50.0403 18.5497C50.0403 18.2793 49.9435 18.063 49.7983 17.9007C49.6048 17.7385 49.3628 17.5762 49.024 17.4681C48.6853 17.3599 48.2981 17.2518 47.8142 17.1436C47.3302 17.0354 46.7979 16.9273 46.1204 16.765C45.83 16.7109 45.5397 16.6028 45.2009 16.5487C44.8621 16.4405 44.5234 16.3324 44.1846 16.1701C43.8459 16.0079 43.5071 15.8456 43.2167 15.5752C42.9264 15.3589 42.636 15.0885 42.394 14.71C42.1521 14.3855 41.9585 13.9528 41.8133 13.5202C41.6681 13.0334 41.6197 12.4926 41.6197 11.8436C41.6197 11.0324 41.7649 10.2753 42.0069 9.57226C42.2973 8.92328 42.6844 8.32839 43.2167 7.89574C43.7491 7.46309 44.475 7.08453 45.2977 6.81412C46.1204 6.54372 47.0883 6.43555 48.2497 6.43555C49.1692 6.43555 49.9919 6.54372 50.7178 6.81412C51.4437 7.08453 52.0729 7.4631 52.6052 7.94983C53.1375 8.43655 53.5247 9.03144 53.7667 9.68041C54.057 10.3294 54.1538 11.0865 54.1538 11.8977H49.7499C49.7016 11.5192 49.5564 11.1406 49.2176 10.8702C48.9272 10.5998 48.4433 10.4375 47.911 10.4375C47.2334 10.4375 46.7495 10.5998 46.4108 10.8702C46.072 11.1406 45.9268 11.4651 45.9268 11.8436C45.9268 12.06 45.9752 12.2222 46.072 12.3845C46.1688 12.5467 46.3624 12.6549 46.6043 12.763C46.8463 12.8712 47.1367 12.9253 47.4754 13.0334C47.8142 13.0875 48.2497 13.1957 48.7821 13.2498C49.5564 13.412 50.2823 13.5742 51.0082 13.7906C51.6857 14.0069 52.3148 14.2773 52.8472 14.6559C53.3795 15.0344 53.8151 15.5212 54.1054 16.062C54.3958 16.6028 54.5894 17.414 54.5894 18.2793C54.5894 19.2527 54.3958 20.118 54.057 20.8211C53.7183 21.5242 53.2343 22.119 52.6052 22.6058C51.9761 23.0925 51.2502 23.417 50.3791 23.6333C49.508 23.8496 48.5401 23.9578 47.5238 23.9578C46.4107 23.9578 45.3945 23.7956 44.6202 23.4711C43.8459 23.1466 43.1683 22.7139 42.636 22.1731C42.1037 21.6323 41.7165 21.0374 41.4745 20.3344C41.2326 19.6313 41.0874 18.9823 41.0874 18.2793L45.4429 18.3334Z" fill="#DEE2E6"/>
<path d="M55.3638 1.18994H59.7676V14.0612L64.6554 7.08477H69.7852L64.849 13.953L70.2692 23.5254H65.0426L61.7034 17.1438L59.7676 19.6856V23.5254H55.3638V1.18994Z" fill="#DEE2E6"/>
<path d="M68.2847 15.3051C68.2847 14.1153 68.4783 12.9796 68.8654 11.898C69.2526 10.8163 69.8333 9.89696 70.5592 9.13983C71.2851 8.38269 72.1562 7.73372 73.1241 7.24699C74.1404 6.81434 75.2051 6.54395 76.4149 6.54395C77.6248 6.54395 78.7379 6.76026 79.7541 7.24699C80.7704 7.73372 81.6415 8.32861 82.3674 9.13983C83.0933 9.95104 83.6741 10.8704 84.0612 11.898C84.4484 12.9796 84.642 14.1153 84.642 15.3051C84.642 15.6295 84.642 15.9 84.5936 16.1163C84.5936 16.3326 84.5452 16.4949 84.4968 16.7112H72.737C72.8337 17.252 73.0273 17.6846 73.2693 18.1173C73.5113 18.5499 73.8016 18.8744 74.1404 19.1448C74.4791 19.4152 74.8179 19.6856 75.2051 19.7938C75.5922 19.956 75.9794 20.0101 76.4149 20.0101C77.0924 20.0101 77.7216 19.8479 78.2055 19.5234C78.7378 19.1989 79.125 18.7663 79.367 18.2795H84.1096C83.916 18.9826 83.5773 19.6856 83.0933 20.3887C82.6578 21.0917 82.0771 21.6866 81.4479 22.2274C80.8188 22.7683 80.0445 23.2009 79.1734 23.5254C78.3023 23.8499 77.3828 24.0121 76.3665 24.0121C75.1567 24.0121 74.0436 23.7958 73.0757 23.3091C72.0594 22.8764 71.2367 22.2274 70.5108 21.4162C69.7849 20.605 69.2526 19.6856 68.817 18.6581C68.4782 17.6306 68.2847 16.4948 68.2847 15.3051ZM76.4633 10.6541C75.689 10.6541 75.0115 10.8704 74.3824 11.3572C73.7532 11.8439 73.3177 12.4388 73.0273 13.25H79.9477C79.8025 12.8714 79.6089 12.4929 79.367 12.1684C79.125 11.8439 78.883 11.5735 78.5443 11.3572C78.2539 11.1408 77.9151 10.9786 77.5764 10.8163C77.2376 10.7082 76.8505 10.6541 76.4633 10.6541Z" fill="#DEE2E6"/>
<path d="M95.4827 11.3032H93.6437C92.4338 11.3032 91.5143 11.6817 90.8368 12.4389C90.1592 13.196 89.8204 14.3317 89.8204 15.846V23.4714H85.4648V7.03076H88.9977L89.3365 8.59911C89.8204 8.16646 90.4012 7.78789 91.0787 7.4634C91.7563 7.193 92.5306 7.03076 93.4501 7.03076H95.5311V11.3032H95.4827Z" fill="#DEE2E6"/>
<path d="M94.9019 15.3051C94.9019 14.1153 95.0954 12.9796 95.4826 11.898C95.8698 10.8163 96.4505 9.89696 97.1764 9.13983C97.9023 8.38269 98.7735 7.73372 99.7414 7.24699C100.709 6.76026 101.871 6.54395 103.081 6.54395C104.29 6.54395 105.404 6.76026 106.42 7.24699C107.436 7.73372 108.307 8.32861 109.033 9.13983C109.759 9.95104 110.34 10.8704 110.727 11.898C111.114 12.9255 111.308 14.1153 111.308 15.3051C111.308 16.4948 111.114 17.6306 110.727 18.7122C110.34 19.7938 109.759 20.7132 109.033 21.4703C108.307 22.2274 107.436 22.8764 106.42 23.3631C105.404 23.8499 104.29 24.0662 103.081 24.0662C101.871 24.0662 100.806 23.8499 99.7897 23.3631C98.7735 22.8764 97.9507 22.2815 97.2248 21.4703C96.4989 20.6591 95.9666 19.7397 95.531 18.7122C95.0954 17.6846 94.9019 16.4948 94.9019 15.3051ZM99.2574 15.251C99.2574 15.954 99.3542 16.5489 99.5478 17.0897C99.7414 17.6306 100.032 18.1173 100.37 18.5499C100.709 18.9285 101.145 19.253 101.58 19.4693C102.064 19.6856 102.548 19.7938 103.081 19.7938C103.613 19.7938 104.097 19.6856 104.581 19.4693C105.065 19.253 105.452 18.9285 105.791 18.5499C106.129 18.1714 106.42 17.6846 106.613 17.0897C106.807 16.5489 106.904 15.9 106.904 15.1969C106.904 14.5479 106.807 13.899 106.613 13.3582C106.42 12.8173 106.129 12.3306 105.791 11.952C105.452 11.5735 105.065 11.249 104.581 11.0327C104.097 10.8163 103.613 10.7082 103.081 10.7082C102.548 10.7082 102.064 10.8163 101.58 11.0327C101.096 11.249 100.709 11.5735 100.37 11.952C100.032 12.3306 99.7414 12.8173 99.5478 13.3582C99.3542 13.899 99.2574 14.602 99.2574 15.251Z" fill="#DEE2E6"/>
<path d="M113.243 11.2488H110.533V7.03053H113.243V6.43564C113.243 5.6785 113.34 4.92138 113.485 4.16424C113.679 3.40711 113.969 2.70405 114.356 2.10916C114.792 1.51426 115.324 0.973461 116.002 0.594894C116.679 0.216327 117.55 0 118.615 0H121.567V4.00199H119.68C119.293 4.00199 118.954 4.05607 118.712 4.21831C118.47 4.32647 118.228 4.5428 118.083 4.75912C117.938 4.97545 117.792 5.24585 117.744 5.57034C117.696 5.89482 117.647 6.21932 117.647 6.54381V7.08461H121.567V11.3029H117.647V23.5252H113.243V11.2488Z" fill="#DEE2E6"/>
<path d="M123.116 11.2491H120.406V7.03077H123.116V6.43588C123.116 5.67875 123.213 4.92162 123.358 4.16449C123.551 3.40735 123.842 2.70429 124.229 2.1094C124.664 1.51451 125.197 0.973706 125.874 0.595138C126.552 0.216571 127.423 0.000244141 128.488 0.000244141H131.44V4.00224H129.552C129.165 4.00224 128.826 4.05631 128.584 4.21856C128.342 4.32672 128.1 4.54304 127.955 4.75937C127.81 4.97569 127.665 5.2461 127.617 5.57058C127.568 5.89507 127.52 6.21956 127.52 6.54405V7.08486H131.44V11.3032H127.52V23.5255H123.116V11.2491Z" fill="#DEE2E6"/>
<path d="M146.055 11.3034H144.216C143.006 11.3034 142.086 11.682 141.409 12.4391C140.731 13.1962 140.393 14.3319 140.393 15.8462V23.4716H136.037V7.03101H139.57L139.909 8.59935C140.393 8.1667 140.973 7.78813 141.651 7.46365C142.328 7.19324 143.103 7.03101 144.022 7.03101H146.103V11.3034H146.055Z" fill="#DEE2E6"/>
<path d="M153.411 19.7935C153.895 19.7935 154.331 19.7395 154.718 19.5772C155.105 19.415 155.444 19.1986 155.686 18.8742C155.976 18.5497 156.17 18.117 156.315 17.5762C156.46 17.0354 156.557 16.3864 156.557 15.5752V6.97632H160.961V15.7375C160.961 17.2517 160.767 18.4956 160.38 19.5231C159.993 20.5507 159.461 21.416 158.783 22.0649C158.106 22.7139 157.331 23.2006 156.412 23.471C155.492 23.7414 154.476 23.9037 153.411 23.9037C152.347 23.9037 151.33 23.7414 150.411 23.471C149.491 23.2006 148.717 22.7139 148.04 22.0649C147.362 21.416 146.83 20.5507 146.443 19.5231C146.055 18.4956 145.862 17.1976 145.862 15.7375V6.97632H150.266V15.5752C150.266 16.3323 150.314 17.0354 150.459 17.5221C150.605 18.0629 150.798 18.4956 151.088 18.8201C151.379 19.1446 151.669 19.3609 152.056 19.5231C152.492 19.7395 152.927 19.7935 153.411 19.7935Z" fill="#DEE2E6"/>
<path d="M133.956 18.6042H129.601V23.4715H133.956V18.6042Z" fill="#DEE2E6"/>
<path d="M85.5503 34.6461C85.5503 34.2135 85.5987 33.8349 85.7439 33.4563C85.8891 33.0778 86.0343 32.7533 86.2762 32.4829C86.5182 32.2125 86.8086 31.9961 87.099 31.8339C87.4378 31.6717 87.8249 31.6176 88.2121 31.6176C88.5025 31.6176 88.7929 31.6717 89.0349 31.7798C89.2768 31.888 89.4704 31.9961 89.664 32.1584V29.7788H91.1643V37.4583H89.8576L89.7608 36.9716C89.5672 37.1338 89.3252 37.2961 89.0833 37.4583C88.8413 37.6206 88.5025 37.6747 88.2121 37.6747C87.7765 37.6747 87.4378 37.6206 87.099 37.4583C86.7602 37.2961 86.4698 37.0798 86.2279 36.8094C85.9859 36.5389 85.7923 36.2145 85.6955 35.8359C85.5987 35.4573 85.5503 35.0788 85.5503 34.6461ZM87.0506 34.6461C87.0506 34.8624 87.099 35.0788 87.1474 35.2951C87.1958 35.5114 87.2926 35.6737 87.4378 35.7818C87.583 35.9441 87.6798 36.0522 87.8733 36.1063C88.0669 36.1604 88.2121 36.2145 88.4057 36.2145C88.5993 36.2145 88.7445 36.1604 88.9381 36.1063C89.0832 36.0522 89.2284 35.9441 89.3736 35.7818C89.5188 35.6196 89.6156 35.4573 89.664 35.2951C89.7124 35.0788 89.7608 34.8624 89.7608 34.6461C89.7608 34.4298 89.7124 34.2135 89.664 33.9971C89.6156 33.7808 89.5188 33.6186 89.3736 33.5104C89.2284 33.3482 89.1316 33.2941 88.9381 33.1859C88.7929 33.1318 88.5993 33.0778 88.4057 33.0778C88.2121 33.0778 88.0185 33.1318 87.8733 33.1859C87.7282 33.24 87.583 33.3482 87.4378 33.5104C87.341 33.6726 87.2442 33.8349 87.1474 33.9971C87.099 34.2135 87.0506 34.4298 87.0506 34.6461Z" fill="#DEE2E6"/>
<path d="M93.3898 31.834H91.8896V37.5125H93.3898V31.834Z" fill="#DEE2E6"/>
<path d="M93.874 34.646C93.874 34.2133 93.9224 33.8348 94.0676 33.4562C94.2128 33.0776 94.358 32.7531 94.6 32.4827C94.842 32.2123 95.1323 31.996 95.4711 31.8338C95.8099 31.6715 96.1971 31.6174 96.5842 31.6174C96.7778 31.6174 96.923 31.6174 97.0682 31.6715C97.2134 31.7256 97.3586 31.7797 97.5038 31.8338C97.649 31.8878 97.7457 31.9419 97.8909 32.0501C97.9877 32.1042 98.1329 32.2123 98.1813 32.3205L98.2781 31.8338H99.488V37.0796C99.488 37.5123 99.4396 37.8908 99.2945 38.2694C99.1493 38.648 99.0041 38.9184 98.7621 39.1888C98.5201 39.4592 98.2297 39.6214 97.8909 39.7837C97.5522 39.9459 97.165 40 96.7294 40C96.439 40 96.1487 39.9459 95.9067 39.8918C95.6647 39.8378 95.4227 39.7296 95.2775 39.6214C95.1323 39.5133 94.9387 39.4051 94.7936 39.2429C94.6484 39.0806 94.5516 38.9184 94.4548 38.7561C94.358 38.5939 94.3096 38.4316 94.2612 38.2153C94.2128 37.999 94.1644 37.8368 94.1644 37.6745H95.6163C95.6647 37.7827 95.7131 37.8908 95.7615 37.999C95.8099 38.1072 95.9067 38.1612 96.0035 38.2694C96.1003 38.3776 96.1971 38.3776 96.3423 38.4316C96.4874 38.4857 96.6326 38.4857 96.7778 38.4857C97.0198 38.4857 97.2618 38.4316 97.407 38.3235C97.5522 38.2153 97.6974 38.1072 97.7942 37.9449C97.8909 37.7827 97.9393 37.6745 97.9877 37.5123C98.0361 37.35 98.0361 37.1878 98.0361 37.0796V36.9174C97.8426 37.0796 97.6006 37.2419 97.3586 37.35C97.1166 37.4582 96.7778 37.5123 96.439 37.5123C96.0519 37.5123 95.7131 37.4582 95.3743 37.2959C95.0355 37.1337 94.7936 36.9715 94.5516 36.7011C94.3096 36.4307 94.1644 36.1062 94.0192 35.7817C93.9224 35.4572 93.874 35.0786 93.874 34.646ZM95.3743 34.646C95.3743 34.8623 95.4227 35.0786 95.4711 35.2949C95.5195 35.5113 95.6163 35.6735 95.7615 35.7817C95.9067 35.9439 96.0035 35.998 96.1971 36.1062C96.3422 36.1602 96.5358 36.2143 96.7294 36.2143C96.923 36.2143 97.0682 36.1602 97.2618 36.1062C97.407 36.0521 97.5522 35.9439 97.6974 35.7817C97.7941 35.6194 97.8909 35.4572 97.9877 35.2949C98.0361 35.0786 98.0845 34.8623 98.0845 34.646C98.0845 34.4296 98.0361 34.2133 97.9877 33.997C97.9393 33.7807 97.8425 33.6184 97.6974 33.5103C97.5522 33.348 97.4554 33.294 97.2618 33.1858C97.1166 33.1317 96.923 33.0776 96.7294 33.0776C96.5358 33.0776 96.3422 33.1317 96.1971 33.1858C96.0519 33.2399 95.9067 33.348 95.7615 33.5103C95.6647 33.6725 95.5679 33.8348 95.4711 33.997C95.4227 34.2133 95.3743 34.4296 95.3743 34.646Z" fill="#DEE2E6"/>
<path d="M101.714 31.834H100.214V37.5125H101.714V31.834Z" fill="#DEE2E6"/>
<path d="M103.166 30.2651H104.231V31.8335H105.683V33.2937H104.231V35.2947C104.231 35.4569 104.231 35.6192 104.28 35.7273C104.328 35.8355 104.376 35.9437 104.425 35.9977C104.473 36.0518 104.57 36.1059 104.667 36.16C104.763 36.16 104.86 36.2141 104.957 36.2141H105.78V37.6202H104.812C104.522 37.6202 104.28 37.5661 103.989 37.512C103.699 37.4579 103.505 37.3498 103.312 37.1875C103.118 37.0253 102.973 36.8089 102.876 36.4845C102.779 36.16 102.731 35.7814 102.731 35.3488V33.3478H101.908V32.0498L102.683 31.7253L103.166 30.2651Z" fill="#DEE2E6"/>
<path d="M105.876 34.646C105.876 34.2133 105.924 33.8348 106.07 33.4562C106.215 33.0776 106.36 32.7531 106.602 32.4827C106.844 32.2123 107.134 31.996 107.473 31.8338C107.812 31.6715 108.199 31.6174 108.586 31.6174C108.925 31.6174 109.215 31.6715 109.506 31.7797C109.796 31.8878 109.99 32.0501 110.183 32.2123L110.232 31.7797H111.538V37.4582H110.232L110.183 37.0255C109.99 37.1878 109.748 37.35 109.506 37.4582C109.264 37.5663 108.925 37.6204 108.586 37.6204C108.151 37.6204 107.812 37.5663 107.473 37.4041C107.134 37.2419 106.844 37.0255 106.602 36.7551C106.36 36.4847 106.166 36.1602 106.07 35.7817C105.924 35.4572 105.876 35.0786 105.876 34.646ZM107.376 34.646C107.376 34.8623 107.425 35.0786 107.473 35.2949C107.521 35.5113 107.618 35.6735 107.763 35.7817C107.909 35.9439 108.005 35.998 108.199 36.1062C108.344 36.1602 108.538 36.2143 108.731 36.2143C108.925 36.2143 109.07 36.1602 109.264 36.1062C109.409 36.0521 109.554 35.9439 109.699 35.7817C109.844 35.6194 109.941 35.4572 109.99 35.2949C110.038 35.0786 110.086 34.8623 110.086 34.646C110.086 34.4296 110.038 34.2133 109.99 33.997C109.941 33.7807 109.844 33.6184 109.699 33.5103C109.554 33.348 109.457 33.294 109.264 33.1858C109.118 33.1317 108.925 33.0776 108.731 33.0776C108.538 33.0776 108.344 33.1317 108.199 33.1858C108.054 33.2399 107.909 33.348 107.763 33.5103C107.667 33.6725 107.57 33.8348 107.473 33.997C107.425 34.2133 107.376 34.4296 107.376 34.646Z" fill="#DEE2E6"/>
<path d="M112.216 29.7788H113.716V37.4583H112.216V29.7788Z" fill="#DEE2E6"/>
<path d="M116.087 28.5886H117.539V39.5671H116.087V28.5886Z" fill="#DEE2E6"/>
<path d="M125.573 34.6461C125.573 35.0787 125.524 35.4573 125.379 35.8359C125.234 36.2145 125.089 36.5389 124.847 36.8093C124.605 37.0797 124.315 37.2961 123.976 37.4583C123.637 37.6206 123.25 37.6746 122.863 37.6746C122.718 37.6746 122.524 37.6746 122.379 37.6206C122.234 37.5665 122.088 37.5665 121.943 37.4583C121.798 37.4042 121.701 37.3502 121.556 37.242C121.459 37.1879 121.314 37.0797 121.266 37.0257L121.217 37.4583H119.911V29.7788H121.411V32.1584C121.604 31.9961 121.798 31.888 122.04 31.7798C122.282 31.6716 122.572 31.6176 122.863 31.6176C123.298 31.6176 123.637 31.6717 123.976 31.8339C124.315 31.9961 124.605 32.2125 124.798 32.4829C124.992 32.7533 125.186 33.0778 125.331 33.4563C125.476 33.8349 125.573 34.2134 125.573 34.6461ZM124.073 34.6461C124.073 34.4298 124.024 34.2135 123.976 33.9971C123.927 33.7808 123.831 33.6186 123.685 33.5104C123.589 33.3482 123.443 33.2941 123.25 33.1859C123.105 33.1318 122.911 33.0778 122.718 33.0778C122.524 33.0778 122.379 33.1318 122.185 33.1859C122.04 33.24 121.895 33.3482 121.75 33.5104C121.604 33.6726 121.508 33.8349 121.459 33.9971C121.411 34.2135 121.362 34.3757 121.362 34.6461C121.362 34.8624 121.411 35.0788 121.459 35.2951C121.508 35.5114 121.604 35.6736 121.75 35.7818C121.895 35.944 121.992 35.9981 122.185 36.1063C122.379 36.2145 122.524 36.2144 122.718 36.2144C122.911 36.2144 123.056 36.1604 123.25 36.1063C123.443 36.0522 123.54 35.944 123.685 35.7818C123.831 35.6196 123.927 35.4573 123.976 35.2951C124.024 35.0788 124.073 34.8624 124.073 34.6461Z" fill="#DEE2E6"/>
<path d="M129.444 33.2942H128.815C128.38 33.2942 128.089 33.4023 127.847 33.6727C127.605 33.9431 127.509 34.3217 127.509 34.8625V37.5125H126.008V31.834H127.218L127.315 32.3748C127.46 32.2126 127.654 32.1044 127.896 31.9962C128.138 31.8881 128.38 31.834 128.718 31.834H129.444V33.2942Z" fill="#DEE2E6"/>
<path d="M129.348 34.646C129.348 34.2133 129.396 33.8348 129.541 33.4562C129.686 33.0776 129.832 32.7531 130.074 32.4827C130.316 32.2123 130.606 31.996 130.945 31.8338C131.283 31.6715 131.671 31.6174 132.058 31.6174C132.396 31.6174 132.687 31.6715 132.977 31.7797C133.268 31.8878 133.461 32.0501 133.655 32.2123L133.703 31.7797H135.01V37.4582H133.703L133.655 37.0255C133.461 37.1878 133.219 37.35 132.977 37.4582C132.735 37.5663 132.396 37.6204 132.058 37.6204C131.622 37.6204 131.283 37.5663 130.945 37.4041C130.606 37.2419 130.316 37.0255 130.074 36.7551C129.832 36.4847 129.638 36.1602 129.541 35.7817C129.396 35.4572 129.348 35.0786 129.348 34.646ZM130.848 34.646C130.848 34.8623 130.896 35.0786 130.945 35.2949C130.993 35.5113 131.09 35.6735 131.235 35.7817C131.38 35.9439 131.477 35.998 131.671 36.1062C131.816 36.1602 132.009 36.2143 132.203 36.2143C132.396 36.2143 132.542 36.1602 132.735 36.1062C132.88 36.0521 133.026 35.9439 133.171 35.7817C133.316 35.6194 133.413 35.4572 133.461 35.2949C133.51 35.0786 133.558 34.8623 133.558 34.646C133.558 34.4296 133.51 34.2133 133.461 33.997C133.413 33.7807 133.316 33.6184 133.171 33.5103C133.026 33.348 132.929 33.294 132.735 33.1858C132.59 33.1317 132.396 33.0776 132.203 33.0776C132.009 33.0776 131.816 33.1317 131.671 33.1858C131.525 33.2399 131.38 33.348 131.235 33.5103C131.138 33.6725 131.041 33.8348 130.945 33.997C130.896 34.2133 130.848 34.4296 130.848 34.646Z" fill="#DEE2E6"/>
<path d="M140.914 37.4578H139.413V34.4834C139.413 34.213 139.365 33.9966 139.317 33.8344C139.268 33.6721 139.22 33.5099 139.123 33.4017C139.026 33.2936 138.929 33.2395 138.784 33.1854C138.639 33.1313 138.542 33.1313 138.397 33.1313C138.203 33.1313 138.058 33.1854 137.913 33.2395C137.768 33.2936 137.623 33.4017 137.526 33.564C137.429 33.7262 137.332 33.8885 137.284 34.0507C137.236 34.267 137.187 34.4293 137.187 34.6456V37.5119H135.687V31.8334H136.897L136.994 32.266C137.09 32.212 137.236 32.1038 137.332 32.0497C137.429 31.9956 137.574 31.8875 137.72 31.8334C137.865 31.7793 138.01 31.7252 138.155 31.7252C138.3 31.6711 138.445 31.6711 138.591 31.6711C138.978 31.6711 139.365 31.7252 139.655 31.8875C139.946 32.0497 140.188 32.2119 140.381 32.4283C140.575 32.6446 140.72 32.9691 140.768 33.2936C140.865 33.6181 140.914 34.0507 140.914 34.4834V37.4578Z" fill="#DEE2E6"/>
<path d="M141.204 34.6461C141.204 34.2134 141.253 33.8349 141.398 33.4563C141.543 33.0778 141.688 32.7533 141.93 32.4829C142.172 32.2125 142.462 31.9961 142.753 31.8339C143.092 31.6717 143.479 31.6176 143.866 31.6176C144.156 31.6176 144.447 31.6716 144.689 31.7798C144.931 31.888 145.124 31.9961 145.318 32.1584V29.7788H146.818V37.4583H145.511L145.415 36.9716C145.221 37.1338 144.979 37.2961 144.737 37.4583C144.495 37.5665 144.156 37.6746 143.866 37.6746C143.43 37.6746 143.092 37.6206 142.753 37.4583C142.414 37.2961 142.124 37.0797 141.882 36.8093C141.64 36.5389 141.446 36.2145 141.349 35.8359C141.301 35.4573 141.204 35.0787 141.204 34.6461ZM142.753 34.6461C142.753 34.8624 142.801 35.0788 142.85 35.2951C142.898 35.5114 142.995 35.6736 143.14 35.7818C143.285 35.944 143.382 36.0522 143.575 36.1063C143.721 36.1604 143.914 36.2144 144.108 36.2144C144.301 36.2144 144.447 36.1604 144.64 36.1063C144.834 36.0522 144.931 35.944 145.076 35.7818C145.221 35.6196 145.318 35.4573 145.366 35.2951C145.415 35.0788 145.463 34.8624 145.463 34.6461C145.463 34.4298 145.415 34.2135 145.366 33.9971C145.318 33.7808 145.221 33.6186 145.076 33.5104C144.931 33.3482 144.834 33.2941 144.64 33.1859C144.447 33.0778 144.301 33.0778 144.108 33.0778C143.914 33.0778 143.721 33.1318 143.575 33.1859C143.43 33.24 143.285 33.3482 143.14 33.5104C143.043 33.6726 142.946 33.8349 142.85 33.9971C142.753 34.2135 142.753 34.4298 142.753 34.6461Z" fill="#DEE2E6"/>
<path d="M149.093 31.834H147.593V37.5125H149.093V31.834Z" fill="#DEE2E6"/>
<path d="M155.094 37.4578H153.594V34.4834C153.594 34.213 153.545 33.9966 153.497 33.8344C153.449 33.6721 153.4 33.5099 153.303 33.4017C153.207 33.2936 153.11 33.2395 152.965 33.1854C152.819 33.1313 152.723 33.1313 152.577 33.1313C152.384 33.1313 152.239 33.1854 152.093 33.2395C151.948 33.2936 151.803 33.4017 151.706 33.564C151.609 33.7262 151.513 33.8885 151.464 34.0507C151.416 34.267 151.367 34.4293 151.367 34.6456V37.5119H149.867V31.8334H151.077L151.174 32.266C151.271 32.212 151.416 32.1038 151.513 32.0497C151.609 31.9956 151.755 31.8875 151.9 31.8334C152.045 31.7793 152.19 31.7252 152.335 31.7252C152.481 31.6711 152.626 31.6711 152.771 31.6711C153.158 31.6711 153.545 31.7252 153.836 31.8875C154.126 32.0497 154.368 32.212 154.562 32.4283C154.755 32.6446 154.9 32.9691 154.949 33.2936C155.046 33.6181 155.094 34.0507 155.094 34.4834V37.4578Z" fill="#DEE2E6"/>
<path d="M155.384 34.646C155.384 34.2133 155.432 33.8348 155.577 33.4562C155.723 33.0776 155.868 32.7531 156.11 32.4827C156.352 32.2123 156.642 31.996 156.981 31.8338C157.32 31.6715 157.707 31.6174 158.094 31.6174C158.288 31.6174 158.433 31.6174 158.578 31.6715C158.723 31.7256 158.868 31.7797 159.013 31.8338C159.159 31.8878 159.255 31.9419 159.401 32.0501C159.497 32.1042 159.643 32.2123 159.691 32.3205L159.788 31.8338H160.998V37.0796C160.998 37.5123 160.949 37.8908 160.804 38.2694C160.659 38.648 160.514 38.9184 160.272 39.1888C160.03 39.4592 159.739 39.6214 159.401 39.7837C159.062 39.9459 158.675 40 158.239 40C157.949 40 157.658 39.9459 157.416 39.8918C157.174 39.8378 156.932 39.7296 156.787 39.6214C156.642 39.5133 156.449 39.4051 156.303 39.2429C156.158 39.0806 156.061 38.9184 155.965 38.7561C155.868 38.5939 155.819 38.4316 155.771 38.2153C155.723 37.999 155.674 37.8368 155.674 37.6745H157.126C157.174 37.7827 157.223 37.8908 157.271 37.999C157.32 38.1072 157.416 38.1612 157.513 38.2694C157.61 38.3776 157.707 38.3776 157.852 38.4316C157.997 38.4857 158.142 38.4857 158.288 38.4857C158.529 38.4857 158.771 38.4316 158.917 38.3235C159.062 38.2153 159.207 38.1072 159.304 37.9449C159.401 37.7827 159.449 37.6745 159.497 37.5123C159.546 37.35 159.546 37.1878 159.546 37.0796V36.9174C159.352 37.0796 159.11 37.2419 158.868 37.35C158.626 37.4582 158.288 37.5123 157.949 37.5123C157.562 37.5123 157.223 37.4582 156.884 37.2959C156.545 37.1337 156.303 36.9715 156.061 36.7011C155.819 36.4307 155.674 36.1062 155.529 35.7817C155.432 35.4572 155.384 35.0786 155.384 34.646ZM156.884 34.646C156.884 34.8623 156.932 35.0786 156.981 35.2949C157.029 35.5113 157.126 35.6735 157.271 35.7817C157.416 35.9439 157.513 35.998 157.707 36.1062C157.852 36.1602 158.046 36.2143 158.239 36.2143C158.433 36.2143 158.578 36.1602 158.771 36.1062C158.917 36.0521 159.062 35.9439 159.207 35.7817C159.304 35.6194 159.401 35.4572 159.497 35.2949C159.546 35.0786 159.594 34.8623 159.594 34.646C159.594 34.4296 159.546 34.2133 159.497 33.997C159.449 33.7807 159.352 33.6184 159.207 33.5103C159.062 33.348 158.965 33.294 158.771 33.1858C158.626 33.1317 158.433 33.0776 158.239 33.0776C158.046 33.0776 157.852 33.1317 157.707 33.1858C157.562 33.2399 157.416 33.348 157.271 33.5103C157.174 33.6725 157.078 33.8348 156.981 33.997C156.932 34.2133 156.884 34.4296 156.884 34.646Z" fill="#DEE2E6"/>
<path d="M93.4386 29.7788H91.9385V31.4553H93.4386V29.7788Z" fill="#DEE2E6"/>
<path d="M101.714 29.7788H100.214V31.4553H101.714V29.7788Z" fill="#DEE2E6"/>
<path d="M149.093 29.7788H147.593V31.4553H149.093V29.7788Z" fill="#DEE2E6"/>
</svg>
