<svg width="57" height="57" viewBox="0 0 57 57" fill="none" xmlns="http://www.w3.org/2000/svg">
<path d="M16.1982 46.2141V11.1124H40.9172V18.1557H24.3739V26.6001H38.5758V33.6243H24.3739V46.2141H16.1982Z" fill="#040507"/>
<path d="M16.1978 48.7474C16.1978 50.5898 16.1978 52.4131 16.1978 54.2747C11.7454 54.2747 7.29287 54.2747 2.74442 54.2747C2.74442 49.8222 2.74442 45.3697 2.74442 40.8404C6.35247 40.8404 9.97972 40.8404 13.6645 40.8404V38.096C9.11609 38.096 4.56764 38.096 0 38.096C0 44.4869 0 50.7242 0 56.9999C6.33328 56.9999 12.609 56.9999 18.8847 56.9999C18.8847 54.2363 18.8847 51.4727 18.8847 48.7283H16.1978V48.7474Z" fill="#040507"/>
<path d="M13.6834 16.1984C10.0562 16.1984 6.44814 16.1984 2.78251 16.1984C2.78251 11.7651 2.78251 7.31259 2.78251 2.76415C7.19661 2.76415 11.6491 2.76415 16.2167 2.76415C16.2167 4.72171 16.2167 6.66007 16.2167 8.57925H18.9036C18.9036 5.71968 18.9036 2.8793 18.9036 0.0581055C12.5319 0.0581055 6.27541 0.0581055 0.0380859 0.0581055C0.0380859 6.41058 0.0380859 12.6479 0.0380859 18.9428C4.60573 18.9428 9.13498 18.9428 13.7026 18.9428V16.1984H13.6834Z" fill="#040507"/>
<path d="M13.4343 13.4539C13.4343 10.7095 13.4343 8.08019 13.4343 5.41254C10.7475 5.41254 8.17577 5.41254 5.46973 5.41254C5.46973 8.17615 5.46973 10.8246 5.46973 13.4539C8.19496 13.4539 10.8434 13.4539 13.4343 13.4539Z" fill="#040507"/>
<path d="M13.4349 51.5495C13.4349 48.8051 13.4349 46.1758 13.4349 43.5466C10.7097 43.5466 8.11883 43.5466 5.45117 43.5466C5.45117 46.2334 5.45117 48.8435 5.45117 51.5495C8.19559 51.5495 10.8441 51.5495 13.4349 51.5495Z" fill="#040507"/>
<path d="M43.4117 24.4123C42.6441 24.4123 41.9148 24.4123 41.1279 24.4123V26.6002V27.0991C41.9724 27.0991 42.7208 27.0991 43.4117 27.0991C43.4117 26.1587 43.4117 25.3527 43.4117 24.4123Z" fill="#040507"/>
<path d="M0.0380859 35.2173C0.95929 35.2173 1.78454 35.2173 2.64817 35.2173C2.64817 33.3749 2.64817 31.6284 2.64817 29.882C1.78454 29.882 0.901715 29.882 0.0380859 29.882C0.0380859 31.7819 0.0380859 33.5092 0.0380859 35.2173Z" fill="#040507"/>
<path d="M2.64844 29.9019C2.66763 29.9019 2.66763 29.9019 2.68682 29.9019C2.68682 29.8823 2.68682 29.8823 2.68682 29.8626C2.66763 29.8626 2.66763 29.8626 2.64844 29.8626C2.64844 29.8626 2.64844 29.8823 2.64844 29.9019Z" fill="#040507"/>
<path d="M13.5494 35.2557C13.5494 33.4516 13.5494 31.7244 13.5494 29.8436C13.5878 29.8436 13.511 29.8436 13.5494 29.8436V24.4507C9.90294 24.4507 6.37166 24.4507 2.61008 24.4507C2.61008 23.4335 2.61008 22.6083 2.61008 21.7639C1.66968 21.7639 0.863629 21.7639 0 21.7639C0 23.5679 0 25.2951 0 27.1759C0.902013 27.1759 1.72726 27.1759 2.66765 27.1759C2.66765 28.1547 2.66765 28.9991 2.66765 29.8436C3.55047 29.8436 4.4141 29.8436 5.43127 29.8436C5.43127 28.8648 5.43127 28.0204 5.43127 27.2143C7.27368 27.2143 8.98174 27.2143 10.7282 27.2143C10.7282 28.1163 10.7282 28.9416 10.7282 29.9204C9.80699 29.9204 8.98174 29.9204 8.1565 29.9204C8.1565 30.8608 8.1565 31.6668 8.1565 32.6072C9.05851 32.6072 9.88375 32.6072 10.8625 32.6072C10.8625 33.586 10.8625 34.4112 10.8625 35.2557C11.8221 35.2557 12.609 35.2557 13.5494 35.2557Z" fill="#040507"/>
<path d="M29.8438 20.689C29.8438 21.8022 29.8438 22.9345 29.8438 24.0668H38.576H40.6871C40.6871 23.2415 40.6871 22.4931 40.6871 21.687C38.8447 21.687 37.1366 21.687 35.2942 21.687C35.2942 21.3607 35.2942 21.0345 35.2942 20.689H29.8438Z" fill="#040507"/>
<path d="M35.3323 38.0193C35.3131 38.0193 35.3131 38.0193 35.2939 38.0193C35.2939 38.0389 35.2939 38.0389 35.2939 38.0586C35.3131 38.0586 35.3131 38.0586 35.3323 38.0586C35.3323 38.0586 35.3323 38.0389 35.3323 38.0193Z" fill="#040507"/>
<path d="M37.9421 36.1385H35.332C35.332 36.7719 35.332 37.386 35.332 38.0193C36.1957 38.0193 37.0785 38.0193 37.9421 38.0193C37.9421 37.3476 37.9421 36.7335 37.9421 36.1385Z" fill="#040507"/>
<path d="M48.9385 40.7829C48.9385 41.6465 48.9385 42.5294 48.9385 43.5273C49.9173 43.5273 50.7425 43.5273 51.5869 43.5273C51.6061 42.6061 51.6253 41.7041 51.6253 40.7829C50.7233 40.7829 49.8213 40.7829 48.9385 40.7829Z" fill="#040507"/>
<path d="M51.6074 46.099C53.5842 46.099 55.3114 46.099 57.0003 46.099C57.0003 45.197 57.0003 44.3909 57.0003 43.5657C55.1579 43.5657 53.3731 43.5657 51.6074 43.5657C51.6074 44.4293 51.6074 45.2929 51.6074 46.099Z" fill="#040507"/>
<path d="M48.9004 40.7444C48.9004 40.7641 48.9004 40.7641 48.9004 40.7837C48.9196 40.7837 48.9196 40.7837 48.9388 40.7837C48.9388 40.7641 48.9388 40.7641 48.9388 40.7444C48.9196 40.7444 48.9004 40.7444 48.9004 40.7444Z" fill="#040507"/>
<path d="M51.626 40.7837C51.6452 40.7837 51.6452 40.7837 51.6644 40.7837C51.6644 40.7641 51.6644 40.7641 51.6644 40.7444C51.6452 40.7444 51.6452 40.7444 51.626 40.7444C51.626 40.7641 51.626 40.7641 51.626 40.7837Z" fill="#040507"/>
<path d="M51.6453 38.1344C51.6453 38.998 51.6453 39.8617 51.6453 40.7445C52.5281 40.7445 53.3918 40.7445 54.4089 40.7445C54.4089 39.7465 54.4089 38.9213 54.4089 38.0001C55.3493 38.0001 56.1554 38.0001 56.9806 38.0001C56.9806 35.2556 56.9806 32.6072 56.9806 29.8244C56.0594 29.8244 55.2342 29.8244 54.313 29.8244C54.313 27.0608 54.313 24.4507 54.313 21.783C51.5685 21.783 48.9393 21.783 46.1373 21.783C46.1373 24.5083 46.1373 27.1375 46.1373 29.9011C44.3716 29.9011 42.7211 29.9011 41.0898 29.9011V32.6648C45.5807 32.6648 49.9372 32.6648 54.2554 32.6648C54.2554 33.6052 54.2554 34.4112 54.2554 35.3516C50.6282 35.3516 47.0777 35.3516 43.5464 35.3516C43.5464 36.3304 43.5464 37.1556 43.5464 38.096C44.4484 38.096 45.2545 38.096 46.1949 38.096C46.1949 39.0172 46.1949 39.8617 46.1949 40.7445C47.1736 40.7445 48.0181 40.7445 48.8625 40.7445C48.8625 39.9001 48.8625 39.0748 48.8625 38.1344C49.8029 38.1344 50.6473 38.1344 51.6453 38.1344ZM51.5494 29.8052C50.7241 29.8052 49.9372 29.8052 48.9777 29.8052C48.9777 28.9416 48.9777 28.1547 48.9777 27.2527C49.8029 27.2527 50.6282 27.2527 51.5494 27.2527C51.5494 28.0779 51.5494 28.9032 51.5494 29.8052Z" fill="#040507"/>
<path d="M43.585 5.4892C43.585 8.23362 43.585 10.8629 43.585 13.4922C46.3102 13.4922 48.9203 13.4922 51.5687 13.4922C51.5687 10.8053 51.5687 8.19523 51.5687 5.4892C48.8243 5.4892 46.1758 5.4892 43.585 5.4892Z" fill="#040507"/>
<path d="M35.2942 38.0577C34.4498 38.0577 33.6245 38.0577 32.6841 38.0577C32.6841 37.4052 32.6841 36.7911 32.6841 36.1385H29.8438C29.8438 37.6739 29.8438 39.19 29.8438 40.7062C31.6478 40.7062 33.4518 40.7062 35.2942 40.7062C35.2942 39.7274 35.2942 38.9022 35.2942 38.0577Z" fill="#040507"/>
<path d="M38.1338 0.0396118C38.1338 2.89918 38.1338 5.73957 38.1338 8.57995H40.859C40.859 6.66077 40.859 4.7224 40.859 2.76484C45.2731 2.76484 49.7256 2.76484 54.2933 2.76484C54.2933 7.2941 54.2933 11.7082 54.2933 16.1991C50.6852 16.1991 47.0772 16.1991 43.4499 16.1991V18.1566V18.9243C47.9792 18.9243 52.4892 18.9243 56.9993 18.9243C56.9993 12.6102 56.9993 6.37289 56.9993 0.0396118C50.6468 0.0396118 44.3711 0.0396118 38.1338 0.0396118Z" fill="#040507"/>
<path d="M51.5684 43.5273C51.5684 43.547 51.5684 43.547 51.5684 43.5666C51.5876 43.5666 51.5876 43.5666 51.6067 43.5666C51.6067 43.547 51.6067 43.547 51.6067 43.5273C51.6067 43.5273 51.5876 43.5273 51.5684 43.5273Z" fill="#040507"/>
<path d="M54.2546 56.9999C54.2546 56.0787 54.2546 55.2535 54.2546 54.3898C53.3142 54.3898 52.489 54.3898 51.6445 54.3898C51.6445 55.2535 51.6445 56.1363 51.6445 56.9999C52.6233 56.9999 53.4486 56.9999 54.2546 56.9999Z" fill="#040507"/>
<path d="M27.2323 51.5879C30.8788 51.5879 34.4293 51.5879 37.9414 51.5879C37.9414 50.6475 37.9414 49.8414 37.9414 48.901C35.2161 48.901 32.5677 48.901 29.9576 48.901C29.9576 47.9222 29.9576 47.0778 29.9576 46.1566C30.8596 46.1566 31.6656 46.1566 32.4909 46.1566C32.4909 45.2162 32.4909 44.391 32.4909 43.4122C31.5697 43.4122 30.6869 43.4122 29.8616 43.4122C29.8232 42.4142 29.8616 41.5314 29.8232 40.687C28.8636 40.687 28.0192 40.7253 27.0596 40.7253C27.0596 40.7253 27.0212 47.1354 27.0212 48.9778C26.1192 48.9778 25.3132 48.9778 24.3728 48.9778C24.3728 50.8202 24.3728 52.5666 24.3728 54.4474C23.394 54.4474 22.5687 54.4474 21.7627 54.4474C21.7627 55.3878 21.7627 56.1939 21.7627 56.9999C28.1152 56.9999 34.3909 56.9999 40.6282 56.9999C40.6282 56.0787 40.6282 55.2535 40.6282 54.3131C36.0989 54.3131 31.6656 54.3131 27.2323 54.3131C27.2323 53.3919 27.2323 52.5666 27.2323 51.5879Z" fill="#040507"/>
<path d="M51.6266 54.3907C51.6372 54.3907 51.6458 54.3819 51.6458 54.3711C51.6458 54.3602 51.6372 54.3514 51.6266 54.3514C51.616 54.3514 51.6074 54.3602 51.6074 54.3711C51.6074 54.3819 51.616 54.3907 51.6266 54.3907Z" fill="#040507"/>
<path d="M48.8431 46.1564C47.0007 46.1564 45.2926 46.1564 43.431 46.1564C43.431 45.2352 43.431 44.3908 43.431 43.4312C42.4522 43.4312 41.627 43.4312 40.7058 43.4312C40.7058 42.4908 40.7058 41.6848 40.7058 40.8403C39.7846 40.8403 38.9401 40.8403 37.9805 40.8403C37.9805 41.7615 37.9805 42.5868 37.9805 43.508C37.0401 43.508 36.2341 43.508 35.3896 43.508C35.3896 44.4292 35.3896 45.2736 35.3896 46.2332C37.2129 46.2332 38.9401 46.2332 40.8209 46.2332C40.8209 47.212 40.8209 48.0372 40.8209 48.9776C41.7613 48.9776 42.5674 48.9776 43.5078 48.9776C43.5078 50.8201 43.5078 52.5473 43.5078 54.3513C46.3098 54.3513 48.9582 54.3513 51.6067 54.3513C51.6067 53.4685 51.6067 52.5665 51.6067 51.6837C50.7239 51.6837 49.8602 51.6837 48.8431 51.6837C48.8431 49.7261 48.8431 47.9989 48.8431 46.1564Z" fill="#040507"/>
<path d="M51.6458 51.6656C51.6458 51.6459 51.6458 51.6459 51.6458 51.6263C51.6266 51.6263 51.6266 51.6263 51.6074 51.6263L51.6458 51.6656Z" fill="#040507"/>
<path d="M51.6445 51.6261C53.4102 51.6261 55.195 51.6261 56.9798 51.6261C56.9798 50.6473 56.9798 49.8221 56.9798 49.0161C55.1566 49.0161 53.4294 49.0161 51.6445 49.0161C51.6445 49.9564 51.6445 50.8009 51.6445 51.6261Z" fill="#040507"/>
<path d="M51.6074 51.6656C51.6266 51.6656 51.6266 51.6656 51.6458 51.6656L51.6074 51.6263C51.6074 51.6459 51.6074 51.6656 51.6074 51.6656Z" fill="#040507"/>
<path d="M24.5078 5.45083C25.3522 5.45083 26.1391 5.45083 27.0987 5.45083C27.0987 6.33365 27.0987 7.12051 27.0987 8.00333H32.5108C32.5108 5.23972 32.5108 2.61044 32.5108 0.000366211C31.6087 0.000366211 30.8219 0.000366211 29.8815 0.000366211C29.8815 0.902379 29.8815 1.72763 29.8815 2.57207C28.9027 2.57207 28.0775 2.57207 27.0987 2.57207C27.0987 1.65086 27.0987 0.806421 27.0987 0.0195591C26.1583 0.0195591 25.3522 0.0195591 24.4118 0.0195591C24.4118 0.921572 24.4118 1.76601 24.4118 2.74479C23.4331 2.74479 22.6078 2.74479 21.8018 2.74479C21.8018 4.72154 21.8018 6.08416 21.8018 8.02252H24.5078C24.5078 7.17809 24.5078 6.35284 24.5078 5.45083Z" fill="#040507"/>
</svg>
