<svg width="32" height="32" viewBox="0 0 32 32" fill="none" xmlns="http://www.w3.org/2000/svg">
<path fill-rule="evenodd" clip-rule="evenodd" d="M0 16C0 7.16344 7.16344 0 16 0C24.8366 0 32 7.16344 32 16C32 24.8366 24.8366 32 16 32C7.16344 32 0 24.8366 0 16ZM21.8923 12.6224C21.8773 12.7179 21.8603 12.8155 21.8411 12.9157C21.8229 13.0089 21.8036 13.1004 21.783 13.1903C21.7335 13.1593 21.6814 13.1293 21.6267 13.1003L21.3461 12.9413V12.5808L21.3525 12.5397C21.4411 11.9771 21.4395 11.5157 21.3488 11.1296C21.2624 10.7616 21.0837 10.4272 20.8032 10.1072C20.2048 9.42507 19.0587 9.07947 17.3979 9.07947H12.3952C12.3547 9.07947 12.3157 9.09387 12.2853 9.12C12.2549 9.14613 12.2341 9.18293 12.2277 9.2224L10.1659 22.296H13.1328L13.2038 22.2976L13.1179 22.8427L12.9051 24.1936C12.8693 24.4219 13.0453 24.6277 13.2757 24.6277H15.8789C16.1872 24.6277 16.4491 24.4037 16.4976 24.0997L16.5232 23.9675L17.0133 20.8571L17.0448 20.6864C17.0928 20.3813 17.3552 20.1573 17.6635 20.1573H18.0528C20.5749 20.1573 22.5493 19.1333 23.1264 16.1701C23.3675 14.9323 23.2427 13.8987 22.6048 13.1717C22.4117 12.9525 22.1723 12.7707 21.8923 12.6224Z" fill="#AAAFB4"/>
<path fill-rule="evenodd" clip-rule="evenodd" d="M21.2019 12.3472C21.1011 12.3178 20.9971 12.2912 20.8905 12.2672C20.7833 12.2437 20.6734 12.2229 20.5603 12.2048C20.1646 12.1408 19.731 12.1104 19.2665 12.1104H15.3454C15.2489 12.1104 15.1571 12.1322 15.075 12.1717C14.8942 12.2586 14.7598 12.4298 14.7273 12.6394L13.8931 17.9226L13.8691 18.0768C13.9241 17.729 14.2211 17.473 14.5737 17.473H16.0414C18.9241 17.473 21.1811 16.3024 21.8409 12.9157C21.8606 12.8154 21.8771 12.7178 21.8921 12.6224C21.7251 12.5338 21.5443 12.4581 21.3497 12.3936C21.3017 12.3776 21.2521 12.3621 21.2019 12.3472Z" fill="#AAAFB4"/>
</svg>
