<svg width="32" height="32" viewBox="0 0 32 32" fill="none" xmlns="http://www.w3.org/2000/svg">
<path fill-rule="evenodd" clip-rule="evenodd" d="M0 16C0 7.16344 7.16344 0 16 0C24.8366 0 32 7.16344 32 16C32 24.8366 24.8366 32 16 32C7.16344 32 0 24.8366 0 16ZM22.0117 8.10703L22.829 8.84347L12.5077 14.689L7.51049 11.8353L7.97751 10.9147L12.5077 13.4692L22.0117 8.10703ZM19.9334 6.93333L21.0309 7.48566L12.5077 12.3185L8.53795 10.0862L9.21514 9.28073L12.5077 11.1448L19.9334 6.93333ZM23.5529 9.60292L24.16 10.4084L12.5077 17.0133L6.88 13.8374L7.13687 12.8248L12.5077 15.8626L23.5529 9.60292ZM25.6 15.612C25.6 14.5495 25.4271 13.5344 25.0817 12.5656L24.5634 11.2533L12.2425 18.2834L6.4 14.9793V15.612C6.4 16.8929 6.65113 18.1348 7.15387 19.3384C7.62503 20.4787 8.30822 21.4943 9.20344 22.3847C10.1142 23.2593 11.1272 23.9314 12.2425 24.4C13.4359 24.9151 14.6845 25.1733 15.9882 25.1733C17.2764 25.1733 18.525 24.9156 19.734 24.4C20.8808 23.9314 21.9014 23.2593 22.7966 22.3847C23.6762 21.4943 24.3594 20.4787 24.8461 19.3384L25.0817 18.7052C25.4271 17.7055 25.6 16.6745 25.6 15.612Z" fill="#AAAFB4"/>
</svg>
