<svg width="32" height="32" viewBox="0 0 32 32" fill="none" xmlns="http://www.w3.org/2000/svg">
<path fill-rule="evenodd" clip-rule="evenodd" d="M16 32C24.8366 32 32 24.8366 32 16C32 7.16344 24.8366 0 16 0C7.16344 0 0 7.16344 0 16C0 24.8366 7.16344 32 16 32ZM16.3369 15.3827C16.3259 16.2516 17.105 16.7365 17.6919 17.0248C18.2949 17.3206 18.4975 17.5103 18.4951 17.7748C18.4905 18.1797 18.0141 18.3583 17.5682 18.3653C16.8113 18.3771 16.3627 18.1655 16.0078 17.998L15.9784 17.9842L15.6982 19.3061C16.059 19.4737 16.727 19.6199 17.4198 19.6263C19.0458 19.6263 20.1097 18.8171 20.1154 17.5625C20.1192 16.61 19.3366 16.1958 18.7103 15.8643C18.2897 15.6417 17.9396 15.4564 17.9457 15.1705C17.9508 14.9547 18.1551 14.7244 18.6027 14.6658C18.8243 14.6362 19.4359 14.6136 20.1292 14.9355L20.4014 13.6566C20.0286 13.5197 19.5493 13.3886 18.9526 13.3886C17.4221 13.3886 16.3455 14.2087 16.3369 15.3827ZM22.3577 13.9414C22.4693 13.6734 22.7196 13.4988 23.0165 13.4988H24.3388L25.5885 19.5323H24.1564L23.9688 18.6315H21.9831L21.6598 19.5323H20.0349L22.3577 13.9414ZM14.3668 13.4988L13.0859 19.5323H14.6343L15.9145 13.4988H14.3668ZM10.4645 17.6054L12.0761 13.4988H13.7022L11.1935 19.5323H9.5571L8.32232 14.7174C8.24752 14.421 8.1825 14.312 7.95465 14.1873C7.58237 13.9831 6.96786 13.7923 6.42699 13.674L6.46382 13.4988H9.09851C9.43396 13.4988 9.73604 13.7238 9.81257 14.1136L10.4645 17.6054Z" fill="#AAAFB4"/>
<path fill-rule="evenodd" clip-rule="evenodd" d="M23.713 17.3943H22.4287L23.244 15.1287L23.713 17.3943Z" fill="#AAAFB4"/>
</svg>
