<svg width="14" height="14" viewBox="0 0 14 14" fill="none" xmlns="http://www.w3.org/2000/svg">
<path d="M3.0013 5.00064C2.8929 4.9999 2.78768 4.96395 2.7015 4.8982C2.61532 4.83244 2.55286 4.74046 2.52353 4.6361C2.4942 4.53175 2.49959 4.42069 2.53889 4.31966C2.57819 4.21864 2.64927 4.13313 2.74141 4.07603L9.23861 0.0777588C9.33872 0.0165586 9.45718 -0.00746496 9.57322 0.00989649C9.68927 0.0272579 9.79551 0.0848973 9.87333 0.172718L13.3718 4.17099C13.4526 4.27129 13.4916 4.39889 13.4805 4.5272C13.4695 4.65551 13.4094 4.77462 13.3128 4.85969C13.2161 4.94477 13.0903 4.98924 12.9616 4.98384C12.833 4.97844 12.7114 4.92358 12.6221 4.83071L9.39854 1.1473L3.26118 4.92567C3.18309 4.97407 3.09317 5.00001 3.0013 5.00064Z" fill="#008385"/>
<path d="M1.50268 5.00074C1.43691 5.00112 1.3717 4.98851 1.31081 4.96364C1.24992 4.93877 1.19454 4.90213 1.14784 4.8558C1.10099 4.80934 1.06381 4.75407 1.03844 4.69316C1.01306 4.63226 1 4.56694 1 4.50096C1 4.43498 1.01306 4.36966 1.03844 4.30875C1.06381 4.24785 1.10099 4.19257 1.14784 4.14611L5.14611 0.147835C5.19257 0.100991 5.24785 0.0638103 5.30875 0.0384369C5.36966 0.0130635 5.43498 0 5.50096 0C5.56694 0 5.63226 0.0130635 5.69316 0.0384369C5.75407 0.0638103 5.80934 0.100991 5.8558 0.147835L7.35516 1.64719C7.40176 1.69379 7.43872 1.74911 7.46394 1.80999C7.48916 1.87088 7.50214 1.93613 7.50214 2.00204C7.50214 2.06794 7.48916 2.13319 7.46394 2.19408C7.43872 2.25496 7.40176 2.31028 7.35516 2.35688C7.30856 2.40348 7.25324 2.44045 7.19235 2.46567C7.13147 2.49088 7.06621 2.50387 7.00031 2.50387C6.93441 2.50387 6.86915 2.49088 6.80827 2.46567C6.74738 2.44045 6.69206 2.40348 6.64546 2.35688L5.50096 1.20738L1.85753 4.8558C1.81083 4.90213 1.75545 4.93877 1.69455 4.96364C1.63366 4.98851 1.56846 5.00112 1.50268 5.00074Z" fill="#008385"/>
<path d="M13.4973 4.00122H0.502871C0.37032 4.00122 0.243197 4.05388 0.14947 4.1476C0.0557419 4.24133 0.00308626 4.36845 0.00308626 4.50101V10.9982C-0.0154226 11.3969 0.049473 11.7951 0.193624 12.1673C0.337774 12.5395 0.558007 12.8775 0.840241 13.1598C1.12248 13.442 1.4605 13.6622 1.8327 13.8064C2.2049 13.9505 2.60308 14.0154 3.00179 13.9969H10.9983C11.3971 14.0154 11.7952 13.9505 12.1674 13.8064C12.5396 13.6622 12.8777 13.442 13.1599 13.1598C13.4421 12.8775 13.6624 12.5395 13.8065 12.1673C13.9507 11.7951 14.0156 11.3969 13.997 10.9982V4.50101C13.997 4.36845 13.9444 4.24133 13.8507 4.1476C13.7569 4.05388 13.6298 4.00122 13.4973 4.00122ZM11.4981 9.99863C11.3004 9.99863 11.1072 9.94001 10.9428 9.83018C10.7784 9.72034 10.6503 9.56423 10.5746 9.38158C10.499 9.19894 10.4792 8.99796 10.5178 8.80406C10.5563 8.61016 10.6515 8.43205 10.7913 8.29226C10.9311 8.15247 11.1092 8.05727 11.3031 8.0187C11.497 7.98013 11.698 7.99993 11.8806 8.07558C12.0633 8.15124 12.2194 8.27936 12.3292 8.44373C12.4391 8.60811 12.4977 8.80137 12.4977 8.99906C12.4977 9.26417 12.3924 9.51841 12.2049 9.70587C12.0175 9.89332 11.7632 9.99863 11.4981 9.99863Z" fill="#008385"/>
</svg>
