<svg width="16" height="16" viewBox="0 0 16 16" fill="none" xmlns="http://www.w3.org/2000/svg">
<g clip-path="url(#clip0_1878:12928)">
<path d="M15.5651 9.44696L13.9817 9.22797L13.3416 7.59398C13.1731 7.156 12.752 6.88647 12.2298 6.88647H10.3936C10.242 6.88647 10.1073 6.98755 10.0904 7.13915L9.48399 10.4914C9.4503 10.643 9.33239 10.744 9.18078 10.744H1.12873C0.977119 10.744 0.842357 10.8451 0.825512 10.9967L0.657059 11.9569C0.623368 12.1422 0.774976 12.3275 0.960274 12.3275H1.61724C1.54986 13.0519 2.05522 13.6246 2.77957 13.6246C3.50391 13.6246 4.22826 13.0519 4.41356 12.3275H11.7413C11.6739 13.0519 12.1792 13.6246 12.9036 13.6246C13.6448 13.6246 14.3523 13.0519 14.5376 12.3275H15.3293C15.4809 12.3275 15.6157 12.2264 15.6325 12.0748L15.9863 10.0702C16.0537 9.75018 15.8684 9.48065 15.5651 9.44696ZM3.77344 12.2096C3.70606 12.6139 3.31862 12.9508 2.89748 12.9508C2.4932 12.9508 2.20683 12.6139 2.29105 12.2096C2.35843 11.8053 2.74588 11.4684 3.16701 11.4684C3.57129 11.4684 3.85766 11.8053 3.77344 12.2096ZM10.7305 9.17744L10.9832 7.76243H12.0613C12.2466 7.76243 12.4151 7.8635 12.4825 8.03196L12.9373 9.17744H10.7305ZM13.8975 12.2096C13.8301 12.6139 13.4426 12.9508 13.0215 12.9508C12.6004 12.9508 12.3308 12.6139 12.4151 12.2096C12.4825 11.8053 12.8699 11.4684 13.291 11.4684C13.7122 11.4684 13.9648 11.8053 13.8975 12.2096Z" fill="#AAAFB4"/>
<path d="M9.11331 10.0367L9.93873 5.3706C9.97242 5.1853 9.82081 5 9.63551 5H1.6003C1.31393 5 1.0781 5.23583 1.0781 5.5222C1.0781 5.80857 1.31393 6.04441 1.6003 6.04441H1.68453H2.47626C2.76263 6.04441 2.99846 6.28024 2.99846 6.56661C2.99846 6.85298 2.76263 7.08882 2.47626 7.08882H1.06125C0.774884 7.08882 0.53905 7.32465 0.53905 7.61102C0.53905 7.89739 0.774884 8.13323 1.06125 8.13323H1.93721C2.22358 8.13323 2.45941 8.36906 2.45941 8.65543C2.45941 8.9418 2.22358 9.17763 1.93721 9.19448H0.522204C0.235834 9.19448 0 9.43031 0 9.71668C0 10.0031 0.235834 10.2389 0.522204 10.2389H8.79325C8.9617 10.3063 9.09646 10.1884 9.11331 10.0367Z" fill="#AAAFB4"/>
</g>
<defs>
<clipPath id="clip0_1878:12928">
<rect width="16" height="16" fill="white"/>
</clipPath>
</defs>
</svg>
