<svg width="16" height="16" viewBox="0 0 16 16" fill="none" xmlns="http://www.w3.org/2000/svg">
<path d="M2.91047 1.98233C2.30493 2.61208 1.82445 3.36046 1.49661 4.18451C1.16876 5.00857 1 5.89209 1 6.7844C1 7.6767 1.16876 8.56022 1.49661 9.38428C1.82445 10.2083 2.30493 10.9567 2.91047 11.5865L6.86108 15.7107C6.94318 15.802 7.04234 15.8748 7.15245 15.9246C7.26255 15.9743 7.38125 16 7.50122 16C7.6212 16 7.7399 15.9743 7.85 15.9246C7.9601 15.8748 8.05927 15.802 8.14137 15.7107L12.092 11.5865C13.3119 10.3154 13.9983 8.59048 14 6.79115C14.0017 4.99181 13.3187 3.26547 12.1011 1.99188C10.8836 0.718293 9.23127 0.00179374 7.50769 3.36336e-06C5.78411 -0.00178702 4.13044 0.711278 2.91047 1.98233ZM7.50122 8.93244C7.00926 8.93244 6.52834 8.78014 6.11929 8.49481C5.71023 8.20947 5.39141 7.80392 5.20315 7.32942C5.01488 6.85493 4.96562 6.33281 5.0616 5.82909C5.15758 5.32538 5.39448 4.86268 5.74235 4.49952C6.09022 4.13636 6.53344 3.88904 7.01595 3.78885C7.49846 3.68865 7.9986 3.74008 8.45312 3.93662C8.90764 4.13316 9.29612 4.46599 9.56944 4.89302C9.84276 5.32005 9.98864 5.82211 9.98864 6.33569C9.98864 6.6767 9.92431 7.01437 9.7993 7.32942C9.6743 7.64447 9.49107 7.93074 9.2601 8.17187C9.02912 8.413 8.75491 8.60427 8.45312 8.73477C8.15133 8.86527 7.82788 8.93244 7.50122 8.93244Z" fill="#AAAFB4"/>
</svg>
