<svg width="16" height="16" viewBox="0 0 16 16" fill="none" xmlns="http://www.w3.org/2000/svg">
<path d="M8 1C6.61553 1 5.26215 1.41054 4.11101 2.17971C2.95987 2.94888 2.06266 4.04213 1.53285 5.32122C1.00303 6.6003 0.86441 8.00776 1.13451 9.36563C1.4046 10.7235 2.07129 11.9708 3.05026 12.9497C4.02922 13.9287 5.2765 14.5954 6.63437 14.8655C7.99224 15.1356 9.3997 14.997 10.6788 14.4672C11.9579 13.9373 13.0511 13.0401 13.8203 11.889C14.5895 10.7378 15 9.38447 15 8C15 6.14348 14.2625 4.36301 12.9497 3.05025C11.637 1.7375 9.85652 1 8 1ZM9.17286 11.2785C8.77535 11.8391 8.37746 12.2237 7.94947 12.4388C7.63942 12.5902 7.297 12.6634 6.95213 12.652C6.04785 12.5772 5.62768 11.8956 6.02229 10.8115L7.21113 7.54515C7.46771 6.84025 7.21903 6.62586 7.01555 6.62032C6.7734 6.61588 6.4839 6.84278 6.14704 7.30103C6.11946 7.33964 6.07769 7.36574 6.0309 7.37361C5.98411 7.38149 5.9361 7.3705 5.8974 7.34305C5.85869 7.31561 5.83244 7.27394 5.82439 7.22718C5.81635 7.18041 5.82716 7.13237 5.85447 7.09356C6.25198 6.53292 6.64987 6.1483 7.07785 5.93326C7.38791 5.78184 7.73032 5.70861 8.0752 5.71997C8.97948 5.79481 9.39964 6.47639 9.00504 7.56049L7.81619 10.8269C7.55962 11.5318 7.80829 11.7461 8.01177 11.7517C8.25392 11.7562 8.54342 11.5293 8.88028 11.071C8.90787 11.0324 8.94963 11.0063 8.99642 10.9984C9.04322 10.9905 9.09122 11.0015 9.12993 11.029C9.16863 11.0564 9.19489 11.0981 9.20293 11.1449C9.21098 11.1916 9.20016 11.2397 9.17286 11.2785V11.2785ZM10.1265 4.47917C10.0694 4.6363 9.96685 4.77295 9.83199 4.87182C9.69714 4.9707 9.53599 5.02737 9.36893 5.03466C9.20187 5.04195 9.0364 4.99954 8.89345 4.91279C8.75049 4.82604 8.63647 4.69884 8.5658 4.54729C8.49513 4.39574 8.47099 4.22663 8.49643 4.06136C8.52187 3.89609 8.59575 3.74207 8.70872 3.61879C8.82169 3.4955 8.96868 3.40848 9.13111 3.36874C9.29354 3.329 9.4641 3.33831 9.62124 3.3955C9.72557 3.43347 9.82141 3.49163 9.90327 3.56664C9.98513 3.64165 10.0514 3.73205 10.0983 3.83268C10.1453 3.93331 10.1719 4.04219 10.1767 4.15312C10.1816 4.26404 10.1645 4.37484 10.1265 4.47917Z" fill="#AAAFB4"/>
</svg>
