<svg width="28" height="32" fill="none" xmlns="http://www.w3.org/2000/svg"><path d="M24.946 10.946C24.946 4.901 20.046 0 14 0 7.954 0 3.054 4.9 3.054 10.946 1.49 11.141.013 12.163.013 14.534v5.717c0 2.676 1.873 3.649 3.649 3.649h1.763a.608.608 0 00.608-.608V11.518a.608.608 0 00-.608-.608H4.27A9.73 9.73 0 0114 1.18a9.73 9.73 0 019.73 9.73h-1.155a.608.608 0 00-.608.608v11.755c0 .336.272.608.608.608h1.155c-.17 4.178-2.177 5.157-6.185 5.334v-.408c0-.671-.544-1.216-1.216-1.216h-3.825c-.672 0-1.216.544-1.216 1.216v1.977c0 .672.544 1.216 1.216 1.216h3.837c.672 0 1.217-.544 1.217-1.216v-.353c3.855-.176 7.188-.973 7.388-6.586 1.563-.195 3.041-1.216 3.041-3.588V14.54c0-2.383-1.472-3.399-3.04-3.594zM4.817 12.084v10.581H3.631c-.9 0-2.432-.316-2.432-2.432v-5.717c0-2.098 1.514-2.432 2.432-2.432h1.186zm11.524 17.782v.924h-3.837v-1.977h3.837v1.053zm10.43-9.615c0 2.098-1.514 2.432-2.433 2.432h-1.155V12.126h1.186c.9 0 2.432.316 2.432 2.433l-.03 5.692z" fill="#fff"/></svg>