<svg width="40" height="41" fill="none" xmlns="http://www.w3.org/2000/svg"><path d="M11.367 33.296V8.663h17.347v4.942h-11.61v5.926h9.967v4.93h-9.967v8.835h-5.737z" fill="#fff"/><path d="M11.367 35.074v3.878H1.926v-9.427h7.663v-1.926H0v13.266h13.252V35.06h-1.885v.014zM9.603 12.232h-7.65V2.804h9.427v4.081h1.886V.905H.026v13.253h9.59v-1.926h-.013z" fill="#fff"/><path d="M9.428 10.306V4.663h-5.59v5.643h5.59zm0 26.734v-5.616H3.825v5.616h5.603zm21.037-19.044h-1.603v1.885h1.603v-1.885zM.027 25.579h1.832v-3.745H.027v3.745zm1.832-3.73h.027v-.028h-.027v.027zm7.649 3.756v-3.797c.027 0-.027 0 0 0v-3.785H1.832v-1.886H0v3.799h1.872v1.872h1.94v-1.846h3.717v1.9H5.724v1.885h1.899v1.858h1.885zm11.435-10.222v2.37h7.609v-1.67h-3.784v-.7h-3.825zm3.852 12.162h-.027v.027h.027v-.027zm1.831-1.32h-1.831v1.32h1.831v-1.32zm7.717 3.259v1.926h1.859c.013-.646.027-1.28.027-1.926h-1.886zm1.873 3.731H40v-1.778h-3.784v1.778zm-1.9-3.758v.028h.027v-.028h-.027zm1.913.028h.027v-.028h-.027v.028z" fill="#fff"/><path d="M36.242 27.626v1.831h1.94v-1.926h1.804v-5.737h-1.872v-5.643h-5.737v5.697h-3.542v1.94h9.239v1.885h-7.515v1.926h1.858v1.858h1.872v-1.831h1.953zm-.067-5.845H34.37v-1.792h1.805v1.792zM30.586 4.717v5.616h5.602V4.717h-5.602zm-5.818 22.855h-1.832v-1.347h-1.993v3.205h3.825v-1.858z" fill="#fff"/><path d="M26.761.892v5.994h1.912V2.805h9.428v9.427h-7.61v1.913H40V.892H26.761zm9.428 30.518v.028h.026v-.028h-.026zm1.885 9.455v-1.832h-1.832v1.832h1.832zm-18.963-3.798h7.515V35.18h-5.603v-1.926h1.778V31.33h-1.845c-.027-.7 0-1.32-.027-1.912-.673 0-1.266.027-1.94.027 0 0-.026 4.498-.026 5.791h-1.859v3.839h-1.831v1.79h13.239V38.98h-9.4v-1.912zm17.118 1.967a.014.014 0 00.014-.014.014.014 0 00-.014-.014.014.014 0 00-.013.014c0 .008.006.014.013.014zm-1.953-5.779h-3.798v-1.912h-1.912v-1.818h-1.913v1.872h-1.818v1.912h3.811v1.926h1.886v3.771h5.684v-1.872h-1.94v-3.879zm1.966 3.866v-.027h-.026l.026.027zm0-.027h3.745v-1.832h-3.745v1.832z" fill="#fff"/><path d="M36.216 37.121h.026l-.026-.027v.027zM17.199 4.69h1.818v1.79h3.798V.866H20.97V2.67h-1.953V.88H17.13v1.91H15.3v3.703h1.899V4.69z" fill="#fff"/></svg>