<svg width="29" height="29" fill="none" xmlns="http://www.w3.org/2000/svg"><path d="M1 7.5h1.654c.479 0 .718 0 .912.087a1 1 0 01.423.355c.119.177.16.413.242.884L4.609 11m0 0l.883 5.077c.179 1.03.269 1.546.534 1.917a2 2 0 00.937.714c.428.157.949.107 1.99.006l9.661-.935c1.016-.098 1.524-.147 1.908-.376a2 2 0 00.788-.867c.19-.405.19-.915.19-1.936v0c0-1.084 0-1.627-.208-2.046a2 2 0 00-.852-.877c-.413-.22-.955-.237-2.04-.269L4.61 11z" stroke="#fff" stroke-width="1.8" stroke-linecap="round" stroke-linejoin="round"/><circle cx="8.5" cy="24" r="2" stroke="#fff" stroke-width="1.8"/><circle cx="18" cy="24" r="2" stroke="#fff" stroke-width="1.8"/><circle cx="21.5" cy="7.5" r="7.5" fill="#EF3541"/><path d="M23.08 7.26c.54-.34.8-.87.8-1.52 0-1.06-.82-1.88-2.12-1.88-1.38 0-2.24.85-2.27 2.02h1.27c.03-.49.39-.86.96-.86.54 0 .89.35.89.89 0 .55-.34.9-.99.9h-.58v1.13h.64c.75 0 1.16.42 1.16 1.02 0 .61-.4 1.02-1.09 1.02-.7 0-1.09-.38-1.13-.99h-1.28c.03 1.28.92 2.15 2.4 2.15 1.5 0 2.38-.88 2.38-2.14 0-.72-.35-1.38-1.04-1.74z" fill="#fff"/></svg>