<svg width="117" height="117" fill="none" xmlns="http://www.w3.org/2000/svg"><path d="M33.249 94.86V22.81h50.74v14.457H50.03V54.6h29.151v14.418h-29.15v25.843H33.249z" fill="#fff"/><path d="M33.248 100.061v11.345H5.634V83.83H28.05v-5.633H0V117h38.764v-16.979h-5.516v.04zm-5.161-66.812H5.711V5.673h27.576V17.61h5.515V.119H.078v38.763h28.049V33.25h-.04z" fill="#fff"/><path d="M27.576 27.615V11.11H11.227v16.506h16.349zm0 78.197V89.385H11.188v16.427h16.388zM89.109 50.11H84.42v5.514h4.688V50.11zM.078 72.288h5.358V61.336H.078v10.952zm5.358-10.911h.078v-.08h-.078v.08zm22.376 10.99v-11.11c.079 0-.079 0 0 0V50.189H5.358v-5.515H0v11.109h5.476v5.476h5.673V55.86H22.02v5.554h-5.279v5.515h5.555v5.437h5.515zm33.446-29.9V49.4h22.257v-4.885h-11.07v-2.048H61.259zM72.524 78.04h-.079v.08h.08v-.08zm5.359-3.861h-5.358v3.86h5.358v-3.86zm22.571 9.533v5.633h5.436c.04-1.89.079-3.742.079-5.633h-5.515zm5.478 10.912h11.069v-5.2h-11.069v5.2z" fill="#fff"/><path d="M100.375 83.633v.08h.079v-.08h-.079zm5.595.081h.079v-.08h-.079v.08z" fill="#fff"/><path d="M106.008 78.276v5.357h5.673V78h5.279V61.218h-5.476V44.712H94.702v16.664h-10.36v5.673h27.024v5.515H89.384v5.633h5.437v5.436h5.475v-5.357h5.712zm-.197-17.097h-5.278v-5.24h5.278v5.24zM89.464 11.267v16.427h16.388V11.267H89.464zM72.446 78.118h-5.358V74.18h-5.83v9.376h11.188v-5.437z" fill="#fff"/><path d="M78.275.08v17.53h5.594V5.676h27.576V33.25H89.188v5.594H117V.081H78.275zm27.577 89.266v.08h.078v-.08h-.078zM111.366 117v-5.358h-5.357V117h5.357zM55.9 105.891h21.98v-5.515H61.493v-5.633h5.2v-5.634h-5.397c-.079-2.048 0-3.86-.079-5.594-1.97 0-3.703.08-5.672.08 0 0-.08 13.157-.08 16.939H50.03v11.227h-5.357V117h38.724v-5.515H55.9v-5.594zm50.071 5.753a.04.04 0 00.039-.04.04.04 0 00-.039-.04.04.04 0 00-.039.04c0 .022.017.04.039.04zm-5.713-16.902h-11.11v-5.594h-5.593V83.83H77.96v5.476h-5.318V94.9H83.79v5.633h5.515v11.03h16.624v-5.475h-5.672V94.742zm5.752 11.308v-.08h-.078l.078.08zm-.001-.08h10.951v-5.358h-10.951v5.358z" fill="#fff"/><path d="M105.932 106.05h.078l-.078-.08v.08zM50.306 11.188h5.319v5.24h11.109V0h-5.397v5.279h-5.712V.039h-5.516v5.594h-5.357v10.834h5.554v-5.28z" fill="#fff"/></svg>