<svg width="24" height="24" fill="none" xmlns="http://www.w3.org/2000/svg"><g clip-path="url(#clip0_1222:1549)" fill="#fff"><path d="M3.905 8.131a22.145 22.145 0 006.323 1.6L9.204 7.96l-3.49.21a.703.703 0 01-.084-1.404l2.788-.167-.62-1.074-3.49.21a.703.703 0 01-.084-1.405l2.788-.167-.779-1.349a2.812 2.812 0 10-4.871 2.812L2.46 7.53l1.444.602zm8.564 1.713c.933 0 1.858-.058 2.774-.172a3.75 3.75 0 00-5.602-3.77l2.271 3.935c.185.004.37.007.557.007z"/><path d="M16.19 6.934c.52-1.373.616-2.407.617-2.423a.704.704 0 011.401.119c-.008.1-.204 2.223-1.522 4.559 0 .085-.004.17-.01.255a22.226 22.226 0 004.356-1.313l.846-.353a2.707 2.707 0 00-.46-.75 2.685 2.685 0 001.597-2.458 2.698 2.698 0 00-2.695-2.695 2.65 2.65 0 00-.697.094 2.683 2.683 0 00-5.15-.082 2.7 2.7 0 00-2.877 2.098 5.164 5.164 0 014.595 2.95z"/><path d="M21.573 9.43a23.552 23.552 0 01-9.104 1.82c-3.142 0-6.205-.613-9.105-1.82a.703.703 0 00-.97.723c.235 2.186 1.083 10.185 1.273 11.962A2.105 2.105 0 005.764 24h13.41c1.08 0 1.983-.81 2.097-1.885.19-1.777 1.038-9.776 1.272-11.962a.703.703 0 00-.97-.724zm-3.713 9.883a.703.703 0 01-.704.703H7.781a.703.703 0 01-.703-.703v-3.75c0-.389.315-.704.703-.704h9.375c.389 0 .704.315.704.704v3.75z"/><path d="M8.484 16.266h7.97v2.343h-7.97v-2.343z"/></g><defs><clipPath id="clip0_1222:1549"><path fill="#fff" d="M0 0h24v24H0z"/></clipPath></defs></svg>