<svg width="24" height="23" fill="none" xmlns="http://www.w3.org/2000/svg"><g clip-path="url(#clip0_1222:8150)" fill="#fff"><path d="M24 9.278a2.08 2.08 0 00-2.077-2.077H2.077A2.08 2.08 0 000 9.278a2.08 2.08 0 001.615 2.025v.075c0 .46.048.917.141 1.362.477.11.817.281 1.132.44.443.222.794.398 1.576.406.781.008 1.136-.16 1.584-.375.512-.244 1.092-.521 2.194-.51 1.103.012 1.677.3 2.184.555.444.223.794.399 1.576.407.782.008 1.136-.16 1.584-.375.512-.244 1.092-.52 2.195-.51 1.102.012 1.677.3 2.184.555.443.223.794.399 1.576.407.78.008 1.136-.161 1.584-.375.302-.144.627-.3 1.07-.4.124-.51.19-1.04.19-1.587v-.075A2.08 2.08 0 0024 9.278zm-4.473 5.846c-1.103-.01-1.678-.3-2.184-.554-.444-.223-.794-.4-1.576-.407-.781-.009-1.136.16-1.585.375-.511.244-1.09.521-2.194.51-1.103-.012-1.677-.3-2.184-.555-.443-.223-.794-.399-1.576-.407-.78-.007-1.136.16-1.584.375-.512.244-1.091.52-2.194.51-1.024-.011-1.592-.26-2.074-.5a6.665 6.665 0 004.316 3.385v1.115c0 .382.31.692.693.692h9c.382 0 .692-.31.692-.692v-1.063a6.652 6.652 0 004.411-3.184c-.451.206-.996.4-1.897.4h-.064zm-.489-10.23l-.096.001a3.238 3.238 0 00-3.019-2.078c-.48 0-.954.108-1.383.311A3.237 3.237 0 0012 1.894a3.237 3.237 0 00-2.54 1.234 3.23 3.23 0 00-4.402 1.767 2.877 2.877 0 00-2.21.921h18.303a2.877 2.877 0 00-2.113-.922z"/></g><defs><clipPath id="clip0_1222:8150"><path fill="#fff" transform="translate(0 -1.2)" d="M0 0h24v24H0z"/></clipPath></defs></svg>