<svg width="22" height="21" fill="none" xmlns="http://www.w3.org/2000/svg"><g clip-path="url(#clip0_1222:3703)" fill="#fff"><path d="M12.837.812c-.51 0-.98.244-1.29.67a.677.677 0 01-.547.271.677.677 0 01-.547-.271 1.589 1.589 0 00-1.29-.67c-.896 0-1.624.764-1.624 1.703 0 .287.07.57.2.82.985 1.88 2.574 3.063 3.26 3.512.687-.452 2.281-1.642 3.261-3.511.132-.25.201-.534.201-.821 0-.939-.728-1.703-1.624-1.703z"/><path d="M7.985 3.77C8.972 5.397 10.368 6.433 11 6.846c.632-.415 2.033-1.457 3.016-3.078-1.404-.065-4.626-.064-6.03 0z"/><path d="M19.046 8.382c-.68-1.778-2.007-3.278-3.736-4.232-1.47 2.603-3.874 3.932-3.979 3.988a.697.697 0 01-.662 0c-.105-.056-2.508-1.384-3.98-3.988-1.728.954-3.054 2.454-3.734 4.232C1.422 8.46.2 9.662.2 11.128c0 1.516 1.306 2.75 2.912 2.75h15.777c1.605 0 2.911-1.234 2.911-2.75 0-1.467-1.222-2.669-2.754-2.746zm-10.407 6.75l.587 5.255h3.547l.588-5.255H8.64zm-1.349 0H3.056l1.644 4.82c.089.26.344.435.633.435H7.9l-.61-5.255zm7.42 0l-.61 5.255h2.568a.662.662 0 00.632-.434l1.645-4.82H14.71z"/></g><defs><clipPath id="clip0_1222:3703"><path fill="#fff" transform="translate(.2 .4)" d="M0 0h21.6v20.4H0z"/></clipPath></defs></svg>