<svg width="24" height="24" fill="none" xmlns="http://www.w3.org/2000/svg"><g clip-path="url(#clip0_1222:8161)" fill="#fff"><path d="M14.08 9.86c.24-1.127.866-2.063 1.763-2.635 1.068-.682 2.401-.803 3.755-.341 1.294.44 2.46 1.37 3.283 2.616.958 1.451 1.325 3.142 1.007 4.64-.24 1.127-.866 2.063-1.762 2.635-.642.41-1.38.617-2.16.617a4.947 4.947 0 01-1.595-.275c-1.294-.441-2.46-1.37-3.283-2.617-.958-1.45-1.325-3.142-1.007-4.64zm5.72 4.09c.366.366.885.44 1.16.166.274-.275.2-.794-.166-1.16-.366-.366-.886-.44-1.16-.166-.275.275-.2.794.165 1.16zm.081-3.162c.275-.274.2-.794-.165-1.16-.366-.366-.886-.44-1.16-.165-.275.274-.2.794.166 1.16.366.366.885.44 1.16.165zm-2.753 1.897c.366.366.886.44 1.16.165.275-.274.2-.793-.166-1.16-.366-.366-.885-.44-1.16-.165-.274.274-.2.794.166 1.16z"/><path d="M8.158 6.61h6.19c-.82.762-1.393 1.785-1.642 2.958-.396 1.864.044 3.944 1.209 5.707a8.335 8.335 0 001.998 2.115H8.158a4.457 4.457 0 01-4.452-4.453v-1.874A4.458 4.458 0 018.158 6.61zM.32 12a3.15 3.15 0 01.228-3.16l.322-.474 1.769.733a5.832 5.832 0 00-.34 1.964v1.874c0 .689.12 1.35.34 1.964l-1.769.733-.322-.475A3.15 3.15 0 01.32 12z"/></g><defs><clipPath id="clip0_1222:8161"><path fill="#fff" transform="matrix(-1 0 0 1 24 0)" d="M0 0h24v24H0z"/></clipPath></defs></svg>