<svg width="24" height="24" fill="none" xmlns="http://www.w3.org/2000/svg"><g clip-path="url(#clip0_1222:6711)" fill="#fff"><path d="M7.238 14.565v-.086L.74 10.398A7.657 7.657 0 000 13.69a7.67 7.67 0 001.721 4.848l5.517-3.973zm1.559 2.371a2.052 2.052 0 01-1.25-.86l-4.832 3.479a7.67 7.67 0 004.988 1.838h1.094v-4.457zm-.777-3.63c.226-.172.49-.296.777-.361V5.986H7.703a7.698 7.698 0 00-6.246 3.2l6.562 4.119zM18.547 1.987H12v1.406h6.547a4.051 4.051 0 014.047 4.047 4.051 4.051 0 01-4.047 4.047h-.7a4.692 4.692 0 001.356-3.302V5.987h-9v6.906h8.344A5.46 5.46 0 0024 7.44a5.46 5.46 0 00-5.453-5.453zm-5.313 7.047V7.628h1.407v1.406h-1.407zm1.636 7.874a2.317 2.317 0 00-1.902-.504l-2.765.499v4.575l2.765.498a2.317 2.317 0 001.902-.504c.53-.442.833-1.092.833-1.782v-1c0-.69-.304-1.34-.833-1.782z"/></g><defs><clipPath id="clip0_1222:6711"><path fill="#fff" d="M0 0h24v24H0z"/></clipPath></defs></svg>