<svg width="24" height="24" fill="none" xmlns="http://www.w3.org/2000/svg"><g clip-path="url(#clip0_1222:8178)" fill="#fff"><path d="M21.848 2.37l-5.293 3.453c-.725-.725-1.629-.567-2.101-.094l-1.096 1.095a2.106 2.106 0 00-2.417.41l-9.033 9.033a2.128 2.128 0 000 3.01l4.014 4.015a2.128 2.128 0 003.011 0l1.506-1.505-3.513-3.513a.71.71 0 010-1.004l5.018-5.018a.71.71 0 011.004 0l3.513 3.513 1.505-1.505c.61-.61.822-1.556.41-2.418l1.096-1.096c.501-.502.635-1.37-.095-2.101l3.453-5.293c.419-.642-.343-1.4-.982-.982zm-4.384 8.377l-3.01-3.011 1.003-1.004 3.011 3.011-1.004 1.004z"/><path d="M12.446 13.757l-4.014 4.015 3.01 3.01 4.015-4.014-3.01-3.01z"/></g><defs><clipPath id="clip0_1222:8178"><path fill="#fff" transform="rotate(45 15.653 12.184)" d="M0 0h27.577v27.577H0z"/></clipPath></defs></svg>