<svg width="22" height="22" fill="none" xmlns="http://www.w3.org/2000/svg"><g clip-path="url(#clip0_1222:8192)"><path d="M14.55 3.109a1.388 1.388 0 00-.072-2.776H7.522a1.388 1.388 0 00-.072 2.775c-.434 3.929-2.015 4.187-2.015 8.138v8.334a2.09 2.09 0 002.087 2.087h6.957a2.09 2.09 0 002.087-2.087v-8.334c0-3.957-1.58-4.2-2.016-8.137zm-4.004 5.825a4.717 4.717 0 00-3.191-.751c.126-.357.272-.707.441-1.046.566-1.132.918-2.674 1.053-4.021h4.302c.135 1.347.487 2.889 1.053 4.021.236.472.43.964.581 1.47-.51.253-2.184 1.696-4.239.327z" fill="#fff"/></g><defs><clipPath id="clip0_1222:8192"><path fill="#fff" transform="translate(.333 .333)" d="M0 0h21.333v21.333H0z"/></clipPath></defs></svg>