<svg width="22" height="21" fill="none" xmlns="http://www.w3.org/2000/svg"><g clip-path="url(#clip0_1222:8203)" fill="#fff"><path d="M15.538 8.397a4.195 4.195 0 01-.47 3.367c-.836 1.369-2.397 2.219-4.072 2.219-.82 0-1.631-.206-2.345-.595-2.244-1.223-3.015-3.942-1.72-6.061.837-1.37 2.398-2.22 4.073-2.22.82 0 1.631.206 2.345.596 1.087.592 1.864 1.55 2.19 2.694zm-4.09.086a.657.657 0 00-.895 0 .586.586 0 00-.186.422c0 .158.068.312.186.423a.656.656 0 00.894 0 .586.586 0 00.186-.423.587.587 0 00-.186-.422zm1.296 6.447c1.423-.414 2.658-1.322 3.42-2.569.085-.137.162-.278.233-.42 1.944.543 3.367 2.245 3.367 4.255 0 2.446-2.108 4.437-4.699 4.437a4.83 4.83 0 01-3.235-1.223c.095-.129.185-.261.269-.398a5.323 5.323 0 00.645-4.083zm2.552 2.328a.655.655 0 00.894 0 .583.583 0 00.185-.422.586.586 0 00-.185-.423.656.656 0 00-.894 0 .585.585 0 00-.185.423c0 .157.067.311.185.422zm-9.691-5.316a5.736 5.736 0 002.413 2.481 6.237 6.237 0 003.484.734 4.194 4.194 0 01-.5 3.258c-.836 1.368-2.396 2.219-4.072 2.219-.82 0-1.631-.206-2.345-.595-2.244-1.224-3.015-3.943-1.72-6.062.609-.995 1.6-1.716 2.74-2.035zm.204 5.316a.654.654 0 00.895 0 .584.584 0 00.185-.422.586.586 0 00-.185-.423.657.657 0 00-.895 0 .586.586 0 00-.185.423c0 .157.067.311.185.422z"/><path d="M.424.92A.616.616 0 01.923.447 15.64 15.64 0 013.524.24c1.857 0 4.421.33 6.09 1.906a5.69 5.69 0 011.25 1.769c-2.073.046-3.99 1.115-5.029 2.814a5.34 5.34 0 00-.677 3.936c-1.203-.315-2.187-.83-2.937-1.538C-.676 6.392.377 1.141.424.92zM16.76 8.088c-.412-1.453-1.4-2.668-2.779-3.42a6.234 6.234 0 00-2.846-.753 5.686 5.686 0 011.25-1.769C14.055.57 16.618.24 18.476.24c1.462 0 2.556.2 2.602.208a.616.616 0 01.499.471c.046.223 1.099 5.473-1.798 8.208-.748.707-1.73 1.22-2.93 1.536a5.307 5.307 0 00-.088-2.575z"/></g><defs><clipPath id="clip0_1222:8203"><path fill="#fff" transform="matrix(-1 0 0 1 21.8 .2)" d="M0 0h21.6v20.4H0z"/></clipPath></defs></svg>