<svg width="78" height="48" fill="none" xmlns="http://www.w3.org/2000/svg"><path fill-rule="evenodd" clip-rule="evenodd" d="M55.605 1.303c6.763 1.57 9.35 5.524 12.593 10.966H55.606V1.304zm-39.52 11.424c1.323 0 2.284.639 2.284 2.132 0 1.26-1.02 2.282-2.278 2.286H2.285a2.285 2.285 0 000 4.57h20.567a2.285 2.285 0 11.008 4.57H2.285a2.285 2.285 0 100 4.57h5.027v6.856a2.285 2.285 0 002.286 2.285h4.593a8.763 8.763 0 008.584 7.008 8.763 8.763 0 008.585-7.008h23.202a8.763 8.763 0 008.585 7.008 8.763 8.763 0 008.584-7.008h3.984A2.285 2.285 0 0078 37.711V24c0-6.705-7.072-7.15-7.079-7.16h-17.6a2.285 2.285 0 01-2.286-2.285V.844H9.598a2.285 2.285 0 00-2.286 2.285v5.027H4.57a2.285 2.285 0 100 4.57h11.514zm50.024 22.555a4.19 4.19 0 010 5.925c-2.632 2.632-7.152.76-7.152-2.963 0-3.722 4.52-5.594 7.152-2.962zm-40.371 0a4.19 4.19 0 010 5.925c-2.632 2.632-7.152.76-7.152-2.963 0-3.722 4.52-5.594 7.152-2.962z" fill="#016565"/></svg>