<svg width="70" height="70" fill="none" xmlns="http://www.w3.org/2000/svg"><path d="M18.595 30.03a8.507 8.507 0 008.528.53l5.69-2.844v-1.267l-6.936-13.87H6.935L0 26.448v7.839l2.682-2.682c4.24-4.238 10.928-4.895 15.913-1.576zm25.126 19.518c-2.456 0-4.15 1.398-4.758 1.69-.624-.3-2.278-1.69-4.753-1.69-4.69 0-8.563 5.185-7.424 11.624.978 5.578 5.077 8.776 8.682 8.776 1.951 0 3.004-.819 3.497-.973 2.485.989 2.524.973 3.5.973 3.601-.004 7.697-3.191 8.68-8.778 1.13-6.404-2.721-11.622-7.424-11.622z" fill="#016565"/><path d="M32.813 32.302l-3.856 1.927a12.615 12.615 0 01-12.637-.787 8.535 8.535 0 00-10.739 1.064L0 40.087v25.811h24.02c-.548-1.221-1.013-2.531-1.273-4.019a15.75 15.75 0 01.827-8.48c-1.393 2.546-4.065 4.296-7.168 4.296-4.524 0-8.203-3.678-8.203-8.203 0-4.524 3.68-8.203 8.203-8.203 4.524 0 8.203 3.68 8.203 8.203 0 .842-.164 1.639-.4 2.404.437-.825.925-1.621 1.524-2.336 1.867-2.227 4.397-3.58 7.08-3.95V32.302z" fill="#016565"/><path d="M12.305 49.492a4.107 4.107 0 004.101 4.102 4.107 4.107 0 004.102-4.102 4.107 4.107 0 00-4.102-4.101 4.107 4.107 0 00-4.101 4.101zM4.102 0H28.71v8.477H4.1V0zm59.746 20.781H34.576l2.338 4.717v20.303a7.79 7.79 0 011.477.492 10.183 10.183 0 018.777-5.004v4.102a5.19 5.19 0 00-1.6.246c2.503.41 4.84 1.804 6.604 3.937 2.748 3.2 3.815 7.711 2.994 12.305a15.355 15.355 0 01-1.271 4.02h12.004V32.716C68.278 31.856 70 29.6 70 26.934a6.144 6.144 0 00-6.152-6.153z" fill="#016565"/></svg>