<svg width="64" height="64" fill="none" xmlns="http://www.w3.org/2000/svg"><path d="M44.875 34.853c-.976-.572-2.017-.978-3.096-.978-5.705 0-7.995 7.181-7.907 13.405.097 6.902 3.55 16.682 10.055 16.682 1.2 0 1.951-.334 2.979-.773 1.237-.55 2.083-.777 4.18.11.882.373 1.63.661 2.718.661 6.517 0 10.032-9.737 10.19-16.449.147-6.266-2.23-13.634-8.037-13.634-1.078 0-2.118.404-3.096.98-.736.426-1.396.988-2.116 1.419v-2.401a5.63 5.63 0 015.624-5.625h1.875V24.5h-1.875c-5.169 0-9.374 4.206-9.374 9.375v2.404c-.718-.434-1.395-1.001-2.12-1.426z" fill="#016565"/><path d="M30.122 47.334c-.038-2.806.324-9.922 4.548-14.204 1.837-1.865 4.152-2.864 6.7-2.965V17.858l-11.248 4.499-9.374-3.75-9.374 3.75L0 17.858v34.89h30.743c-.377-1.86-.597-3.707-.621-5.414zm1.624 9.164H0v7.499h35.965c-1.862-2.016-3.254-4.675-4.219-7.5zM15.123.003H7.5v3.75h7.624V.003z" fill="#016565"/><path d="M18.873 15.318V7.503H3.75v7.816l7.624 2.998 7.499-3zm18.979-.092l5.621-5.621a5.625 5.625 0 00-7.954-7.954l-1.326 1.325 2.652 2.652-2.652 2.651-2.651-2.651-2.652 2.651 2.652 2.652-2.652 2.651-2.651-2.651-3.616 3.616v.77l7.499 3 7.73-3.09z" fill="#016565"/></svg>