<svg width="78" height="48" viewBox="0 0 78 48" fill="none" xmlns="http://www.w3.org/2000/svg">
<path fill-rule="evenodd" clip-rule="evenodd" d="M55.6055 1.30316C62.3681 2.87242 64.955 6.82681 68.1982 12.2695H55.6055V1.30316ZM16.0842 12.7266C17.4082 12.7266 18.3693 13.3657 18.3693 14.8594C18.3693 16.1192 17.3499 17.141 16.0907 17.1445H2.28516C1.02296 17.1445 0 18.1681 0 19.4297C0 20.6919 1.02296 21.7148 2.28516 21.7148H22.8516C24.1257 21.7148 25.1456 22.7372 25.1456 24C25.1456 25.2622 24.1227 26.2852 22.8605 26.2852H2.28516C1.02296 26.2852 0 27.3081 0 28.5703C0 29.8325 1.02296 30.8555 2.28516 30.8555H7.3125V37.7109C7.3125 38.9731 8.33546 39.9961 9.59766 39.9961H14.1912C15.01 44.0296 18.574 47.0039 22.7754 47.0039C26.9767 47.0039 30.5408 44.0296 31.3596 39.9961H54.5623C55.3811 44.0296 58.9451 47.0039 63.1465 47.0039C67.3478 47.0039 70.9118 44.0296 71.7307 39.9961H75.7148C76.977 39.9961 78 38.9731 78 37.7109V24C78 17.2951 70.9279 16.85 70.9214 16.8398H53.3203C52.0581 16.8398 51.0352 15.8169 51.0352 14.5547V0.84375H9.59766C8.33546 0.84375 7.3125 1.86671 7.3125 3.12891V8.15625H4.57031C3.30812 8.15625 2.28516 9.17921 2.28516 10.4414C2.28516 11.7036 3.30812 12.7266 4.57031 12.7266H16.0842ZM66.1089 35.2818C67.7448 36.9177 67.7448 39.5712 66.1089 41.2071C63.4774 43.8386 58.957 41.9664 58.957 38.2441C58.957 34.5224 63.4774 32.6503 66.1089 35.2818ZM25.7378 35.2818C27.3737 36.9177 27.3737 39.5712 25.7378 41.2071C23.1063 43.8386 18.5859 41.9664 18.5859 38.2441C18.5859 34.5224 23.1063 32.6503 25.7378 35.2818Z" fill="#016565"/>
</svg>
