<svg width="70" height="70" viewBox="0 0 70 70" fill="none" xmlns="http://www.w3.org/2000/svg">
<path d="M18.5954 30.0301C21.1305 31.722 24.3974 31.9302 27.1227 30.5604L32.8125 27.716V26.4487L25.8772 12.5781H6.93527L0 26.4487V34.2876L2.6815 31.6061C6.92139 27.3683 13.6105 26.7114 18.5954 30.0301Z" fill="#016565"/>
<path d="M43.7213 49.5483C41.2651 49.5483 39.5706 50.9464 38.9628 51.2386C38.3385 50.9379 36.6851 49.5483 34.2102 49.5483C29.5191 49.5483 25.6472 54.7334 26.7863 61.172C27.7642 66.7503 31.8631 69.9482 35.468 69.9482C37.4194 69.9482 38.472 69.1295 38.965 68.9746C41.4505 69.9637 41.4895 69.9482 42.4657 69.9482C46.0663 69.9439 50.1625 66.7567 51.1452 61.1699C52.2747 54.766 48.4237 49.5483 43.7213 49.5483Z" fill="#016565"/>
<path d="M32.8125 32.3019L28.9571 34.2293C24.9261 36.2523 20.0832 35.9538 16.3203 33.4421C12.9573 31.2012 8.44345 31.6461 5.58144 34.506L0 40.0874V65.8984H24.0208C23.4724 64.677 23.0072 63.367 22.7471 61.8791C22.2179 58.8916 22.5709 55.9831 23.5744 53.3993C22.181 55.9452 19.5086 57.6953 16.4062 57.6953C11.8822 57.6953 8.20312 54.0167 8.20312 49.4922C8.20312 44.9682 11.8822 41.289 16.4062 41.289C20.9303 41.289 24.6094 44.9682 24.6094 49.4922C24.6094 50.3344 24.4449 51.1307 24.2083 51.896C24.6462 51.0714 25.1338 50.2746 25.733 49.5605C27.6001 47.333 30.1299 45.9802 32.8125 45.6096V32.3019Z" fill="#016565"/>
<path d="M12.3047 49.4922C12.3047 51.7534 14.1451 53.5938 16.4062 53.5938C18.6674 53.5938 20.5078 51.7534 20.5078 49.4922C20.5078 47.231 18.6674 45.3906 16.4062 45.3906C14.1451 45.3906 12.3047 47.231 12.3047 49.4922Z" fill="#016565"/>
<path d="M4.10156 0H28.7109V8.47656H4.10156V0Z" fill="#016565"/>
<path d="M63.8479 20.7812H34.5762L36.9143 25.498V45.8008C37.4473 45.9236 37.9397 46.0876 38.3909 46.2926C40.1544 43.2987 43.4357 41.2891 47.1682 41.2891V45.3906C46.6352 45.3906 46.0605 45.4723 45.5687 45.6368C48.0707 46.047 50.4083 47.4414 52.1723 49.5739C54.92 52.7734 55.9871 57.2852 55.1662 61.8786C54.92 63.3553 54.4693 64.668 53.8946 65.8984H65.8987V32.7169C68.2779 31.8555 70.0002 29.5996 70.0002 26.9336C70.0002 23.5295 67.2525 20.7812 63.8479 20.7812Z" fill="#016565"/>
</svg>
