<svg width="64" height="64" viewBox="0 0 64 64" fill="none" xmlns="http://www.w3.org/2000/svg">
<path d="M44.8752 34.8526C43.8993 34.2814 42.8575 33.8749 41.7791 33.8749C36.0737 33.8749 33.7839 41.0563 33.8716 47.2803C33.9688 54.182 37.4226 63.9621 43.9267 63.9621C45.1262 63.9621 45.8784 63.628 46.9055 63.1894C48.1428 62.6381 48.9893 62.412 51.0853 63.2992C51.9676 63.6721 52.7164 63.9602 53.8042 63.9602C60.3212 63.9602 63.8356 54.2229 63.9934 47.5112C64.1408 41.2453 61.7645 33.8767 55.9572 33.8767C54.8788 33.8767 53.8389 34.2813 52.8612 34.8562C52.1251 35.2835 51.4649 35.8451 50.7446 36.2758V33.8748C50.7446 30.7734 53.2676 28.2504 56.3691 28.2504H58.2439V24.5007H56.3691C51.2004 24.5007 46.995 28.7062 46.995 33.8748V36.2792C46.2769 35.8454 45.5995 35.278 44.8752 34.8526Z" fill="#016565"/>
<path d="M30.122 47.3342C30.0835 44.5275 30.4461 37.4122 34.6699 33.1299C36.5072 31.2647 38.8225 30.2662 41.3709 30.1653V17.8582L30.122 22.3566L20.7479 18.607L11.3739 22.3566L0 17.858V52.7481H30.7429C30.366 50.8886 30.146 49.0413 30.122 47.3342Z" fill="#016565"/>
<path d="M31.7462 56.4977H0V63.9969H35.9648C34.1027 61.9809 32.7109 59.322 31.7462 56.4977Z" fill="#016565"/>
<path d="M15.1233 0.00335693H7.49902V3.75298H15.1233V0.00335693Z" fill="#016565"/>
<path d="M18.873 15.3177V7.5025H3.74951V15.3185L11.3738 18.3174L18.873 15.3177Z" fill="#016565"/>
<path d="M37.8516 15.2264L43.473 9.60493C45.6694 7.4084 45.6694 3.84725 43.473 1.65072C41.2765 -0.545684 37.7153 -0.545684 35.5188 1.65072L34.193 2.97647L36.8446 5.62783L34.193 8.27919L31.5417 5.62783L28.8903 8.27919L31.5417 10.9308L28.8903 13.5822L26.239 10.9308L22.6226 14.5471V15.3179L30.1218 18.3176L37.8516 15.2264Z" fill="#016565"/>
</svg>
