<svg width="24" height="24" fill="none" xmlns="http://www.w3.org/2000/svg"><path d="M20.125 11.06h-8.94c-.6 0-1.08-.48-1.08-1.08v-2.7c0-.6.48-1.08 1.08-1.08h8.94c.6 0 1.08.48 1.08 1.08v2.7c0 .6-.48 1.08-1.08 1.08zm-8.44-1.6h7.92V7.8h-7.92v1.66zm8.44 8.34h-8.94c-.6 0-1.08-.48-1.08-1.08v-2.7c0-.6.48-1.08 1.08-1.08h8.94c.6 0 1.08.48 1.08 1.08v2.7c0 .6-.48 1.08-1.08 1.08zm-8.44-1.6h7.92v-1.66h-7.92v1.66zm-4.14-5.14h-3.62c-.62 0-1.12-.5-1.12-1.12V7.3c0-.62.5-1.12 1.12-1.12h3.62c.62 0 1.12.5 1.12 1.12v2.64c0 .62-.5 1.12-1.12 1.12zm-3.14-1.6h2.66V7.8h-2.66v1.66zm3.14 8.34h-3.62c-.62 0-1.12-.5-1.12-1.12v-2.64c0-.62.5-1.12 1.12-1.12h3.62c.62 0 1.12.5 1.12 1.12v2.64c0 .62-.5 1.12-1.12 1.12zm-3.14-1.6h2.66v-1.66h-2.66v1.66z" fill="#040507"/></svg>