<svg width="24" height="24" fill="none" xmlns="http://www.w3.org/2000/svg"><path d="M9.785 10.94h-5.46c-.62 0-1.12-.5-1.12-1.12v-4.3c0-.62.5-1.12 1.12-1.12h5.46c.62 0 1.12.5 1.12 1.12v4.3c0 .62-.5 1.12-1.12 1.12zm-4.98-1.6h4.5V6h-4.5v3.34zm14.88 1.6h-5.46c-.62 0-1.12-.5-1.12-1.12v-4.3c0-.62.5-1.12 1.12-1.12h5.46c.62 0 1.12.5 1.12 1.12v4.3c0 .62-.5 1.12-1.12 1.12zm-4.98-1.6h4.5V6h-4.5v3.34zM9.785 19.6h-5.46c-.62 0-1.12-.5-1.12-1.12v-4.3c0-.62.5-1.12 1.12-1.12h5.46c.62 0 1.12.5 1.12 1.12v4.3c0 .62-.5 1.12-1.12 1.12zM4.805 18h4.5v-3.34h-4.5V18zm14.88 1.6h-5.46c-.62 0-1.12-.5-1.12-1.12v-4.3c0-.62.5-1.12 1.12-1.12h5.46c.62 0 1.12.5 1.12 1.12v4.3c0 .62-.5 1.12-1.12 1.12zm-4.98-1.6h4.5v-3.34h-4.5V18z" fill="#040507"/></svg>