<svg width="22" height="22" viewBox="0 0 22 22" fill="none" xmlns="http://www.w3.org/2000/svg">
<path d="M5.00194 8.0012C4.83935 8.0001 4.68152 7.94617 4.55225 7.84754C4.42299 7.74891 4.32929 7.61093 4.28529 7.4544C4.24129 7.29786 4.24938 7.13127 4.30833 6.97974C4.36728 6.8282 4.4739 6.69994 4.61211 6.61429L14.3579 0.616882C14.5081 0.525082 14.6858 0.489047 14.8598 0.515089C15.0339 0.541131 15.1933 0.62759 15.31 0.759321L20.5577 6.75673C20.6789 6.90717 20.7373 7.09858 20.7208 7.29104C20.7043 7.4835 20.6142 7.66217 20.4691 7.78978C20.3241 7.91739 20.1355 7.98411 19.9425 7.97601C19.7495 7.96791 19.567 7.88562 19.4332 7.74631L14.5978 2.22119L5.39178 7.88875C5.27464 7.96135 5.13975 8.00026 5.00194 8.0012Z" fill="white"/>
<path d="M2.75402 8.00111C2.65536 8.00168 2.55756 7.98277 2.46622 7.94546C2.37488 7.90816 2.2918 7.85319 2.22175 7.78371C2.15149 7.71401 2.09572 7.6311 2.05766 7.53974C2.0196 7.44839 2 7.3504 2 7.25144C2 7.15247 2.0196 7.05448 2.05766 6.96313C2.09572 6.87177 2.15149 6.78886 2.22175 6.71917L8.21917 0.721753C8.28886 0.651487 8.37177 0.595715 8.46313 0.557655C8.55448 0.519595 8.65247 0.5 8.75144 0.5C8.8504 0.5 8.94839 0.519595 9.03974 0.557655C9.1311 0.595715 9.21402 0.651487 9.28371 0.721753L11.5327 2.97078C11.6026 3.04068 11.6581 3.12366 11.6959 3.21499C11.7337 3.30632 11.7532 3.4042 11.7532 3.50305C11.7532 3.6019 11.7337 3.69979 11.6959 3.79112C11.6581 3.88244 11.6026 3.96542 11.5327 4.03532C11.4628 4.10522 11.3799 4.16067 11.2885 4.1985C11.1972 4.23633 11.0993 4.2558 11.0005 4.2558C10.9016 4.2558 10.8037 4.23633 10.7124 4.1985C10.6211 4.16067 10.5381 4.10522 10.4682 4.03532L8.75144 2.31107L3.28629 7.78371C3.21624 7.85319 3.13317 7.90816 3.04183 7.94546C2.95049 7.98277 2.85269 8.00168 2.75402 8.00111Z" fill="white"/>
<path d="M20.7459 6.50171H1.25431C1.05548 6.50171 0.864796 6.58069 0.724205 6.72128C0.583613 6.86188 0.504629 7.05256 0.504629 7.25139V16.9972C0.476866 17.5952 0.574209 18.1925 0.790435 18.7508C1.00666 19.3091 1.33701 19.8162 1.76036 20.2395C2.18371 20.6629 2.69075 20.9932 3.24905 21.2094C3.80735 21.4257 4.40462 21.523 5.00269 21.4952H16.9975C17.5956 21.523 18.1929 21.4257 18.7512 21.2094C19.3095 20.9932 19.8165 20.6629 20.2398 20.2395C20.6632 19.8162 20.9935 19.3091 21.2098 18.7508C21.426 18.1925 21.5233 17.5952 21.4956 16.9972V7.25139C21.4956 7.05256 21.4166 6.86188 21.276 6.72128C21.1354 6.58069 20.9447 6.50171 20.7459 6.50171ZM17.7472 15.4978C17.4506 15.4978 17.1608 15.4099 16.9142 15.2451C16.6676 15.0804 16.4755 14.8462 16.362 14.5723C16.2485 14.2983 16.2188 13.9968 16.2766 13.706C16.3345 13.4151 16.4773 13.148 16.687 12.9383C16.8967 12.7286 17.1638 12.5858 17.4547 12.5279C17.7455 12.4701 18.047 12.4998 18.321 12.6133C18.5949 12.7267 18.8291 12.9189 18.9939 13.1655C19.1586 13.412 19.2465 13.7019 19.2465 13.9985C19.2465 14.3961 19.0886 14.7775 18.8074 15.0587C18.5262 15.3399 18.1448 15.4978 17.7472 15.4978Z" fill="white"/>
</svg>
