<svg width="24" height="13" viewBox="0 0 24 13" fill="none" xmlns="http://www.w3.org/2000/svg">
<path d="M23.4615 6.70318L21.0748 6.3731L20.1099 3.91017C19.856 3.25001 19.2212 2.84375 18.4341 2.84375H15.6665C15.438 2.84375 15.2349 2.9961 15.2095 3.22461L14.2954 8.27742C14.2446 8.50594 14.0669 8.65829 13.8383 8.65829H1.70145C1.47293 8.65829 1.26981 8.81063 1.24442 9.03915L0.990505 10.4864C0.939723 10.7657 1.16824 11.045 1.44754 11.045H2.43779C2.33623 12.1369 3.09796 13.0001 4.18977 13.0001C5.28158 13.0001 6.3734 12.1369 6.6527 11.045H17.6978C17.5962 12.1369 18.3579 13.0001 19.4498 13.0001C20.567 13.0001 21.6334 12.1369 21.9127 11.045H23.1061C23.3346 11.045 23.5377 10.8927 23.5631 10.6642L24.0963 7.64265C24.1979 7.16022 23.9186 6.75396 23.4615 6.70318ZM5.68784 10.8673C5.58628 11.4767 5.00228 11.9845 4.36751 11.9845C3.75812 11.9845 3.32648 11.4767 3.45343 10.8673C3.555 10.2579 4.13899 9.7501 4.77376 9.7501C5.38315 9.7501 5.81479 10.2579 5.68784 10.8673ZM16.1743 6.29693L16.5552 4.16408H18.1802C18.4595 4.16408 18.7134 4.31643 18.815 4.57034L19.5005 6.29693H16.1743ZM20.9478 10.8673C20.8463 11.4767 20.2623 11.9845 19.6275 11.9845C18.9927 11.9845 18.5865 11.4767 18.7134 10.8673C18.815 10.2579 19.399 9.7501 20.0338 9.7501C20.6685 9.7501 21.0494 10.2579 20.9478 10.8673Z" fill="white"/>
<path d="M13.7365 7.59191L14.9807 0.558602C15.0315 0.279301 14.803 0 14.5237 0H2.41214C1.9805 0 1.62502 0.355474 1.62502 0.787121C1.62502 1.21877 1.9805 1.57424 2.41214 1.57424H2.5391H3.73248C4.16412 1.57424 4.5196 1.92972 4.5196 2.36136C4.5196 2.79301 4.16412 3.14848 3.73248 3.14848H1.59963C1.16799 3.14848 0.812512 3.50396 0.812512 3.93561C0.812512 4.36725 1.16799 4.72273 1.59963 4.72273H2.91996C3.35161 4.72273 3.70709 5.0782 3.70709 5.50985C3.70709 5.94149 3.35161 6.29697 2.91996 6.32236H0.787121C0.355474 6.32236 0 6.67783 0 7.10948C0 7.54113 0.355474 7.8966 0.787121 7.8966H13.2541C13.508 7.99816 13.7111 7.82043 13.7365 7.59191Z" fill="white"/>
</svg>
