<svg width="22" height="22" viewBox="0 0 22 22" fill="none" xmlns="http://www.w3.org/2000/svg">
<path d="M4.00189 2.72571C3.16928 3.59162 2.50862 4.62063 2.05784 5.7537C1.60705 6.88678 1.375 8.10163 1.375 9.32854C1.375 10.5555 1.60705 11.7703 2.05784 12.9034C2.50862 14.0365 3.16928 15.0655 4.00189 15.9314L9.43398 21.6022C9.54688 21.7278 9.68322 21.8279 9.83461 21.8963C9.986 21.9647 10.1492 22 10.3142 22C10.4791 22 10.6424 21.9647 10.7938 21.8963C10.9451 21.8279 11.0815 21.7278 11.1944 21.6022L16.6265 15.9314C18.3039 14.1837 19.2476 11.8119 19.25 9.33783C19.2524 6.86374 18.3132 4.49001 16.639 2.73883C14.9649 0.987652 12.693 0.0024664 10.3231 4.62462e-06C7.95315 -0.00245715 5.67935 0.978007 4.00189 2.72571ZM10.3142 12.2821C9.63773 12.2821 8.97647 12.0727 8.41402 11.6804C7.85157 11.288 7.41319 10.7304 7.15433 10.078C6.89546 9.42553 6.82773 8.70762 6.9597 8.015C7.09167 7.32239 7.41741 6.68619 7.89573 6.18684C8.37406 5.68749 8.98348 5.34743 9.64693 5.20967C10.3104 5.0719 10.9981 5.1426 11.623 5.41285C12.248 5.68309 12.7822 6.14073 13.158 6.7279C13.5338 7.31507 13.7344 8.0054 13.7344 8.71158C13.7344 9.18047 13.6459 9.64476 13.474 10.078C13.3022 10.5112 13.0502 10.9048 12.7326 11.2363C12.415 11.5679 12.038 11.8309 11.623 12.0103C11.2081 12.1897 10.7633 12.2821 10.3142 12.2821Z" fill="white"/>
</svg>
