<svg width="24" height="24" viewBox="0 0 24 24" fill="none" xmlns="http://www.w3.org/2000/svg">
<path d="M12 1.5C9.9233 1.5 7.89323 2.11581 6.16652 3.26957C4.4398 4.42332 3.09399 6.0632 2.29927 7.98182C1.50455 9.90045 1.29661 12.0116 1.70176 14.0484C2.1069 16.0852 3.10693 17.9562 4.57538 19.4246C6.04383 20.8931 7.91475 21.8931 9.95155 22.2982C11.9884 22.7034 14.0996 22.4954 16.0182 21.7007C17.9368 20.906 19.5767 19.5602 20.7304 17.8335C21.8842 16.1068 22.5 14.0767 22.5 12C22.5 9.21522 21.3938 6.54451 19.4246 4.57538C17.4555 2.60625 14.7848 1.5 12 1.5ZM13.7593 16.9177C13.163 17.7586 12.5662 18.3356 11.9242 18.6581C11.4591 18.8853 10.9455 18.9951 10.4282 18.9781C9.07177 18.8658 8.44153 17.8435 9.03343 16.2173L10.8167 11.3177C11.2016 10.2604 10.8286 9.9388 10.5233 9.93048C10.1601 9.92381 9.72585 10.2642 9.22057 10.9515C9.17918 11.0095 9.11654 11.0486 9.04635 11.0604C8.97616 11.0722 8.90415 11.0558 8.84609 11.0146C8.78804 10.9734 8.74866 10.9109 8.73659 10.8408C8.72452 10.7706 8.74074 10.6986 8.7817 10.6403C9.37797 9.79938 9.9748 9.22245 10.6168 8.89988C11.0819 8.67275 11.5955 8.56292 12.1128 8.57996C13.4692 8.69221 14.0995 9.71458 13.5076 11.3407L11.7243 16.2403C11.3394 17.2977 11.7124 17.6192 12.0177 17.6276C12.3809 17.6342 12.8151 17.2939 13.3204 16.6065C13.3618 16.5486 13.4244 16.5094 13.4946 16.4976C13.5648 16.4858 13.6368 16.5023 13.6949 16.5435C13.753 16.5846 13.7923 16.6471 13.8044 16.7173C13.8165 16.7874 13.8002 16.8595 13.7593 16.9177V16.9177ZM15.1898 6.71875C15.104 6.95445 14.9503 7.15942 14.748 7.30773C14.5457 7.45605 14.304 7.54105 14.0534 7.55199C13.8028 7.56293 13.5546 7.49931 13.3402 7.36918C13.1257 7.23906 12.9547 7.04827 12.8487 6.82094C12.7427 6.59361 12.7065 6.33995 12.7446 6.09204C12.7828 5.84414 12.8936 5.61311 13.0631 5.42818C13.2325 5.24325 13.453 5.11273 13.6967 5.05311C13.9403 4.99349 14.1962 5.00746 14.4319 5.09325C14.5884 5.15021 14.7321 5.23744 14.8549 5.34996C14.9777 5.46247 15.0771 5.59807 15.1475 5.74902C15.2179 5.89996 15.2579 6.06329 15.2651 6.22968C15.2724 6.39606 15.2468 6.56225 15.1898 6.71875Z" fill="#008385"/>
</svg>
