<svg width="24" height="24" viewBox="0 0 24 24" fill="none" xmlns="http://www.w3.org/2000/svg">
<path d="M20.1252 11.06H11.1852C10.5852 11.06 10.1052 10.58 10.1052 9.98V7.28C10.1052 6.68 10.5852 6.19999 11.1852 6.19999H20.1252C20.7252 6.19999 21.2052 6.68 21.2052 7.28V9.98C21.2052 10.58 20.7252 11.06 20.1252 11.06ZM11.6852 9.46H19.6052V7.79999H11.6852V9.46ZM20.1252 17.8H11.1852C10.5852 17.8 10.1052 17.32 10.1052 16.72V14.02C10.1052 13.42 10.5852 12.94 11.1852 12.94H20.1252C20.7252 12.94 21.2052 13.42 21.2052 14.02V16.72C21.2052 17.32 20.7252 17.8 20.1252 17.8ZM11.6852 16.2H19.6052V14.54H11.6852V16.2ZM7.54518 11.06H3.92518C3.30518 11.06 2.80518 10.56 2.80518 9.93998V7.29999C2.80518 6.67999 3.30518 6.18 3.92518 6.18H7.54518C8.16518 6.18 8.66518 6.67999 8.66518 7.29999V9.93998C8.66518 10.56 8.16518 11.06 7.54518 11.06ZM4.40518 9.46H7.06518V7.79999H4.40518V9.46ZM7.54518 17.8H3.92518C3.30518 17.8 2.80518 17.3 2.80518 16.68V14.04C2.80518 13.42 3.30518 12.92 3.92518 12.92H7.54518C8.16518 12.92 8.66518 13.42 8.66518 14.04V16.68C8.66518 17.3 8.16518 17.8 7.54518 17.8ZM4.40518 16.2H7.06518V14.54H4.40518V16.2Z" fill="#040507"/>
</svg>
