<svg width="24" height="24" viewBox="0 0 24 24" fill="none" xmlns="http://www.w3.org/2000/svg">
<path d="M9.78508 10.9399H4.32508C3.70508 10.9399 3.20508 10.4399 3.20508 9.8199V5.5199C3.20508 4.8999 3.70508 4.3999 4.32508 4.3999H9.78508C10.4051 4.3999 10.9051 4.8999 10.9051 5.5199V9.8199C10.9051 10.4399 10.4051 10.9399 9.78508 10.9399ZM4.80508 9.33989H9.30508V5.9999H4.80508V9.33989ZM19.6851 10.9399H14.2251C13.6051 10.9399 13.1051 10.4399 13.1051 9.8199V5.5199C13.1051 4.8999 13.6051 4.3999 14.2251 4.3999H19.6851C20.3051 4.3999 20.8051 4.8999 20.8051 5.5199V9.8199C20.8051 10.4399 20.3051 10.9399 19.6851 10.9399ZM14.7051 9.33989H19.2051V5.9999H14.7051V9.33989ZM9.78508 19.5999H4.32508C3.70508 19.5999 3.20508 19.0999 3.20508 18.4799V14.1799C3.20508 13.5599 3.70508 13.0599 4.32508 13.0599H9.78508C10.4051 13.0599 10.9051 13.5599 10.9051 14.1799V18.4799C10.9051 19.0999 10.4051 19.5999 9.78508 19.5999ZM4.80508 17.9999H9.30508V14.6599H4.80508V17.9999ZM19.6851 19.5999H14.2251C13.6051 19.5999 13.1051 19.0999 13.1051 18.4799V14.1799C13.1051 13.5599 13.6051 13.0599 14.2251 13.0599H19.6851C20.3051 13.0599 20.8051 13.5599 20.8051 14.1799V18.4799C20.8051 19.0999 20.3051 19.5999 19.6851 19.5999ZM14.7051 17.9999H19.2051V14.6599H14.7051V17.9999Z" fill="#040507"/>
</svg>
