<svg width="14" height="14" fill="none" xmlns="http://www.w3.org/2000/svg"><path d="M3.001 5a.5.5 0 01-.26-.924L9.24.078a.5.5 0 01.634.095l3.499 3.998a.5.5 0 01-.75.66L9.4 1.147 3.26 4.926a.5.5 0 01-.26.075z" fill="#008385"/><path d="M1.503 5a.5.5 0 01-.355-.854L5.146.148a.5.5 0 01.71 0l1.5 1.5a.502.502 0 01-.71.709L5.5 1.207 1.858 4.856A.5.5 0 011.503 5z" fill="#008385"/><path d="M13.497 4.001H.503a.5.5 0 00-.5.5v6.497a2.869 2.869 0 002.999 2.999h7.996a2.87 2.87 0 002.999-2.999V4.501a.5.5 0 00-.5-.5zM11.498 10a1 1 0 110-2 1 1 0 010 2z" fill="#008385"/></svg>