<svg width="16" height="16" fill="none" xmlns="http://www.w3.org/2000/svg"><g clip-path="url(#clip0_1878:12928)" fill="#AAAFB4"><path d="M15.565 9.447l-1.583-.219-.64-1.634c-.169-.438-.59-.708-1.112-.708h-1.836c-.152 0-.287.102-.304.253l-.606 3.352a.306.306 0 01-.303.253H1.129c-.152 0-.287.101-.303.253l-.169.96a.32.32 0 00.303.37h.657c-.067.725.438 1.298 1.163 1.298.724 0 1.448-.573 1.634-1.297h7.327c-.067.724.438 1.297 1.163 1.297.74 0 1.448-.573 1.634-1.297h.791c.152 0 .287-.102.303-.253l.354-2.005c.068-.32-.118-.59-.42-.623zM3.773 12.21a.918.918 0 01-.876.74.601.601 0 01-.606-.74.918.918 0 01.876-.742c.404 0 .69.337.606.742zm6.957-3.033l.253-1.415h1.078c.186 0 .354.102.421.27l.455 1.145H10.73zm3.168 3.033a.918.918 0 01-.877.74c-.42 0-.69-.336-.606-.74a.918.918 0 01.876-.742c.421 0 .674.337.607.742z"/><path d="M9.113 10.037L9.94 5.37A.32.32 0 009.636 5H1.6a.525.525 0 00-.522.522c0 .287.236.522.522.522h.876c.287 0 .522.236.522.523a.525.525 0 01-.522.522H1.061a.525.525 0 00-.522.522c0 .286.236.522.522.522h.876c.287 0 .522.236.522.522a.551.551 0 01-.522.54H.522A.525.525 0 000 9.716c0 .286.236.522.522.522h8.271c.169.067.303-.05.32-.202z"/></g><defs><clipPath id="clip0_1878:12928"><path fill="#fff" d="M0 0h16v16H0z"/></clipPath></defs></svg>