<svg width="16" height="16" fill="none" xmlns="http://www.w3.org/2000/svg"><path d="M2.91 1.982a6.804 6.804 0 00-1.413 2.203 7.037 7.037 0 000 5.2 6.805 6.805 0 001.413 2.201l3.951 4.125a.847.847 0 001.28 0l3.951-4.125A6.938 6.938 0 0014 6.791a6.94 6.94 0 00-1.899-4.8C10.884.719 9.231.002 7.508 0 5.784-.002 4.13.711 2.91 1.982zm4.591 6.95c-.492 0-.973-.152-1.382-.437a2.576 2.576 0 01-.916-1.166 2.703 2.703 0 01-.141-1.5c.096-.504.332-.966.68-1.33.348-.363.791-.61 1.274-.71a2.39 2.39 0 011.437.148c.455.196.843.529 1.116.956a2.696 2.696 0 01.23 2.436 2.607 2.607 0 01-.539.843 2.483 2.483 0 01-.807.563c-.302.13-.625.197-.952.197z" fill="#AAAFB4"/></svg>