<svg width="16" height="16" fill="none" xmlns="http://www.w3.org/2000/svg"><path d="M8 1a7 7 0 100 14A7 7 0 008 1zm1.173 10.278c-.398.561-.796.946-1.224 1.16a2.11 2.11 0 01-.997.214c-.904-.075-1.324-.756-.93-1.84l1.19-3.267c.256-.705.007-.92-.196-.925-.243-.004-.532.223-.869.681a.18.18 0 01-.293-.207c.398-.561.796-.946 1.224-1.16a2.11 2.11 0 01.997-.214c.904.075 1.325.756.93 1.84l-1.189 3.267c-.256.705-.008.92.196.925.242.004.531-.223.868-.681a.18.18 0 01.293.207zm.954-6.799a.845.845 0 11-1.588-.577.845.845 0 011.588.577z" fill="#AAAFB4"/></svg>