<svg width="117" height="117" viewBox="0 0 117 117" fill="none" xmlns="http://www.w3.org/2000/svg">
<path d="M33.249 94.8606V22.8091H83.9884V37.2667H50.0308V54.6H79.1824V69.0182H50.0308V94.8606H33.249Z" fill="white"/>
<path d="M33.2485 100.061C33.2485 103.842 33.2485 107.585 33.2485 111.406C24.1091 111.406 14.9697 111.406 5.63334 111.406C5.63334 102.267 5.63334 93.1273 5.63334 83.8304C13.0394 83.8304 20.4848 83.8304 28.0485 83.8304V78.197C18.7121 78.197 9.37576 78.197 0 78.197C0 91.3152 0 104.118 0 117C13 117 25.8818 117 38.7636 117C38.7636 111.327 38.7636 105.655 38.7636 100.021H33.2485V100.061Z" fill="white"/>
<path d="M28.0872 33.249C20.6418 33.249 13.2357 33.249 5.71146 33.249C5.71146 24.149 5.71146 15.0096 5.71146 5.6732C14.7721 5.6732 23.9115 5.6732 33.2872 5.6732C33.2872 9.69138 33.2872 13.6702 33.2872 17.6096H38.8024C38.8024 11.7399 38.8024 5.90956 38.8024 0.118652C25.7236 0.118652 12.8812 0.118652 0.078125 0.118652C0.078125 13.158 0.078125 25.9611 0.078125 38.8823C9.45388 38.8823 18.7509 38.8823 28.1266 38.8823V33.249H28.0872Z" fill="white"/>
<path d="M27.576 27.6154C27.576 21.9821 27.576 16.5851 27.576 11.1094C22.0609 11.1094 16.7821 11.1094 11.2275 11.1094C11.2275 16.7821 11.2275 22.2185 11.2275 27.6154C16.8215 27.6154 22.2578 27.6154 27.576 27.6154Z" fill="white"/>
<path d="M27.5764 105.812C27.5764 100.179 27.5764 94.782 27.5764 89.385C21.9824 89.385 16.6642 89.385 11.1885 89.385C11.1885 94.9002 11.1885 100.258 11.1885 105.812C16.8218 105.812 22.2582 105.812 27.5764 105.812Z" fill="white"/>
<path d="M89.1088 50.1091C87.533 50.1091 86.036 50.1091 84.4209 50.1091V54.6V55.6243C86.1542 55.6243 87.6906 55.6243 89.1088 55.6243C89.1088 53.694 89.1088 52.0394 89.1088 50.1091Z" fill="white"/>
<path d="M0.078125 72.2879C1.96903 72.2879 3.66297 72.2879 5.4357 72.2879C5.4357 68.5061 5.4357 64.9213 5.4357 61.3364C3.66297 61.3364 1.85085 61.3364 0.078125 61.3364C0.078125 65.2364 0.078125 68.7819 0.078125 72.2879Z" fill="white"/>
<path d="M5.43555 61.3773C5.47494 61.3773 5.47494 61.3773 5.51433 61.3773C5.51433 61.337 5.51433 61.337 5.51433 61.2966C5.47494 61.2966 5.47494 61.2966 5.43555 61.2966C5.43555 61.2966 5.43555 61.337 5.43555 61.3773Z" fill="white"/>
<path d="M27.8121 72.3668C27.8121 68.6638 27.8121 65.1183 27.8121 61.2577C27.8909 61.2577 27.7333 61.2577 27.8121 61.2577V50.188C20.3273 50.188 13.0788 50.188 5.35757 50.188C5.35757 48.1001 5.35757 46.4062 5.35757 44.6729C3.42727 44.6729 1.77273 44.6729 0 44.6729C0 48.3759 0 51.9213 0 55.7819C1.85151 55.7819 3.54545 55.7819 5.47575 55.7819C5.47575 57.791 5.47575 59.5244 5.47575 61.2577C7.28787 61.2577 9.06061 61.2577 11.1485 61.2577C11.1485 59.2486 11.1485 57.5153 11.1485 55.8607C14.9303 55.8607 18.4364 55.8607 22.0212 55.8607C22.0212 57.7122 22.0212 59.4062 22.0212 61.4153C20.1303 61.4153 18.4364 61.4153 16.7424 61.4153C16.7424 63.3456 16.7424 65.0001 16.7424 66.9304C18.5939 66.9304 20.2879 66.9304 22.297 66.9304C22.297 68.9395 22.297 70.6335 22.297 72.3668C24.2667 72.3668 25.8818 72.3668 27.8121 72.3668Z" fill="white"/>
<path d="M61.2578 42.4666C61.2578 44.7514 61.2578 47.0757 61.2578 49.3999H79.1821H83.5154C83.5154 47.706 83.5154 46.1696 83.5154 44.515C79.7336 44.515 76.2275 44.515 72.4457 44.515C72.4457 43.8453 72.4457 43.1756 72.4457 42.4666H61.2578Z" fill="white"/>
<path d="M72.5241 78.0396C72.4847 78.0396 72.4847 78.0396 72.4453 78.0396C72.4453 78.0799 72.4453 78.0799 72.4453 78.1202C72.4847 78.1202 72.4847 78.1202 72.5241 78.1202C72.5241 78.1202 72.5241 78.0799 72.5241 78.0396Z" fill="white"/>
<path d="M77.883 74.179H72.5254C72.5254 75.479 72.5254 76.7396 72.5254 78.0396C74.2981 78.0396 76.1102 78.0396 77.883 78.0396C77.883 76.6608 77.883 75.4002 77.883 74.179Z" fill="white"/>
<path d="M100.454 83.7122C100.454 85.4849 100.454 87.297 100.454 89.3455C102.463 89.3455 104.157 89.3455 105.89 89.3455C105.93 87.4546 105.969 85.6031 105.969 83.7122C104.118 83.7122 102.266 83.7122 100.454 83.7122Z" fill="white"/>
<path d="M105.932 94.6241C109.989 94.6241 113.535 94.6241 117.001 94.6241C117.001 92.7726 117.001 91.118 117.001 89.4241C113.22 89.4241 109.556 89.4241 105.932 89.4241C105.932 91.1968 105.932 92.9695 105.932 94.6241Z" fill="white"/>
<path d="M100.375 83.6333C100.375 83.6736 100.375 83.6736 100.375 83.7139C100.414 83.7139 100.414 83.7139 100.454 83.7139C100.454 83.6736 100.454 83.6736 100.454 83.6333C100.414 83.6333 100.375 83.6333 100.375 83.6333Z" fill="white"/>
<path d="M105.97 83.7139C106.009 83.7139 106.009 83.7139 106.049 83.7139C106.049 83.6736 106.049 83.6736 106.049 83.6333C106.009 83.6333 106.009 83.6333 105.97 83.6333C105.97 83.6736 105.97 83.6736 105.97 83.7139Z" fill="white"/>
<path d="M106.008 78.2758C106.008 80.0485 106.008 81.8213 106.008 83.6334C107.821 83.6334 109.593 83.6334 111.681 83.6334C111.681 81.5849 111.681 79.891 111.681 78C113.611 78 115.266 78 116.96 78C116.96 72.3667 116.96 66.9304 116.96 61.2182C115.069 61.2182 113.375 61.2182 111.484 61.2182C111.484 55.5455 111.484 50.1879 111.484 44.7122C105.851 44.7122 100.454 44.7122 94.7024 44.7122C94.7024 50.3061 94.7024 55.7031 94.7024 61.3758C91.0782 61.3758 87.6903 61.3758 84.3418 61.3758V67.0485C93.56 67.0485 102.502 67.0485 111.366 67.0485C111.366 68.9788 111.366 70.6334 111.366 72.5637C103.921 72.5637 96.6327 72.5637 89.3842 72.5637C89.3842 74.5728 89.3842 76.2667 89.3842 78.197C91.2357 78.197 92.8903 78.197 94.8206 78.197C94.8206 80.0879 94.8206 81.8213 94.8206 83.6334C96.8297 83.6334 98.563 83.6334 100.296 83.6334C100.296 81.9001 100.296 80.2061 100.296 78.2758C102.227 78.2758 103.96 78.2758 106.008 78.2758ZM105.811 61.1788C104.118 61.1788 102.502 61.1788 100.533 61.1788C100.533 59.4061 100.533 57.7909 100.533 55.9394C102.227 55.9394 103.921 55.9394 105.811 55.9394C105.811 57.6334 105.811 59.3273 105.811 61.1788Z" fill="white"/>
<path d="M89.4639 11.2666C89.4639 16.8999 89.4639 22.2969 89.4639 27.6939C95.0578 27.6939 100.415 27.6939 105.852 27.6939C105.852 22.1787 105.852 16.8211 105.852 11.2666C100.218 11.2666 94.7821 11.2666 89.4639 11.2666Z" fill="white"/>
<path d="M72.4457 78.1183C70.7124 78.1183 69.0184 78.1183 67.0881 78.1183C67.0881 76.779 67.0881 75.5183 67.0881 74.179H61.2578C61.2578 77.3305 61.2578 80.4426 61.2578 83.5547C64.9608 83.5547 68.6639 83.5547 72.4457 83.5547C72.4457 81.5456 72.4457 79.8517 72.4457 78.1183Z" fill="white"/>
<path d="M78.2754 0.0805664C78.2754 5.95026 78.2754 11.7806 78.2754 17.6109H83.8693C83.8693 13.6715 83.8693 9.69269 83.8693 5.67451C92.9299 5.67451 102.069 5.67451 111.445 5.67451C111.445 14.9715 111.445 24.0321 111.445 33.2503C104.039 33.2503 96.633 33.2503 89.1875 33.2503V37.2684V38.8442C98.4845 38.8442 107.742 38.8442 117 38.8442C117 25.8836 117 13.0806 117 0.0805664C103.96 0.0805664 91.0784 0.0805664 78.2754 0.0805664Z" fill="white"/>
<path d="M105.852 89.3457C105.852 89.386 105.852 89.386 105.852 89.4263C105.891 89.4263 105.891 89.4263 105.93 89.4263C105.93 89.386 105.93 89.386 105.93 89.3457C105.93 89.3457 105.891 89.3457 105.852 89.3457Z" fill="white"/>
<path d="M111.366 117C111.366 115.109 111.366 113.415 111.366 111.642C109.436 111.642 107.742 111.642 106.009 111.642C106.009 113.415 106.009 115.227 106.009 117C108.018 117 109.712 117 111.366 117Z" fill="white"/>
<path d="M55.8991 105.891C63.384 105.891 70.6719 105.891 77.881 105.891C77.881 103.961 77.881 102.306 77.881 100.376C72.287 100.376 66.8507 100.376 61.4931 100.376C61.4931 98.3669 61.4931 96.6336 61.4931 94.7426C63.3446 94.7426 64.9991 94.7426 66.6931 94.7426C66.6931 92.8123 66.6931 91.1184 66.6931 89.1093C64.8022 89.1093 62.99 89.1093 61.2961 89.1093C61.2173 87.0608 61.2961 85.2487 61.2173 83.5154C59.2476 83.5154 57.5143 83.5942 55.5446 83.5942C55.5446 83.5942 55.4658 96.7517 55.4658 100.534C53.6143 100.534 51.9597 100.534 50.0294 100.534C50.0294 104.315 50.0294 107.9 50.0294 111.761C48.0204 111.761 46.3264 111.761 44.6719 111.761C44.6719 113.691 44.6719 115.346 44.6719 117C57.7113 117 70.5931 117 83.3961 117C83.3961 115.109 83.3961 113.415 83.3961 111.485C74.0991 111.485 64.9991 111.485 55.8991 111.485C55.8991 109.594 55.8991 107.9 55.8991 105.891Z" fill="white"/>
<path d="M105.971 111.644C105.993 111.644 106.01 111.626 106.01 111.604C106.01 111.582 105.993 111.564 105.971 111.564C105.949 111.564 105.932 111.582 105.932 111.604C105.932 111.626 105.949 111.644 105.971 111.644Z" fill="white"/>
<path d="M100.258 94.7422C96.4759 94.7422 92.9698 94.7422 89.1486 94.7422C89.1486 92.8513 89.1486 91.118 89.1486 89.1483C87.1395 89.1483 85.4456 89.1483 83.5547 89.1483C83.5547 87.218 83.5547 85.5634 83.5547 83.8301C81.6638 83.8301 79.9305 83.8301 77.9608 83.8301C77.9608 85.721 77.9608 87.4149 77.9608 89.3058C76.0305 89.3058 74.3759 89.3058 72.6426 89.3058C72.6426 91.1967 72.6426 92.9301 72.6426 94.8998C76.385 94.8998 79.9305 94.8998 83.7911 94.8998C83.7911 96.9089 83.7911 98.6028 83.7911 100.533C85.7214 100.533 87.3759 100.533 89.3062 100.533C89.3062 104.315 89.3062 107.86 89.3062 111.563C95.0577 111.563 100.494 111.563 105.93 111.563C105.93 109.751 105.93 107.9 105.93 106.088C104.118 106.088 102.346 106.088 100.258 106.088C100.258 102.069 100.258 98.524 100.258 94.7422Z" fill="white"/>
<path d="M106.01 106.05C106.01 106.01 106.01 106.01 106.01 105.97C105.971 105.97 105.971 105.97 105.932 105.97L106.01 106.05Z" fill="white"/>
<path d="M106.009 105.97C109.633 105.97 113.297 105.97 116.96 105.97C116.96 103.961 116.96 102.267 116.96 100.612C113.218 100.612 109.672 100.612 106.009 100.612C106.009 102.542 106.009 104.276 106.009 105.97Z" fill="white"/>
<path d="M105.932 106.05C105.971 106.05 105.971 106.05 106.01 106.05L105.932 105.97C105.932 106.01 105.932 106.05 105.932 106.05Z" fill="white"/>
<path d="M50.3065 11.1879C52.0398 11.1879 53.655 11.1879 55.6247 11.1879C55.6247 13 55.6247 14.6152 55.6247 16.4273H66.7338C66.7338 10.7545 66.7338 5.35757 66.7338 0C64.8823 0 63.2671 0 61.3368 0C61.3368 1.85151 61.3368 3.54546 61.3368 5.2788C59.3277 5.2788 57.6338 5.2788 55.6247 5.2788C55.6247 3.38789 55.6247 1.65455 55.6247 0.0393963C53.6944 0.0393963 52.0398 0.0393963 50.1095 0.0393963C50.1095 1.89091 50.1095 3.62425 50.1095 5.63334C48.1004 5.63334 46.4065 5.63334 44.752 5.63334C44.752 9.69091 44.752 12.4879 44.752 16.4667H50.3065C50.3065 14.7333 50.3065 13.0394 50.3065 11.1879Z" fill="white"/>
</svg>
