<svg width="161" height="40" fill="none" xmlns="http://www.w3.org/2000/svg"><path d="M14.034 20.064H5.953l-1.21 3.407H0L7.888 1.893h4.21l7.889 21.578h-4.743l-1.21-3.407zm-6.533-4.272h4.985l-2.323-6.49-.145-.703h-.049l-.145.703-2.323 6.49z" fill="#DEE2E6"/><path d="M19.842 1.19h4.404v22.335h-4.404V1.19zm5.226 14.115c0-1.19.194-2.325.581-3.407a7.698 7.698 0 011.694-2.758 9.443 9.443 0 012.565-1.893c1.016-.433 2.08-.703 3.29-.703s2.324.216 3.34.703 1.887 1.082 2.613 1.893a8.763 8.763 0 011.694 2.758c.387 1.082.58 2.217.58 3.407 0 .325 0 .595-.048.811 0 .217-.048.379-.096.595H29.52c.096.541.29.974.532 1.406.242.433.532.757.871 1.028.339.27.678.54 1.065.649.387.162.774.216 1.21.216.677 0 1.306-.162 1.79-.487a3.04 3.04 0 001.162-1.244h4.742c-.193.704-.532 1.407-1.016 2.11-.436.703-1.016 1.298-1.645 1.838-.63.541-1.404.974-2.275 1.298a7.912 7.912 0 01-2.807.487c-1.21 0-2.323-.216-3.29-.703-1.017-.433-1.84-1.082-2.566-1.893-.725-.811-1.258-1.73-1.693-2.758a10.733 10.733 0 01-.533-3.353zm8.179-4.65c-.774 0-1.452.215-2.08.702-.63.487-1.066 1.082-1.356 1.893h6.92a4.555 4.555 0 00-.58-1.082c-.242-.324-.484-.595-.823-.81-.29-.217-.63-.38-.968-.542a3.962 3.962 0 00-1.113-.162z" fill="#DEE2E6"/><path d="M45.443 18.333c.048.487.29.92.677 1.19.436.325.968.433 1.597.433.823 0 1.452-.108 1.791-.379.387-.216.532-.595.532-1.027a.95.95 0 00-.242-.65 2.227 2.227 0 00-.774-.432 13.812 13.812 0 00-1.21-.324c-.484-.109-1.016-.217-1.694-.379-.29-.054-.58-.162-.92-.216a7.743 7.743 0 01-1.015-.379c-.34-.162-.678-.324-.968-.595a3.256 3.256 0 01-.823-.865c-.242-.325-.435-.757-.58-1.19-.146-.487-.194-1.027-.194-1.676 0-.812.145-1.569.387-2.272.29-.649.677-1.244 1.21-1.676.532-.433 1.258-.811 2.08-1.082.823-.27 1.791-.378 2.953-.378.92 0 1.742.108 2.468.378s1.355.65 1.887 1.136a4.43 4.43 0 011.162 1.73c.29.65.387 1.406.387 2.218H49.75c-.048-.379-.194-.757-.532-1.028-.29-.27-.775-.432-1.307-.432-.678 0-1.162.162-1.5.432-.339.27-.484.595-.484.974 0 .216.048.378.145.54.097.163.29.27.532.379.242.108.533.162.871.27.34.055.775.163 1.307.217.774.162 1.5.324 2.226.54.678.217 1.307.487 1.84.866.532.378.967.865 1.257 1.406.29.54.484 1.352.484 2.217 0 .974-.193 1.839-.532 2.542a4.945 4.945 0 01-1.452 1.785c-.629.486-1.355.811-2.226 1.027-.871.217-1.839.325-2.855.325-1.113 0-2.13-.162-2.904-.487-.774-.324-1.452-.757-1.984-1.298a4.81 4.81 0 01-1.162-1.839c-.241-.703-.387-1.352-.387-2.055l4.356.054zM55.364 1.19h4.404v12.87l4.887-6.976h5.13l-4.936 6.868 5.42 9.572h-5.226l-3.34-6.381-1.935 2.542v3.84h-4.404V1.19z" fill="#DEE2E6"/><path d="M68.285 15.305c0-1.19.193-2.325.58-3.407A7.699 7.699 0 0170.56 9.14a9.443 9.443 0 012.565-1.893c1.016-.433 2.081-.703 3.29-.703 1.21 0 2.324.216 3.34.703s1.887 1.082 2.613 1.893a8.763 8.763 0 011.694 2.758c.387 1.082.581 2.217.581 3.407 0 .325 0 .595-.048.811 0 .217-.049.379-.097.595h-11.76c.097.541.29.974.532 1.406.242.433.533.757.871 1.028.34.27.678.54 1.065.649.387.162.774.216 1.21.216.677 0 1.307-.162 1.79-.487a3.04 3.04 0 001.162-1.244h4.743c-.194.704-.533 1.407-1.017 2.11-.435.703-1.016 1.298-1.645 1.838-.63.541-1.403.974-2.275 1.298a7.912 7.912 0 01-2.806.487c-1.21 0-2.323-.216-3.291-.703-1.017-.433-1.84-1.082-2.565-1.893-.726-.811-1.258-1.73-1.694-2.758a10.733 10.733 0 01-.532-3.353zm8.178-4.65c-.774 0-1.451.215-2.08.702-.63.487-1.065 1.082-1.356 1.893h6.92a4.555 4.555 0 00-.58-1.082c-.242-.324-.484-.595-.823-.81-.29-.217-.629-.38-.968-.542a3.721 3.721 0 00-1.113-.162zm19.02.648h-1.84c-1.21 0-2.129.379-2.806 1.136-.678.757-1.017 1.893-1.017 3.407v7.625h-4.355V7.031h3.533l.338 1.568a7.37 7.37 0 011.743-1.136c.677-.27 1.452-.432 2.371-.432h2.081v4.272h-.048zm-.581 4.002c0-1.19.193-2.325.58-3.407a7.699 7.699 0 011.694-2.758 9.443 9.443 0 012.565-1.893c.968-.487 2.13-.703 3.34-.703 1.209 0 2.323.216 3.339.703s1.887 1.082 2.613 1.893a8.76 8.76 0 011.694 2.758c.387 1.027.581 2.217.581 3.407s-.194 2.326-.581 3.407a7.696 7.696 0 01-1.694 2.758 8.988 8.988 0 01-2.613 1.893c-1.016.487-2.13.703-3.339.703-1.21 0-2.275-.216-3.291-.703-1.017-.487-1.84-1.081-2.565-1.893-.726-.81-1.258-1.73-1.694-2.758-.436-1.027-.63-2.217-.63-3.407zm4.355-.054c0 .703.097 1.298.29 1.839.194.54.485 1.027.823 1.46a4.17 4.17 0 001.21.92 3.59 3.59 0 001.501.324c.532 0 1.016-.108 1.5-.325.484-.216.871-.54 1.21-.92.338-.378.629-.864.822-1.46.194-.54.291-1.189.291-1.892 0-.65-.097-1.298-.291-1.839a4.305 4.305 0 00-.822-1.406c-.339-.379-.726-.703-1.21-.92a3.584 3.584 0 00-1.5-.324c-.533 0-1.017.108-1.501.325-.484.216-.871.54-1.21.919a4.316 4.316 0 00-.822 1.406c-.194.541-.29 1.244-.29 1.893z" fill="#DEE2E6"/><path d="M113.243 11.249h-2.71V7.03h2.71v-.595c0-.758.097-1.515.242-2.272.194-.757.484-1.46.871-2.055.436-.595.968-1.136 1.646-1.514.677-.379 1.548-.595 2.613-.595h2.952v4.002h-1.887c-.387 0-.726.054-.968.216a1.606 1.606 0 00-.629.541 1.983 1.983 0 00-.339.811c-.048.325-.097.65-.097.974v.54h3.92v4.219h-3.92v12.222h-4.404V11.25z" fill="#DEE2E6"/><path d="M123.116 11.25h-2.71V7.03h2.71v-.594c0-.757.097-1.514.242-2.272.193-.757.484-1.46.871-2.055.435-.594.968-1.135 1.645-1.514.678-.378 1.549-.595 2.614-.595h2.952v4.002h-1.888c-.387 0-.726.054-.968.217a1.606 1.606 0 00-.629.54c-.145.217-.29.487-.338.812a6.552 6.552 0 00-.097.973v.54h3.92v4.22h-3.92v12.222h-4.404V11.249zm22.939.053h-1.839c-1.21 0-2.13.379-2.807 1.136-.678.757-1.016 1.893-1.016 3.407v7.626h-4.356V7.03h3.533l.339 1.568a7.36 7.36 0 011.742-1.135c.677-.27 1.452-.433 2.371-.433h2.081v4.272h-.048z" fill="#DEE2E6"/><path d="M153.411 19.794c.484 0 .92-.055 1.307-.217.387-.162.726-.378.968-.703.29-.324.484-.757.629-1.298.145-.54.242-1.19.242-2v-8.6h4.404v8.762c0 1.514-.194 2.758-.581 3.785-.387 1.028-.919 1.893-1.597 2.542-.677.649-1.452 1.136-2.371 1.406-.92.27-1.936.433-3.001.433-1.064 0-2.081-.163-3-.433-.92-.27-1.694-.757-2.371-1.406-.678-.649-1.21-1.514-1.597-2.542-.388-1.027-.581-2.325-.581-3.785V6.976h4.404v8.6c0 .756.048 1.46.193 1.946.146.54.339.974.629 1.298.291.325.581.54.968.703.436.216.871.27 1.355.27zm-19.455-1.19h-4.355v4.867h4.355v-4.867zM85.55 34.646c0-.432.049-.811.194-1.19.145-.378.29-.703.532-.973.242-.27.533-.487.823-.65.339-.161.726-.215 1.113-.215.29 0 .58.054.823.162.242.108.435.216.629.378v-2.38h1.5v7.68h-1.306l-.097-.486a8.226 8.226 0 01-.678.486c-.242.163-.58.217-.87.217-.436 0-.775-.054-1.114-.217a2.746 2.746 0 01-.871-.649 2.322 2.322 0 01-.532-.973 4.682 4.682 0 01-.146-1.19zm1.5 0c0 .216.049.433.097.65a.806.806 0 00.29.486c.146.162.243.27.436.324.194.054.34.108.533.108s.338-.054.532-.108a1.15 1.15 0 00.436-.324c.145-.162.242-.325.29-.487.048-.216.097-.433.097-.649 0-.216-.049-.432-.097-.649a.8.8 0 00-.29-.487c-.146-.162-.242-.216-.436-.324a1.578 1.578 0 00-.532-.108c-.194 0-.388.054-.533.108a1.14 1.14 0 00-.435.324l-.29.487a2.98 2.98 0 00-.097.65zm6.34-2.812h-1.5v5.679h1.5v-5.679zm.484 2.812c0-.433.048-.811.194-1.19.145-.378.29-.703.532-.973.242-.27.532-.487.871-.65.339-.161.726-.216 1.113-.216.194 0 .339 0 .484.055l.436.162c.145.054.242.108.387.216.097.054.242.162.29.27l.097-.486h1.21v5.246c0 .432-.048.81-.194 1.19-.145.378-.29.648-.532.919-.242.27-.532.432-.871.595-.339.162-.726.216-1.162.216-.29 0-.58-.054-.822-.108a1.783 1.783 0 01-.63-.27c-.145-.109-.338-.217-.483-.38a2.955 2.955 0 01-.34-.486 1.732 1.732 0 01-.193-.54c-.048-.217-.097-.38-.097-.541h1.452l.145.324c.049.108.146.162.243.27.096.109.193.109.338.163.145.054.29.054.436.054.242 0 .484-.054.629-.162.145-.109.29-.217.387-.38.097-.161.145-.27.194-.432.048-.162.048-.324.048-.432v-.163a3.017 3.017 0 01-.677.433c-.242.108-.581.162-.92.162-.387 0-.726-.054-1.065-.216-.338-.162-.58-.325-.822-.595-.242-.27-.388-.595-.533-.92a3.988 3.988 0 01-.145-1.135zm1.5 0c0 .216.049.433.097.649a.8.8 0 00.29.487c.146.162.243.216.436.324.145.054.339.108.532.108.194 0 .34-.054.533-.108a1.14 1.14 0 00.435-.324l.29-.487c.05-.216.098-.433.098-.649 0-.216-.049-.433-.097-.649-.049-.216-.145-.379-.29-.487-.146-.162-.243-.216-.436-.324a1.578 1.578 0 00-.533-.108 1.58 1.58 0 00-.532.108 1.14 1.14 0 00-.436.324l-.29.487a3.006 3.006 0 00-.097.649zm6.34-2.812h-1.5v5.679h1.5v-5.679zm1.452-1.569h1.065v1.569h1.452v1.46h-1.452v2c0 .163 0 .325.049.433.048.109.096.217.145.27a1 1 0 00.242.163c.096 0 .193.054.29.054h.823v1.406h-.968c-.29 0-.532-.054-.823-.108a1.37 1.37 0 01-.677-.325c-.194-.162-.339-.378-.436-.703a3.98 3.98 0 01-.145-1.135v-2.001h-.823V32.05l.775-.325.483-1.46zm2.71 4.381c0-.433.048-.811.194-1.19.145-.378.29-.703.532-.973.242-.27.532-.487.871-.65.339-.161.726-.216 1.113-.216.339 0 .629.055.92.163.29.108.484.27.677.432l.049-.432h1.306v5.678h-1.306l-.049-.432a3.003 3.003 0 01-.677.432c-.242.108-.581.162-.92.162-.435 0-.774-.054-1.113-.216a2.744 2.744 0 01-.871-.649 2.312 2.312 0 01-.532-.973c-.146-.325-.194-.703-.194-1.136zm1.5 0c0 .216.049.433.097.649a.795.795 0 00.29.487c.146.162.242.216.436.324.145.054.339.108.532.108.194 0 .339-.054.533-.108a1.14 1.14 0 00.435-.324 1.32 1.32 0 00.291-.487 3.03 3.03 0 00.096-.649 3.03 3.03 0 00-.096-.649c-.049-.216-.146-.379-.291-.487-.145-.162-.242-.216-.435-.324a1.584 1.584 0 00-.533-.108 1.58 1.58 0 00-.532.108 1.15 1.15 0 00-.436.324l-.29.487c-.048.216-.097.433-.097.649zm4.84-4.867h1.5v7.68h-1.5v-7.68zm3.871-1.19h1.452v10.978h-1.452V28.59zm9.486 6.057c0 .433-.049.811-.194 1.19-.145.379-.29.703-.532.973-.242.27-.532.487-.871.65-.339.162-.726.216-1.113.216-.145 0-.339 0-.484-.054-.145-.055-.291-.055-.436-.163a1.394 1.394 0 01-.387-.216 1.489 1.489 0 01-.29-.216l-.049.432h-1.306v-7.68h1.5v2.38c.193-.162.387-.27.629-.378.242-.108.532-.162.823-.162.435 0 .774.054 1.113.216.339.162.629.378.822.649.194.27.388.595.533.973.145.379.242.757.242 1.19zm-1.5 0c0-.216-.049-.432-.097-.649-.049-.216-.145-.378-.291-.487-.096-.162-.242-.216-.435-.324a1.578 1.578 0 00-.532-.108c-.194 0-.339.054-.533.108a1.14 1.14 0 00-.435.324 1.298 1.298 0 00-.291.487c-.048.217-.097.379-.097.65 0 .215.049.432.097.648.049.216.145.379.291.487.145.162.242.216.435.324.194.108.339.108.533.108.193 0 .338-.054.532-.108.193-.054.29-.162.435-.324.146-.162.242-.325.291-.487.048-.216.097-.433.097-.649zm5.371-1.352h-.629c-.435 0-.726.108-.968.379-.242.27-.338.649-.338 1.19v2.65h-1.501v-5.679h1.21l.097.54c.145-.161.339-.27.581-.378.242-.108.484-.162.822-.162h.726v1.46zm-.096 1.352c0-.433.048-.811.193-1.19.145-.378.291-.703.533-.973.242-.27.532-.487.871-.65.338-.161.726-.216 1.113-.216.338 0 .629.055.919.163.291.108.484.27.678.432l.048-.432h1.307v5.678h-1.307l-.048-.432a3.032 3.032 0 01-.678.432c-.242.108-.581.162-.919.162-.436 0-.775-.054-1.113-.216a2.744 2.744 0 01-.871-.649 2.325 2.325 0 01-.533-.973c-.145-.325-.193-.703-.193-1.136zm1.5 0c0 .216.048.433.097.649a.795.795 0 00.29.487c.145.162.242.216.436.324.145.054.338.108.532.108.193 0 .339-.054.532-.108.145-.054.291-.162.436-.324.145-.163.242-.325.29-.487a2.97 2.97 0 00.097-.649 2.97 2.97 0 00-.097-.649.795.795 0 00-.29-.487c-.145-.162-.242-.216-.436-.324a1.578 1.578 0 00-.532-.108c-.194 0-.387.054-.532.108a1.135 1.135 0 00-.436.324l-.29.487a2.97 2.97 0 00-.097.649zm10.066 2.812h-1.501v-2.975c0-.27-.048-.486-.096-.649-.049-.162-.097-.324-.194-.432a.769.769 0 00-.339-.217c-.145-.054-.242-.054-.387-.054a1.3 1.3 0 00-.484.108.767.767 0 00-.387.325 2.25 2.25 0 00-.242.487c-.048.216-.097.378-.097.595v2.866h-1.5v-5.679h1.21l.097.433c.096-.054.242-.162.338-.216.097-.054.242-.162.388-.217.145-.054.29-.108.435-.108.145-.054.29-.054.436-.054.387 0 .774.054 1.064.216.291.163.533.325.726.541.194.217.339.541.387.866.097.324.146.757.146 1.19v2.974zm.29-2.812c0-.433.049-.811.194-1.19.145-.378.29-.703.532-.973.242-.27.532-.487.823-.65.339-.161.726-.215 1.113-.215.29 0 .581.054.823.162.242.108.435.216.629.378v-2.38h1.5v7.68h-1.307l-.096-.486a8.29 8.29 0 01-.678.486c-.242.108-.581.217-.871.217-.436 0-.774-.054-1.113-.217a2.744 2.744 0 01-.871-.649 2.325 2.325 0 01-.533-.973c-.048-.379-.145-.757-.145-1.19zm1.549 0c0 .216.048.433.097.65a.795.795 0 00.29.486c.145.162.242.27.435.324.146.054.339.108.533.108.193 0 .339-.054.532-.108.194-.054.291-.162.436-.324.145-.162.242-.325.29-.487a2.97 2.97 0 00.097-.649 2.98 2.98 0 00-.097-.649.795.795 0 00-.29-.487c-.145-.162-.242-.216-.436-.324-.193-.108-.339-.108-.532-.108-.194 0-.387.054-.533.108a1.14 1.14 0 00-.435.324l-.29.487c-.097.217-.097.433-.097.65zm6.34-2.812h-1.5v5.679h1.5v-5.679zm6.001 5.624h-1.5v-2.975c0-.27-.049-.486-.097-.649-.048-.162-.097-.324-.194-.432a.76.76 0 00-.338-.217c-.146-.054-.242-.054-.388-.054-.193 0-.338.054-.484.108a.767.767 0 00-.387.325 2.297 2.297 0 00-.242.487c-.048.216-.097.378-.097.595v2.866h-1.5v-5.679h1.21l.097.433c.097-.054.242-.162.339-.216.096-.054.242-.162.387-.217.145-.054.29-.108.435-.108.146-.054.291-.054.436-.054.387 0 .774.054 1.065.216.29.163.532.325.726.541.193.217.338.541.387.866.097.324.145.757.145 1.19v2.974zm.29-2.812c0-.433.048-.811.193-1.19.146-.378.291-.703.533-.973.242-.27.532-.487.871-.65.339-.161.726-.216 1.113-.216.194 0 .339 0 .484.055l.435.162a1.4 1.4 0 01.388.216c.096.054.242.162.29.27l.097-.486h1.21v5.246c0 .432-.049.81-.194 1.19-.145.378-.29.648-.532.919-.242.27-.533.432-.871.595-.339.162-.726.216-1.162.216a3.84 3.84 0 01-.823-.108 1.78 1.78 0 01-.629-.27c-.145-.109-.338-.217-.484-.38a2.913 2.913 0 01-.338-.486 1.718 1.718 0 01-.194-.54c-.048-.217-.097-.38-.097-.541h1.452l.145.324c.049.108.145.162.242.27.097.109.194.109.339.163.145.054.29.054.436.054.241 0 .483-.054.629-.162.145-.109.29-.217.387-.38a1.66 1.66 0 00.193-.432c.049-.162.049-.324.049-.432v-.163a3.032 3.032 0 01-.678.433c-.242.108-.58.162-.919.162-.387 0-.726-.054-1.065-.216-.339-.162-.581-.325-.823-.595-.242-.27-.387-.595-.532-.92a3.98 3.98 0 01-.145-1.135zm1.5 0c0 .216.048.433.097.649a.795.795 0 00.29.487c.145.162.242.216.436.324.145.054.339.108.532.108.194 0 .339-.054.532-.108.146-.054.291-.162.436-.324l.29-.487a2.97 2.97 0 00.097-.649 2.97 2.97 0 00-.097-.649.795.795 0 00-.29-.487c-.145-.162-.242-.216-.436-.324a1.573 1.573 0 00-.532-.108 1.58 1.58 0 00-.532.108 1.142 1.142 0 00-.436.324l-.29.487a2.97 2.97 0 00-.097.649zm-63.445-4.867h-1.5v1.676h1.5V29.78zm8.275 0h-1.5v1.676h1.5V29.78zm47.379 0h-1.5v1.676h1.5V29.78z" fill="#DEE2E6"/></svg>