<svg width="32" height="32" fill="none" xmlns="http://www.w3.org/2000/svg"><path fill-rule="evenodd" clip-rule="evenodd" d="M0 16C0 7.163 7.163 0 16 0s16 7.163 16 16-7.163 16-16 16S0 24.837 0 16zm21.892-3.378a8.875 8.875 0 01-.109.568 2.506 2.506 0 00-.156-.09l-.28-.159v-.36l.005-.041c.09-.563.087-1.024-.003-1.41a2.344 2.344 0 00-.546-1.023c-.598-.682-1.744-1.028-3.405-1.028h-5.003a.169.169 0 00-.167.143l-2.062 13.074h2.967l.07.002-.085.545-.213 1.35a.375.375 0 00.37.435h2.604c.308 0 .57-.224.619-.528l.025-.133.49-3.11.032-.17a.626.626 0 01.618-.53h.39c2.522 0 4.496-1.024 5.073-3.987.241-1.238.117-2.271-.521-2.998a2.49 2.49 0 00-.713-.55z" fill="#AAAFB4"/><path fill-rule="evenodd" clip-rule="evenodd" d="M21.202 12.347a5.164 5.164 0 00-.642-.142 8.15 8.15 0 00-1.293-.095h-3.922a.622.622 0 00-.618.53l-.834 5.283-.024.154a.713.713 0 01.705-.604h1.467c2.883 0 5.14-1.17 5.8-4.557.02-.1.036-.198.051-.294a3.512 3.512 0 00-.69-.275z" fill="#AAAFB4"/></svg>