<svg width="32" height="32" fill="none" xmlns="http://www.w3.org/2000/svg"><path fill-rule="evenodd" clip-rule="evenodd" d="M0 16C0 7.163 7.163 0 16 0s16 7.163 16 16-7.163 16-16 16S0 24.837 0 16zm22.012-7.893l.817.736-10.321 5.846-4.998-2.854.468-.92 4.53 2.554 9.504-5.362zm-2.079-1.174l1.098.553-8.523 4.833-3.97-2.233.677-.805 3.293 1.864 7.425-4.212zm3.62 2.67l.607.805-11.652 6.605-5.628-3.176.257-1.012 5.37 3.038 11.046-6.26zm2.047 6.009a9.002 9.002 0 00-.518-3.046l-.519-1.313-12.32 7.03L6.4 14.98v.633c0 1.28.251 2.523.754 3.726a9.237 9.237 0 002.05 3.047 9.903 9.903 0 003.038 2.015 9.458 9.458 0 007.492 0 9.473 9.473 0 003.063-2.015 9.74 9.74 0 002.05-3.047l.235-.633c.345-1 .518-2.03.518-3.093z" fill="#AAAFB4"/></svg>