<svg width="32" height="32" fill="none" xmlns="http://www.w3.org/2000/svg"><path fill-rule="evenodd" clip-rule="evenodd" d="M16 32c8.837 0 16-7.163 16-16S24.837 0 16 0 0 7.163 0 16s7.163 16 16 16zm.337-16.617c-.011.869.768 1.354 1.355 1.642.603.296.805.485.803.75-.005.405-.48.583-.927.59-.757.012-1.205-.2-1.56-.367l-.03-.014-.28 1.322c.361.168 1.029.314 1.722.32 1.626 0 2.69-.809 2.695-2.064.004-.952-.778-1.366-1.405-1.698-.42-.222-.77-.408-.764-.694.005-.215.21-.446.657-.504.221-.03.833-.052 1.526.27l.272-1.28a4.12 4.12 0 00-1.448-.267c-1.53 0-2.607.82-2.616 1.994zm6.02-1.442a.706.706 0 01.66-.442h1.322l1.25 6.033h-1.433l-.187-.9h-1.986l-.323.9h-1.625l2.323-5.59zm-7.99-.442l-1.281 6.033h1.548l1.28-6.033h-1.547zm-3.903 4.106l1.612-4.106h1.626l-2.508 6.033H9.556l-1.235-4.815c-.074-.296-.14-.405-.367-.53-.373-.204-.987-.395-1.528-.513l.037-.175h2.635c.335 0 .637.225.714.615l.651 3.491z" fill="#AAAFB4"/><path fill-rule="evenodd" clip-rule="evenodd" d="M23.713 17.394h-1.284l.815-2.265.469 2.265z" fill="#AAAFB4"/></svg>