<svg width="28" height="32" viewBox="0 0 28 32" fill="none" xmlns="http://www.w3.org/2000/svg">
<path d="M24.9464 10.9464C24.9464 4.90087 20.0456 0 14 0C7.95448 0 3.05361 4.90087 3.05361 10.9464C1.4907 11.141 0.0129395 12.1627 0.0129395 14.5344V20.2509C0.0129395 22.9266 1.88599 23.8997 3.66174 23.8997H5.42533C5.76117 23.8997 6.03346 23.6274 6.03346 23.2915V11.5181C6.03346 11.1822 5.76117 10.9099 5.42533 10.9099H4.26988C4.26988 5.53615 8.62624 1.17978 14 1.17978C19.3738 1.17978 23.7302 5.53615 23.7302 10.9099H22.5747C22.2389 10.9099 21.9666 11.1822 21.9666 11.5181V23.2733C21.9666 23.6091 22.2389 23.8814 22.5747 23.8814H23.7302C23.5599 28.0593 21.553 29.0384 17.5454 29.2147V28.8073C17.5454 28.1355 17.0009 27.591 16.3292 27.591H12.504C11.8322 27.591 11.2877 28.1355 11.2877 28.8073V30.7837C11.2877 31.4555 11.8322 32 12.504 32H16.3413C17.0131 32 17.5576 31.4555 17.5576 30.7837V30.431C21.4132 30.2547 24.7457 29.458 24.9464 23.8449C26.5093 23.6503 27.9871 22.6287 27.9871 20.2569V14.5405C27.9871 12.1566 26.5154 11.141 24.9464 10.9464ZM4.8172 12.0836V22.6651H3.63134C2.7313 22.6651 1.1988 22.3489 1.1988 20.2326V14.5162C1.1988 12.4181 2.71305 12.0836 3.63134 12.0836H4.8172ZM16.3413 29.8655V30.7898H12.504V28.8134H16.3413V29.8655ZM26.7708 20.2509C26.7708 22.3489 25.2566 22.6834 24.3383 22.6834H23.1828V12.1262H24.3687C25.2687 12.1262 26.8012 12.4424 26.8012 14.5587L26.7708 20.2509Z" fill="white"/>
</svg>
